Barlow-Light Condensed.ufo
<glyph name="exclam" format="1">
  <advance width="235"/>
  <unicode hex="0021"/>
  <outline>
    <contour>
      <point x="128" y="220" type="line"/>
      <point x="129" y="700" type="line"/>
      <point x="107" y="700" type="line"/>
      <point x="107" y="220" type="line"/>
    </contour>
    <contour>
      <point x="134" y="5"/>
      <point x="150" y="23"/>
      <point x="150" y="46" type="curve" smooth="yes"/>
      <point x="150" y="68"/>
      <point x="134" y="86"/>
      <point x="116" y="86" type="curve" smooth="yes"/>
      <point x="98" y="86"/>
      <point x="82" y="68"/>
      <point x="82" y="46" type="curve" smooth="yes"/>
      <point x="82" y="23"/>
      <point x="97" y="5"/>
      <point x="116" y="5" type="curve" smooth="yes"/>
    </contour>
  </outline>
</glyph>
<glyph name="quotedbl" format="1">
  <advance width="157"/>
  <unicode hex="0022"/>
  <outline>
    <contour>
      <point x="124" y="500" type="line"/>
      <point x="127" y="692" type="line"/>
      <point x="102" y="692" type="line"/>
      <point x="104" y="500" type="line"/>
    </contour>
    <contour>
      <point x="50" y="500" type="line"/>
      <point x="53" y="692" type="line"/>
      <point x="28" y="692" type="line"/>
      <point x="31" y="500" type="line"/>
    </contour>
  </outline>
</glyph>
<glyph name="numbersign" format="1">
  <advance width="570"/>
  <unicode hex="0023"/>
  <outline>
    <contour>
      <point x="231" y="675" type="line"/>
      <point x="209" y="677" type="line"/>
      <point x="121" y="11" type="line"/>
      <point x="143" y="9" type="line"/>
    </contour>
    <contour>
      <point x="451" y="675" type="line"/>
      <point x="428" y="677" type="line"/>
      <point x="340" y="11" type="line"/>
      <point x="362" y="9" type="line"/>
    </contour>
    <contour>
      <point x="101" y="468" type="line"/>
      <point x="101" y="447" type="line"/>
      <point x="500" y="447" type="line"/>
      <point x="500" y="468" type="line"/>
    </contour>
    <contour>
      <point x="70" y="238" type="line"/>
      <point x="70" y="217" type="line"/>
      <point x="469" y="217" type="line"/>
      <point x="469" y="238" type="line"/>
    </contour>
  </outline>
</glyph>
<glyph name="dollar" format="1">
  <advance width="355"/>
  <unicode hex="0024"/>
  <outline>
    <contour>
      <point x="186" y="-88" type="line"/>
      <point x="186" y="2" type="line"/>
      <point x="166" y="2" type="line"/>
      <point x="166" y="-88" type="line"/>
    </contour>
    <contour>
      <point x="181" y="702" type="line"/>
      <point x="181" y="792" type="line"/>
      <point x="161" y="792" type="line"/>
      <point x="161" y="702" type="line"/>
    </contour>
    <component base="S" xOffset="-12"/>
  </outline>
</glyph>
<glyph name="percent" format="1">
  <advance width="792"/>
  <unicode hex="0025"/>
  <outline>
    <contour>
      <point x="595" y="700" type="line"/>
      <point x="573" y="700" type="line"/>
      <point x="196" y="0" type="line"/>
      <point x="218" y="0" type="line"/>
    </contour>
    <contour>
      <point x="644" y="-10"/>
      <point x="701" y="49"/>
      <point x="701" y="122" type="curve" smooth="yes"/>
      <point x="701" y="194"/>
      <point x="644" y="253"/>
      <point x="573" y="253" type="curve" smooth="yes"/>
      <point x="501" y="253"/>
      <point x="444" y="195"/>
      <point x="444" y="122" type="curve" smooth="yes"/>
      <point x="444" y="49"/>
      <point x="501" y="-10"/>
      <point x="573" y="-10" type="curve" smooth="yes"/>
    </contour>
    <contour>
      <point x="513" y="11"/>
      <point x="466" y="60"/>
      <point x="466" y="122" type="curve" smooth="yes"/>
      <point x="466" y="183"/>
      <point x="513" y="232"/>
      <point x="573" y="232" type="curve" smooth="yes"/>
      <point x="632" y="232"/>
      <point x="679" y="183"/>
      <point x="679" y="122" type="curve" smooth="yes"/>
      <point x="679" y="61"/>
      <point x="632" y="11"/>
      <point x="573" y="11" type="curve" smooth="yes"/>
    </contour>
    <contour>
      <point x="291" y="447"/>
      <point x="348" y="506"/>
      <point x="348" y="579" type="curve" smooth="yes"/>
      <point x="348" y="651"/>
      <point x="291" y="710"/>
      <point x="220" y="710" type="curve" smooth="yes"/>
      <point x="148" y="710"/>
      <point x="91" y="652"/>
      <point x="91" y="579" type="curve" smooth="yes"/>
      <point x="91" y="506"/>
      <point x="148" y="447"/>
      <point x="220" y="447" type="curve" smooth="yes"/>
    </contour>
    <contour>
      <point x="160" y="468"/>
      <point x="113" y="517"/>
      <point x="113" y="579" type="curve" smooth="yes"/>
      <point x="113" y="640"/>
      <point x="160" y="689"/>
      <point x="220" y="689" type="curve" smooth="yes"/>
      <point x="279" y="689"/>
      <point x="326" y="640"/>
      <point x="326" y="579" type="curve" smooth="yes"/>
      <point x="326" y="518"/>
      <point x="279" y="468"/>
      <point x="220" y="468" type="curve" smooth="yes"/>
    </contour>
  </outline>
</glyph>
<glyph name="ampersand" format="1">
  <advance width="497"/>
  <unicode hex="0026"/>
  <outline>
    <contour>
      <point x="295" y="-8"/>
      <point x="340" y="52"/>
      <point x="441" y="224" type="curve"/>
      <point x="423" y="236" type="line"/>
      <point x="324" y="66"/>
      <point x="285" y="13"/>
      <point x="203" y="13" type="curve" smooth="yes"/>
      <point x="124" y="13"/>
      <point x="76" y="61"/>
      <point x="76" y="144" type="curve" smooth="yes"/>
      <point x="76" y="337"/>
      <point x="333" y="392"/>
      <point x="333" y="576" type="curve" smooth="yes"/>
      <point x="333" y="656"/>
      <point x="284" y="708"/>
      <point x="216" y="708" type="curve" smooth="yes"/>
      <point x="147" y="708"/>
      <point x="99" y="656"/>
      <point x="99" y="572" type="curve" smooth="yes"/>
      <point x="99" y="503"/>
      <point x="131" y="458"/>
      <point x="191" y="361" type="curve"/>
      <point x="426" y="0" type="line"/>
      <point x="452" y="0" type="line"/>
      <point x="209" y="375" type="line"/>
      <point x="154" y="463"/>
      <point x="121" y="507"/>
      <point x="121" y="572" type="curve" smooth="yes"/>
      <point x="121" y="643"/>
      <point x="160" y="687"/>
      <point x="216" y="687" type="curve" smooth="yes"/>
      <point x="272" y="687"/>
      <point x="311" y="643"/>
      <point x="311" y="577" type="curve" smooth="yes"/>
      <point x="311" y="409"/>
      <point x="54" y="354"/>
      <point x="54" y="147" type="curve" smooth="yes"/>
      <point x="54" y="48"/>
      <point x="112" y="-8"/>
      <point x="202" y="-8" type="curve" smooth="yes"/>
    </contour>
  </outline>
</glyph>
<glyph name="quotesingle" format="1">
  <advance width="83"/>
  <unicode hex="0027"/>
  <outline>
    <contour>
      <point x="50" y="507" type="line"/>
      <point x="53" y="697" type="line"/>
      <point x="28" y="697" type="line"/>
      <point x="31" y="507" type="line"/>
    </contour>
  </outline>
</glyph>
<glyph name="parenleft" format="1">
  <advance width="159"/>
  <unicode hex="0028"/>
  <outline>
    <contour>
      <point x="94" y="-113" type="line"/>
      <point x="51" y="-17"/>
      <point x="21" y="157"/>
      <point x="21" y="322" type="curve" smooth="yes"/>
      <point x="21" y="490"/>
      <point x="51" y="668"/>
      <point x="94" y="766" type="curve"/>
      <point x="73" y="766" type="line"/>
      <point x="26" y="667"/>
      <point x="-5" y="489"/>
      <point x="-5" y="320" type="curve" smooth="yes"/>
      <point x="-5" y="156"/>
      <point x="26" y="-17"/>
      <point x="70" y="-113" type="curve"/>
    </contour>
  </outline>
</glyph>
<glyph name="asterisk" format="1">
  <advance width="346"/>
  <unicode hex="002A"/>
  <outline>
    <contour>
      <point x="315" y="669" type="line"/>
      <point x="184" y="588" type="line"/>
      <point x="184" y="747" type="line"/>
      <point x="162" y="747" type="line"/>
      <point x="162" y="588" type="line"/>
      <point x="31" y="669" type="line"/>
      <point x="21" y="651" type="line"/>
      <point x="151" y="570" type="line"/>
      <point x="21" y="489" type="line"/>
      <point x="31" y="471" type="line"/>
      <point x="162" y="552" type="line"/>
      <point x="162" y="393" type="line"/>
      <point x="184" y="393" type="line"/>
      <point x="184" y="552" type="line"/>
      <point x="315" y="471" type="line"/>
      <point x="325" y="489" type="line"/>
      <point x="195" y="570" type="line"/>
      <point x="325" y="651" type="line"/>
    </contour>
  </outline>
</glyph>
<glyph name="plus" format="1">
  <advance width="450"/>
  <unicode hex="002B"/>
  <outline>
    <contour>
      <point x="433" y="312" type="line"/>
      <point x="433" y="332" type="line"/>
      <point x="17" y="332" type="line"/>
      <point x="17" y="312" type="line"/>
    </contour>
    <contour>
      <point x="235" y="550" type="line"/>
      <point x="215" y="550" type="line"/>
      <point x="215" y="94" type="line"/>
      <point x="235" y="94" type="line"/>
    </contour>
  </outline>
</glyph>
<glyph name="hyphen" format="1">
  <advance width="301"/>
  <unicode hex="002D"/>
  <outline>
    <contour>
      <point x="263" y="311" type="line"/>
      <point x="263" y="332" type="line"/>
      <point x="38" y="332" type="line"/>
      <point x="38" y="311" type="line"/>
    </contour>
  </outline>
</glyph>
<glyph name="period" format="1">
  <advance width="166"/>
  <unicode hex="002E"/>
  <outline>
    <contour>
      <point x="101" y="7"/>
      <point x="117" y="25"/>
      <point x="117" y="48" type="curve" smooth="yes"/>
      <point x="117" y="70"/>
      <point x="101" y="88"/>
      <point x="83" y="88" type="curve" smooth="yes"/>
      <point x="65" y="88"/>
      <point x="49" y="70"/>
      <point x="49" y="48" type="curve" smooth="yes"/>
      <point x="49" y="25"/>
      <point x="64" y="7"/>
      <point x="83" y="7" type="curve" smooth="yes"/>
    </contour>
  </outline>
</glyph>
<glyph name="slash" format="1">
  <advance width="235"/>
  <unicode hex="002F"/>
  <outline>
    <contour>
      <point x="50" y="0" type="line"/>
      <point x="207" y="700" type="line"/>
      <point x="185" y="700" type="line"/>
      <point x="28" y="0" type="line"/>
    </contour>
  </outline>
</glyph>
<glyph name="zero" format="1">
  <advance width="448"/>
  <unicode hex="0030"/>
  <outline>
    <contour>
      <point x="314" y="-9"/>
      <point x="376" y="56"/>
      <point x="376" y="154" type="curve" smooth="yes"/>
      <point x="376" y="546" type="line" smooth="yes"/>
      <point x="376" y="644"/>
      <point x="314" y="709"/>
      <point x="223" y="709" type="curve" smooth="yes"/>
      <point x="132" y="709"/>
      <point x="72" y="644"/>
      <point x="72" y="546" type="curve" smooth="yes"/>
      <point x="72" y="154" type="line" smooth="yes"/>
      <point x="72" y="56"/>
      <point x="132" y="-9"/>
      <point x="223" y="-9" type="curve" smooth="yes"/>
    </contour>
    <contour>
      <point x="146" y="12"/>
      <point x="94" y="68"/>
      <point x="94" y="152" type="curve" smooth="yes"/>
      <point x="94" y="548" type="line" smooth="yes"/>
      <point x="94" y="632"/>
      <point x="146" y="688"/>
      <point x="223" y="688" type="curve" smooth="yes"/>
      <point x="302" y="688"/>
      <point x="354" y="632"/>
      <point x="354" y="548" type="curve" smooth="yes"/>
      <point x="354" y="152" type="line" smooth="yes"/>
      <point x="354" y="68"/>
      <point x="302" y="12"/>
      <point x="223" y="12" type="curve" smooth="yes"/>
    </contour>
  </outline>
</glyph>
<glyph name="one" format="1">
  <advance width="229"/>
  <unicode hex="0031"/>
  <outline>
    <contour>
      <point x="159" y="0" type="line"/>
      <point x="159" y="700" type="line"/>
      <point x="137" y="700" type="line"/>
      <point x="137" y="0" type="line"/>
    </contour>
    <contour>
      <point x="137" y="669" type="line"/>
      <point x="137" y="700" type="line"/>
      <point x="28" y="628" type="line"/>
      <point x="28" y="607" type="line"/>
    </contour>
  </outline>
</glyph>
<glyph name="two" format="1">
  <advance width="380"/>
  <unicode hex="0032"/>
  <outline>
    <contour>
      <point x="335" y="0" type="line"/>
      <point x="335" y="21" type="line"/>
      <point x="90" y="21" type="line"/>
      <point x="146" y="122"/>
      <point x="201" y="222"/>
      <point x="257" y="323" type="curve" smooth="yes"/>
      <point x="305" y="410"/>
      <point x="329" y="485"/>
      <point x="329" y="544" type="curve" smooth="yes"/>
      <point x="329" y="642"/>
      <point x="275" y="708"/>
      <point x="194" y="708" type="curve" smooth="yes"/>
      <point x="116" y="708"/>
      <point x="63" y="642"/>
      <point x="63" y="544" type="curve" smooth="yes"/>
      <point x="63" y="500" type="line"/>
      <point x="86" y="500" type="line"/>
      <point x="86" y="544" type="line"/>
      <point x="85" y="630"/>
      <point x="128" y="687"/>
      <point x="194" y="687" type="curve" smooth="yes"/>
      <point x="262" y="687"/>
      <point x="307" y="630"/>
      <point x="307" y="544" type="curve" smooth="yes"/>
      <point x="307" y="490"/>
      <point x="283" y="420"/>
      <point x="236" y="335" type="curve" smooth="yes"/>
      <point x="178" y="230"/>
      <point x="121" y="126"/>
      <point x="63" y="21" type="curve"/>
      <point x="63" y="0" type="line"/>
    </contour>
  </outline>
</glyph>
<glyph name="three" format="1">
  <advance width="399"/>
  <unicode hex="0033"/>
  <outline>
    <contour>
      <point x="241" y="-8"/>
      <point x="292" y="46"/>
      <point x="305" y="123" type="curve" smooth="yes"/>
      <point x="310" y="155"/>
      <point x="308" y="194"/>
      <point x="308" y="205" type="curve" smooth="yes"/>
      <point x="308" y="217"/>
      <point x="310" y="264"/>
      <point x="305" y="297" type="curve" smooth="yes"/>
      <point x="293" y="374"/>
      <point x="241" y="430"/>
      <point x="163" y="426" type="curve"/>
      <point x="161" y="416" type="line"/>
      <point x="306" y="679" type="line"/>
      <point x="306" y="700" type="line"/>
      <point x="34" y="700" type="line"/>
      <point x="34" y="679" type="line"/>
      <point x="280" y="679" type="line"/>
      <point x="134" y="416" type="line"/>
      <point x="145" y="404" type="line"/>
      <point x="152" y="406"/>
      <point x="160" y="407"/>
      <point x="170" y="407" type="curve" smooth="yes"/>
      <point x="231" y="407"/>
      <point x="274" y="356"/>
      <point x="284" y="285" type="curve" smooth="yes"/>
      <point x="287" y="264"/>
      <point x="286" y="217"/>
      <point x="286" y="205" type="curve" smooth="yes"/>
      <point x="286" y="194"/>
      <point x="287" y="157"/>
      <point x="284" y="135" type="curve" smooth="yes"/>
      <point x="274" y="64"/>
      <point x="231" y="13"/>
      <point x="170" y="13" type="curve" smooth="yes"/>
      <point x="109" y="13"/>
      <point x="69" y="63"/>
      <point x="59" y="135" type="curve" smooth="yes"/>
      <point x="56" y="153"/>
      <point x="55" y="183"/>
      <point x="55" y="202" type="curve"/>
      <point x="33" y="202" type="line"/>
      <point x="33" y="183"/>
      <point x="33" y="151"/>
      <point x="38" y="123" type="curve" smooth="yes"/>
      <point x="52" y="46"/>
      <point x="100" y="-8"/>
      <point x="170" y="-8" type="curve" smooth="yes"/>
    </contour>
  </outline>
</glyph>
<glyph name="four" format="1">
  <advance width="363"/>
  <unicode hex="0034"/>
  <outline>
    <contour>
      <point x="263" y="0" type="line"/>
      <point x="285" y="0" type="line"/>
      <point x="285" y="422" type="line"/>
      <point x="263" y="422" type="line"/>
    </contour>
    <contour>
      <point x="60" y="222" type="line"/>
      <point x="226" y="700" type="line"/>
      <point x="202" y="700" type="line"/>
      <point x="36" y="222" type="line"/>
      <point x="36" y="202" type="line"/>
      <point x="327" y="202" type="line"/>
      <point x="327" y="222" type="line"/>
    </contour>
  </outline>
</glyph>
<glyph name="five" format="1">
  <advance width="361"/>
  <unicode hex="0035"/>
  <outline>
    <contour>
      <point x="248" y="-8"/>
      <point x="300" y="46"/>
      <point x="313" y="123" type="curve" smooth="yes"/>
      <point x="318" y="155"/>
      <point x="317" y="191"/>
      <point x="317" y="210" type="curve" smooth="yes"/>
      <point x="317" y="225"/>
      <point x="318" y="264"/>
      <point x="313" y="307" type="curve" smooth="yes"/>
      <point x="303" y="385"/>
      <point x="248" y="428"/>
      <point x="180" y="428" type="curve" smooth="yes"/>
      <point x="120" y="428"/>
      <point x="69" y="389"/>
      <point x="54" y="331" type="curve"/>
      <point x="64" y="331" type="line"/>
      <point x="65" y="679" type="line"/>
      <point x="294" y="679" type="line"/>
      <point x="294" y="700" type="line"/>
      <point x="43" y="700" type="line"/>
      <point x="43" y="307" type="line"/>
      <point x="65" y="307" type="line"/>
      <point x="77" y="370"/>
      <point x="123" y="407"/>
      <point x="179" y="407" type="curve" smooth="yes"/>
      <point x="239" y="407"/>
      <point x="285" y="367"/>
      <point x="292" y="295" type="curve" smooth="yes"/>
      <point x="295" y="264"/>
      <point x="295" y="227"/>
      <point x="295" y="210" type="curve" smooth="yes"/>
      <point x="295" y="198"/>
      <point x="295" y="157"/>
      <point x="292" y="135" type="curve" smooth="yes"/>
      <point x="282" y="64"/>
      <point x="239" y="13"/>
      <point x="179" y="13" type="curve" smooth="yes"/>
      <point x="119" y="13"/>
      <point x="79" y="63"/>
      <point x="68" y="135" type="curve" smooth="yes"/>
      <point x="65" y="156"/>
      <point x="64" y="184"/>
      <point x="64" y="191" type="curve"/>
      <point x="42" y="191" type="line"/>
      <point x="42" y="185"/>
      <point x="42" y="156"/>
      <point x="48" y="123" type="curve" smooth="yes"/>
      <point x="62" y="46"/>
      <point x="110" y="-8"/>
      <point x="179" y="-8" type="curve" smooth="yes"/>
    </contour>
  </outline>
</glyph>
<glyph name="six" format="1">
  <advance width="389"/>
  <unicode hex="0036"/>
  <outline>
    <contour>
      <point x="274" y="-8"/>
      <point x="325" y="46"/>
      <point x="339" y="123" type="curve" smooth="yes"/>
      <point x="345" y="155"/>
      <point x="343" y="191"/>
      <point x="343" y="210" type="curve" smooth="yes"/>
      <point x="343" y="225"/>
      <point x="344" y="264"/>
      <point x="339" y="297" type="curve" smooth="yes"/>
      <point x="327" y="374"/>
      <point x="274" y="428"/>
      <point x="206" y="428" type="curve" smooth="yes"/>
      <point x="150" y="428"/>
      <point x="106" y="388"/>
      <point x="86" y="330" type="curve"/>
      <point x="90" y="330" type="line"/>
      <point x="90" y="545" type="line" smooth="yes"/>
      <point x="90" y="630"/>
      <point x="137" y="687"/>
      <point x="206" y="687" type="curve" smooth="yes"/>
      <point x="264" y="687"/>
      <point x="310" y="630"/>
      <point x="310" y="545" type="curve" smooth="yes"/>
      <point x="310" y="529" type="line"/>
      <point x="332" y="529" type="line"/>
      <point x="332" y="542" type="line" smooth="yes"/>
      <point x="332" y="642"/>
      <point x="278" y="708"/>
      <point x="206" y="708" type="curve" smooth="yes"/>
      <point x="123" y="708"/>
      <point x="68" y="642"/>
      <point x="68" y="542" type="curve" smooth="yes"/>
      <point x="68" y="211" type="line"/>
      <point x="68" y="195"/>
      <point x="67" y="156"/>
      <point x="74" y="123" type="curve" smooth="yes"/>
      <point x="90" y="46"/>
      <point x="136" y="-8"/>
      <point x="205" y="-8" type="curve" smooth="yes"/>
    </contour>
    <contour>
      <point x="145" y="13"/>
      <point x="103" y="63"/>
      <point x="93" y="135" type="curve" smooth="yes"/>
      <point x="90" y="156"/>
      <point x="90" y="193"/>
      <point x="90" y="210" type="curve" smooth="yes"/>
      <point x="90" y="223"/>
      <point x="90" y="263"/>
      <point x="93" y="285" type="curve" smooth="yes"/>
      <point x="103" y="356"/>
      <point x="145" y="407"/>
      <point x="205" y="407" type="curve" smooth="yes"/>
      <point x="266" y="407"/>
      <point x="308" y="356"/>
      <point x="318" y="285" type="curve" smooth="yes"/>
      <point x="321" y="264"/>
      <point x="321" y="227"/>
      <point x="321" y="210" type="curve" smooth="yes"/>
      <point x="321" y="198"/>
      <point x="321" y="157"/>
      <point x="318" y="135" type="curve" smooth="yes"/>
      <point x="308" y="64"/>
      <point x="266" y="13"/>
      <point x="205" y="13" type="curve" smooth="yes"/>
    </contour>
  </outline>
</glyph>
<glyph name="seven" format="1">
  <advance width="340"/>
  <unicode hex="0037"/>
  <outline>
    <contour>
      <point x="135" y="0" type="line"/>
      <point x="313" y="679" type="line"/>
      <point x="313" y="700" type="line"/>
      <point x="27" y="700" type="line"/>
      <point x="27" y="642" type="line"/>
      <point x="48" y="642" type="line"/>
      <point x="48" y="679" type="line"/>
      <point x="289" y="679" type="line"/>
      <point x="110" y="0" type="line"/>
    </contour>
  </outline>
</glyph>
<glyph name="eight" format="1">
  <advance width="415"/>
  <unicode hex="0038"/>
  <outline>
    <contour>
      <point x="290" y="-18"/>
      <point x="343" y="54"/>
      <point x="343" y="161" type="curve" smooth="yes"/>
      <point x="343" y="215" type="line" smooth="yes"/>
      <point x="343" y="322"/>
      <point x="287" y="394"/>
      <point x="208" y="394" type="curve" smooth="yes"/>
      <point x="129" y="394"/>
      <point x="72" y="322"/>
      <point x="72" y="215" type="curve" smooth="yes"/>
      <point x="72" y="161" type="line" smooth="yes"/>
      <point x="72" y="54"/>
      <point x="127" y="-18"/>
      <point x="208" y="-18" type="curve" smooth="yes"/>
    </contour>
    <contour>
      <point x="140" y="2"/>
      <point x="94" y="66"/>
      <point x="94" y="161" type="curve" smooth="yes"/>
      <point x="94" y="215" type="line" smooth="yes"/>
      <point x="94" y="311"/>
      <point x="140" y="375"/>
      <point x="208" y="375" type="curve" smooth="yes"/>
      <point x="276" y="375"/>
      <point x="321" y="311"/>
      <point x="321" y="215" type="curve" smooth="yes"/>
      <point x="321" y="161" type="line" smooth="yes"/>
      <point x="321" y="66"/>
      <point x="276" y="2"/>
      <point x="208" y="2" type="curve" smooth="yes"/>
    </contour>
    <contour>
      <point x="289" y="375"/>
      <point x="342" y="439"/>
      <point x="342" y="534" type="curve" smooth="yes"/>
      <point x="342" y="549" type="line" smooth="yes"/>
      <point x="342" y="644"/>
      <point x="290" y="708"/>
      <point x="208" y="708" type="curve" smooth="yes"/>
      <point x="127" y="708"/>
      <point x="73" y="644"/>
      <point x="73" y="549" type="curve" smooth="yes"/>
      <point x="73" y="534" type="line" smooth="yes"/>
      <point x="73" y="439"/>
      <point x="128" y="375"/>
      <point x="208" y="375" type="curve" smooth="yes"/>
    </contour>
    <contour>
      <point x="140" y="395"/>
      <point x="96" y="451"/>
      <point x="96" y="534" type="curve" smooth="yes"/>
      <point x="96" y="549" type="line" smooth="yes"/>
      <point x="96" y="633"/>
      <point x="140" y="689"/>
      <point x="208" y="689" type="curve" smooth="yes"/>
      <point x="276" y="689"/>
      <point x="319" y="633"/>
      <point x="319" y="549" type="curve" smooth="yes"/>
      <point x="319" y="534" type="line" smooth="yes"/>
      <point x="319" y="451"/>
      <point x="276" y="395"/>
      <point x="208" y="395" type="curve" smooth="yes"/>
    </contour>
  </outline>
</glyph>
<glyph name="colon" format="1">
  <advance width="166"/>
  <unicode hex="003A"/>
  <outline>
    <contour>
      <point x="83" y="350" type="curve" smooth="yes"/>
      <point x="101" y="350"/>
      <point x="117" y="368"/>
      <point x="117" y="391" type="curve" smooth="yes"/>
      <point x="117" y="413"/>
      <point x="101" y="431"/>
      <point x="83" y="431" type="curve" smooth="yes"/>
      <point x="65" y="431"/>
      <point x="49" y="413"/>
      <point x="49" y="391" type="curve" smooth="yes"/>
      <point x="49" y="368"/>
      <point x="64" y="350"/>
    </contour>
    <contour>
      <point x="83" y="7" type="curve" smooth="yes"/>
      <point x="101" y="7"/>
      <point x="117" y="25"/>
      <point x="117" y="48" type="curve" smooth="yes"/>
      <point x="117" y="70"/>
      <point x="101" y="88"/>
      <point x="83" y="88" type="curve" smooth="yes"/>
      <point x="65" y="88"/>
      <point x="49" y="70"/>
      <point x="49" y="48" type="curve" smooth="yes"/>
      <point x="49" y="25"/>
      <point x="64" y="7"/>
    </contour>
  </outline>
</glyph>
<glyph name="semicolon" format="1">
  <advance width="166"/>
  <unicode hex="003B"/>
  <outline>
    <contour>
      <point x="69" y="-60" type="line"/>
      <point x="97" y="147" type="line"/>
      <point x="74" y="147" type="line"/>
      <point x="49" y="-60" type="line"/>
    </contour>
    <contour>
      <point x="101" y="370"/>
      <point x="117" y="388"/>
      <point x="117" y="411" type="curve"/>
      <point x="117" y="433"/>
      <point x="101" y="451"/>
      <point x="83" y="451" type="curve" smooth="yes"/>
      <point x="65" y="451"/>
      <point x="49" y="433"/>
      <point x="49" y="411" type="curve" smooth="yes"/>
      <point x="49" y="388"/>
      <point x="64" y="370"/>
      <point x="83" y="370" type="curve" smooth="yes"/>
    </contour>
  </outline>
</glyph>
<glyph name="equal" format="1">
  <advance width="422"/>
  <unicode hex="003D"/>
  <outline>
    <contour>
      <point x="384" y="420" type="line"/>
      <point x="384" y="440" type="line"/>
      <point x="38" y="440" type="line"/>
      <point x="38" y="420" type="line"/>
    </contour>
    <contour>
      <point x="384" y="200" type="line"/>
      <point x="384" y="220" type="line"/>
      <point x="38" y="220" type="line"/>
      <point x="38" y="200" type="line"/>
    </contour>
  </outline>
</glyph>
<glyph name="greater" format="1">
  <advance width="386"/>
  <unicode hex="003E"/>
  <outline>
    <contour>
      <point x="38" y="445" type="line"/>
      <point x="328" y="267" type="line"/>
      <point x="38" y="89" type="line"/>
      <point x="38" y="64" type="line"/>
      <point x="348" y="255" type="line"/>
      <point x="348" y="279" type="line"/>
      <point x="38" y="470" type="line"/>
    </contour>
  </outline>
</glyph>
<glyph name="question" format="1">
  <advance width="322"/>
  <unicode hex="003F"/>
  <outline>
    <contour>
      <point x="159" y="185" type="line"/>
      <point x="159" y="271" type="line"/>
      <point x="159" y="372"/>
      <point x="284" y="378"/>
      <point x="284" y="546" type="curve" smooth="yes"/>
      <point x="284" y="645"/>
      <point x="235" y="709"/>
      <point x="161" y="709" type="curve" smooth="yes"/>
      <point x="86" y="709"/>
      <point x="35" y="645"/>
      <point x="35" y="550" type="curve" smooth="yes"/>
      <point x="35" y="500" type="line"/>
      <point x="57" y="500" type="line"/>
      <point x="57" y="550" type="line" smooth="yes"/>
      <point x="57" y="633"/>
      <point x="99" y="688"/>
      <point x="161" y="688" type="curve" smooth="yes"/>
      <point x="221" y="688"/>
      <point x="262" y="633"/>
      <point x="262" y="549" type="curve" smooth="yes"/>
      <point x="262" y="395"/>
      <point x="135" y="394"/>
      <point x="135" y="271" type="curve"/>
      <point x="135" y="185" type="line"/>
    </contour>
    <contour>
      <point x="167" y="5"/>
      <point x="183" y="23"/>
      <point x="183" y="46" type="curve" smooth="yes"/>
      <point x="183" y="68"/>
      <point x="167" y="86"/>
      <point x="149" y="86" type="curve" smooth="yes"/>
      <point x="131" y="86"/>
      <point x="116" y="68"/>
      <point x="116" y="46" type="curve" smooth="yes"/>
      <point x="116" y="23"/>
      <point x="131" y="5"/>
      <point x="149" y="5" type="curve" smooth="yes"/>
    </contour>
  </outline>
</glyph>
<glyph name="at" format="1">
  <advance width="797"/>
  <unicode hex="0040"/>
  <outline>
    <contour>
      <point x="444" y="182"/>
      <point x="481" y="220"/>
      <point x="481" y="279" type="curve" smooth="yes"/>
      <point x="481" y="371" type="line"/>
      <point x="408" y="371" type="line" smooth="yes"/>
      <point x="344" y="371"/>
      <point x="308" y="334"/>
      <point x="308" y="269" type="curve" smooth="yes"/>
      <point x="308" y="213"/>
      <point x="336" y="182"/>
      <point x="387" y="182" type="curve" smooth="yes"/>
    </contour>
    <contour>
      <point x="351" y="203"/>
      <point x="330" y="226"/>
      <point x="330" y="270" type="curve" smooth="yes"/>
      <point x="330" y="321"/>
      <point x="359" y="350"/>
      <point x="409" y="350" type="curve" smooth="yes"/>
      <point x="464" y="350" type="line"/>
      <point x="464" y="279" type="line" smooth="yes"/>
      <point x="464" y="233"/>
      <point x="434" y="203"/>
      <point x="389" y="203" type="curve" smooth="yes"/>
    </contour>
    <contour>
      <point x="486" y="187" type="line"/>
      <point x="486" y="403" type="line" smooth="yes"/>
      <point x="486" y="471"/>
      <point x="455" y="510"/>
      <point x="401" y="510" type="curve" smooth="yes"/>
      <point x="352" y="510"/>
      <point x="314" y="475"/>
      <point x="314" y="428" type="curve"/>
      <point x="337" y="425" type="line"/>
      <point x="334" y="461"/>
      <point x="363" y="489"/>
      <point x="400" y="489" type="curve" smooth="yes"/>
      <point x="440" y="489"/>
      <point x="464" y="459"/>
      <point x="464" y="405" type="curve" smooth="yes"/>
      <point x="464" y="187" type="line"/>
    </contour>
    <contour>
      <point x="604" y="-8"/>
      <point x="761" y="151"/>
      <point x="761" y="347" type="curve" smooth="yes"/>
      <point x="761" y="549"/>
      <point x="604" y="708"/>
      <point x="398" y="708" type="curve" smooth="yes"/>
      <point x="193" y="708"/>
      <point x="36" y="549"/>
      <point x="36" y="347" type="curve" smooth="yes"/>
      <point x="36" y="151"/>
      <point x="193" y="-8"/>
      <point x="398" y="-8" type="curve" smooth="yes"/>
    </contour>
    <contour>
      <point x="205" y="13"/>
      <point x="58" y="163"/>
      <point x="58" y="347" type="curve" smooth="yes"/>
      <point x="58" y="537"/>
      <point x="205" y="687"/>
      <point x="398" y="687" type="curve" smooth="yes"/>
      <point x="591" y="687"/>
      <point x="738" y="537"/>
      <point x="738" y="347" type="curve" smooth="yes"/>
      <point x="738" y="163"/>
      <point x="591" y="13"/>
      <point x="398" y="13" type="curve" smooth="yes"/>
    </contour>
  </outline>
</glyph>
<glyph name="A" format="1">
  <advance width="393"/>
  <unicode hex="0041"/>
  <outline>
    <contour>
      <point x="49" y="0" type="line"/>
      <point x="196" y="662" type="line"/>
      <point x="344" y="0" type="line"/>
      <point x="366" y="0" type="line"/>
      <point x="207" y="700" type="line"/>
      <point x="184" y="700" type="line"/>
      <point x="27" y="0" type="line"/>
    </contour>
    <contour>
      <point x="321" y="155" type="line"/>
      <point x="321" y="176" type="line"/>
      <point x="75" y="176" type="line"/>
      <point x="75" y="155" type="line"/>
    </contour>
    <contour>
      <point x="196" y="700" type="move" name="top"/>
    </contour>
  </outline>
</glyph>
<glyph name="B" format="1">
  <advance width="421"/>
  <unicode hex="0042"/>
  <outline>
    <contour>
      <point x="94" y="679" type="line"/>
      <point x="208" y="679" type="line" smooth="yes"/>
      <point x="297" y="679"/>
      <point x="350" y="621"/>
      <point x="350" y="523" type="curve" smooth="yes"/>
      <point x="350" y="429"/>
      <point x="297" y="373"/>
      <point x="208" y="373" type="curve" smooth="yes"/>
      <point x="94" y="373" type="line"/>
    </contour>
    <contour>
      <point x="207" y="352" type="line" smooth="yes"/>
      <point x="311" y="352"/>
      <point x="372" y="415"/>
      <point x="372" y="523" type="curve" smooth="yes"/>
      <point x="372" y="635"/>
      <point x="311" y="700"/>
      <point x="208" y="700" type="curve" smooth="yes"/>
      <point x="72" y="700" type="line"/>
      <point x="72" y="352" type="line"/>
    </contour>
    <contour>
      <point x="94" y="352" type="line"/>
      <point x="208" y="352" type="line" smooth="yes"/>
      <point x="298" y="352"/>
      <point x="351" y="291"/>
      <point x="351" y="186" type="curve" smooth="yes"/>
      <point x="351" y="83"/>
      <point x="298" y="22"/>
      <point x="208" y="22" type="curve" smooth="yes"/>
      <point x="94" y="22" type="line"/>
    </contour>
    <contour>
      <point x="209" y="0" type="line" smooth="yes"/>
      <point x="312" y="0"/>
      <point x="373" y="69"/>
      <point x="373" y="186" type="curve" smooth="yes"/>
      <point x="373" y="304"/>
      <point x="312" y="373"/>
      <point x="207" y="373" type="curve" smooth="yes"/>
      <point x="72" y="373" type="line"/>
      <point x="72" y="0" type="line"/>
    </contour>
  </outline>
</glyph>
<glyph name="C" format="1">
  <advance width="370"/>
  <unicode hex="0043"/>
  <outline>
    <contour>
      <point x="282" y="-8"/>
      <point x="342" y="54"/>
      <point x="342" y="148" type="curve" smooth="yes"/>
      <point x="342" y="177" type="line"/>
      <point x="319" y="178" type="line"/>
      <point x="319" y="147" type="line" smooth="yes"/>
      <point x="319" y="67"/>
      <point x="268" y="13"/>
      <point x="191" y="13" type="curve" smooth="yes"/>
      <point x="115" y="13"/>
      <point x="64" y="67"/>
      <point x="64" y="147" type="curve" smooth="yes"/>
      <point x="64" y="554" type="line" smooth="yes"/>
      <point x="64" y="634"/>
      <point x="115" y="687"/>
      <point x="191" y="687" type="curve" smooth="yes"/>
      <point x="268" y="687"/>
      <point x="319" y="634"/>
      <point x="319" y="554" type="curve" smooth="yes"/>
      <point x="319" y="521" type="line"/>
      <point x="342" y="522" type="line"/>
      <point x="342" y="553" type="line" smooth="yes"/>
      <point x="342" y="647"/>
      <point x="282" y="708"/>
      <point x="191" y="708" type="curve" smooth="yes"/>
      <point x="102" y="708"/>
      <point x="42" y="647"/>
      <point x="42" y="553" type="curve" smooth="yes"/>
      <point x="42" y="148" type="line" smooth="yes"/>
      <point x="42" y="54"/>
      <point x="102" y="-8"/>
      <point x="191" y="-8" type="curve" smooth="yes"/>
    </contour>
    <contour>
      <point x="191" y="708" type="move" name="top"/>
    </contour>
  </outline>
</glyph>
<glyph name="D" format="1">
  <advance width="395"/>
  <unicode hex="0044"/>
  <outline>
    <contour>
      <point x="200" y="0" type="line" smooth="yes"/>
      <point x="290" y="0"/>
      <point x="346" y="68"/>
      <point x="346" y="180" type="curve" smooth="yes"/>
      <point x="346" y="520" type="line" smooth="yes"/>
      <point x="346" y="632"/>
      <point x="290" y="700"/>
      <point x="200" y="700" type="curve" smooth="yes"/>
      <point x="56" y="700" type="line"/>
      <point x="56" y="0" type="line"/>
    </contour>
    <contour>
      <point x="78" y="679" type="line"/>
      <point x="201" y="679" type="line" smooth="yes"/>
      <point x="277" y="679"/>
      <point x="323" y="619"/>
      <point x="323" y="520" type="curve" smooth="yes"/>
      <point x="323" y="179" type="line" smooth="yes"/>
      <point x="323" y="81"/>
      <point x="276" y="21"/>
      <point x="201" y="21" type="curve" smooth="yes"/>
      <point x="78" y="21" type="line"/>
    </contour>
  </outline>
</glyph>
<glyph name="E" format="1">
  <advance width="366"/>
  <unicode hex="0045"/>
  <outline>
    <contour>
      <point x="338" y="0" type="line"/>
      <point x="338" y="21" type="line"/>
      <point x="78" y="21" type="line"/>
      <point x="78" y="679" type="line"/>
      <point x="338" y="679" type="line"/>
      <point x="338" y="700" type="line"/>
      <point x="56" y="700" type="line"/>
      <point x="56" y="0" type="line"/>
    </contour>
    <contour>
      <point x="255" y="340" type="line"/>
      <point x="255" y="361" type="line"/>
      <point x="67" y="361" type="line"/>
      <point x="67" y="340" type="line"/>
    </contour>
    <contour>
      <point x="197" y="710" type="move" name="top"/>
    </contour>
  </outline>
</glyph>
<glyph name="F" format="1">
  <advance width="357"/>
  <unicode hex="0046"/>
  <outline>
    <contour>
      <point x="78" y="0" type="line"/>
      <point x="78" y="679" type="line"/>
      <point x="336" y="679" type="line"/>
      <point x="336" y="700" type="line"/>
      <point x="56" y="700" type="line"/>
      <point x="56" y="0" type="line"/>
    </contour>
    <contour>
      <point x="254" y="340" type="line"/>
      <point x="254" y="361" type="line"/>
      <point x="67" y="361" type="line"/>
      <point x="67" y="340" type="line"/>
    </contour>
  </outline>
</glyph>
<glyph name="G" format="1">
  <advance width="369"/>
  <unicode hex="0047"/>
  <outline>
    <contour>
      <point x="281" y="-8"/>
      <point x="341" y="52"/>
      <point x="341" y="144" type="curve" smooth="yes"/>
      <point x="341" y="342" type="line"/>
      <point x="198" y="342" type="line"/>
      <point x="198" y="321" type="line"/>
      <point x="319" y="321" type="line"/>
      <point x="319" y="143" type="line" smooth="yes"/>
      <point x="319" y="65"/>
      <point x="268" y="13"/>
      <point x="191" y="13" type="curve" smooth="yes"/>
      <point x="115" y="13"/>
      <point x="64" y="65"/>
      <point x="64" y="143" type="curve" smooth="yes"/>
      <point x="64" y="557" type="line" smooth="yes"/>
      <point x="64" y="635"/>
      <point x="115" y="687"/>
      <point x="191" y="687" type="curve" smooth="yes"/>
      <point x="268" y="687"/>
      <point x="319" y="635"/>
      <point x="319" y="557" type="curve" smooth="yes"/>
      <point x="319" y="500" type="line"/>
      <point x="341" y="500" type="line"/>
      <point x="341" y="556" type="line" smooth="yes"/>
      <point x="341" y="648"/>
      <point x="281" y="708"/>
      <point x="191" y="708" type="curve" smooth="yes"/>
      <point x="102" y="708"/>
      <point x="42" y="648"/>
      <point x="42" y="556" type="curve" smooth="yes"/>
      <point x="42" y="144" type="line" smooth="yes"/>
      <point x="42" y="52"/>
      <point x="102" y="-8"/>
      <point x="191" y="-8" type="curve" smooth="yes"/>
    </contour>
  </outline>
</glyph>
<glyph name="H" format="1">
  <advance width="395"/>
  <unicode hex="0048"/>
  <outline>
    <contour>
      <point x="339" y="0" type="line"/>
      <point x="339" y="700" type="line"/>
      <point x="317" y="700" type="line"/>
      <point x="317" y="0" type="line"/>
    </contour>
    <contour>
      <point x="78" y="0" type="line"/>
      <point x="78" y="700" type="line"/>
      <point x="56" y="700" type="line"/>
      <point x="56" y="0" type="line"/>
    </contour>
    <contour>
      <point x="324" y="340" type="line"/>
      <point x="324" y="361" type="line"/>
      <point x="72" y="361" type="line"/>
      <point x="72" y="340" type="line"/>
    </contour>
  </outline>
</glyph>
<glyph name="I" format="1">
  <advance width="148"/>
  <unicode hex="0049"/>
  <outline>
    <contour>
      <point x="76" y="0" type="line"/>
      <point x="76" y="700" type="line"/>
      <point x="54" y="700" type="line"/>
      <point x="54" y="0" type="line"/>
    </contour>
    <contour>
      <point x="65" y="710" type="move" name="top"/>
    </contour>
  </outline>
</glyph>
<glyph name="J" format="1">
  <advance width="378"/>
  <unicode hex="004A"/>
  <outline>
    <contour>
      <point x="248" y="-8"/>
      <point x="306" y="54"/>
      <point x="306" y="148" type="curve" smooth="yes"/>
      <point x="306" y="700" type="line"/>
      <point x="284" y="700" type="line"/>
      <point x="284" y="147" type="line" smooth="yes"/>
      <point x="284" y="67"/>
      <point x="235" y="13"/>
      <point x="162" y="13" type="curve" smooth="yes"/>
      <point x="89" y="13"/>
      <point x="40" y="67"/>
      <point x="40" y="147" type="curve" smooth="yes"/>
      <point x="40" y="251" type="line"/>
      <point x="18" y="251" type="line"/>
      <point x="18" y="148" type="line" smooth="yes"/>
      <point x="18" y="54"/>
      <point x="76" y="-8"/>
      <point x="162" y="-8" type="curve" smooth="yes"/>
    </contour>
  </outline>
</glyph>
<glyph name="K" format="1">
  <advance width="390"/>
  <unicode hex="004B"/>
  <outline>
    <contour>
      <point x="78" y="0" type="line"/>
      <point x="78" y="274" type="line"/>
      <point x="166" y="406" type="line"/>
      <point x="342" y="0" type="line"/>
      <point x="369" y="0" type="line"/>
      <point x="182" y="427" type="line"/>
      <point x="352" y="700" type="line"/>
      <point x="324" y="700" type="line"/>
      <point x="78" y="308" type="line"/>
      <point x="78" y="700" type="line"/>
      <point x="56" y="700" type="line"/>
      <point x="56" y="0" type="line"/>
    </contour>
  </outline>
</glyph>
<glyph name="L" format="1">
  <advance width="376"/>
  <unicode hex="004C"/>
  <outline>
    <contour>
      <point x="349" y="0" type="line"/>
      <point x="349" y="21" type="line"/>
      <point x="94" y="21" type="line"/>
      <point x="94" y="700" type="line"/>
      <point x="72" y="700" type="line"/>
      <point x="72" y="0" type="line"/>
    </contour>
  </outline>
</glyph>
<glyph name="M" format="1">
  <advance width="464"/>
  <unicode hex="004D"/>
  <outline>
    <contour>
      <point x="94" y="0" type="line"/>
      <point x="94" y="651" type="line"/>
      <point x="224" y="330" type="line"/>
      <point x="242" y="330" type="line"/>
      <point x="370" y="651" type="line"/>
      <point x="370" y="0" type="line"/>
      <point x="392" y="0" type="line"/>
      <point x="392" y="700" type="line"/>
      <point x="370" y="700" type="line"/>
      <point x="231" y="358" type="line"/>
      <point x="94" y="700" type="line"/>
      <point x="72" y="700" type="line"/>
      <point x="72" y="0" type="line"/>
    </contour>
  </outline>
</glyph>
<glyph name="N" format="1">
  <advance width="479"/>
  <unicode hex="004E"/>
  <outline>
    <contour>
      <point x="113" y="0" type="line"/>
      <point x="113" y="648" type="line"/>
      <point x="365" y="0" type="line"/>
      <point x="388" y="0" type="line"/>
      <point x="388" y="700" type="line"/>
      <point x="366" y="700" type="line"/>
      <point x="366" y="52" type="line"/>
      <point x="113" y="700" type="line"/>
      <point x="91" y="700" type="line"/>
      <point x="91" y="0" type="line"/>
    </contour>
    <contour>
      <point x="240" y="710" type="move" name="top"/>
    </contour>
    <contour>
      <point x="236" y="0" type="move" name="bottom"/>
    </contour>
  </outline>
</glyph>
<glyph name="O" format="1">
  <advance width="412"/>
  <unicode hex="004F"/>
  <outline>
    <contour>
      <point x="295" y="-8"/>
      <point x="358" y="56"/>
      <point x="358" y="150" type="curve" smooth="yes"/>
      <point x="358" y="549" type="line" smooth="yes"/>
      <point x="358" y="643"/>
      <point x="295" y="708"/>
      <point x="205" y="708" type="curve" smooth="yes"/>
      <point x="116" y="708"/>
      <point x="54" y="643"/>
      <point x="54" y="549" type="curve" smooth="yes"/>
      <point x="54" y="150" type="line" smooth="yes"/>
      <point x="54" y="56"/>
      <point x="116" y="-8"/>
      <point x="205" y="-8" type="curve" smooth="yes"/>
    </contour>
    <contour>
      <point x="129" y="13"/>
      <point x="76" y="69"/>
      <point x="76" y="149" type="curve" smooth="yes"/>
      <point x="76" y="550" type="line" smooth="yes"/>
      <point x="76" y="631"/>
      <point x="129" y="687"/>
      <point x="205" y="687" type="curve" smooth="yes"/>
      <point x="282" y="687"/>
      <point x="336" y="631"/>
      <point x="336" y="550" type="curve" smooth="yes"/>
      <point x="336" y="149" type="line" smooth="yes"/>
      <point x="336" y="69"/>
      <point x="282" y="13"/>
      <point x="205" y="13" type="curve" smooth="yes"/>
    </contour>
    <contour>
      <point x="205" y="699" type="move" name="top"/>
    </contour>
  </outline>
</glyph>
<glyph name="P" format="1">
  <advance width="384"/>
  <unicode hex="0050"/>
  <outline>
    <contour>
      <point x="78" y="0" type="line"/>
      <point x="78" y="681" type="line"/>
      <point x="204" y="681" type="line" smooth="yes"/>
      <point x="278" y="681"/>
      <point x="327" y="617"/>
      <point x="327" y="520" type="curve" smooth="yes"/>
      <point x="327" y="425"/>
      <point x="278" y="361"/>
      <point x="204" y="361" type="curve" smooth="yes"/>
      <point x="74" y="361" type="line"/>
      <point x="74" y="340" type="line"/>
      <point x="204" y="340" type="line" smooth="yes"/>
      <point x="291" y="340"/>
      <point x="349" y="412"/>
      <point x="349" y="520" type="curve" smooth="yes"/>
      <point x="349" y="629"/>
      <point x="291" y="702"/>
      <point x="204" y="702" type="curve" smooth="yes"/>
      <point x="56" y="702" type="line"/>
      <point x="56" y="0" type="line"/>
    </contour>
  </outline>
</glyph>
<glyph name="Q" format="1">
  <advance width="412"/>
  <unicode hex="0051"/>
  <outline>
    <contour>
      <point x="211" y="-127" type="line"/>
      <point x="211" y="0" type="line"/>
      <point x="188" y="0" type="line"/>
      <point x="188" y="-127" type="line"/>
    </contour>
    <contour>
      <point x="127" y="13"/>
      <point x="76" y="69"/>
      <point x="76" y="150" type="curve" smooth="yes"/>
      <point x="76" y="550" type="line" smooth="yes"/>
      <point x="76" y="631"/>
      <point x="127" y="687"/>
      <point x="200" y="687" type="curve" smooth="yes"/>
      <point x="273" y="687"/>
      <point x="323" y="631"/>
      <point x="323" y="550" type="curve" smooth="yes"/>
      <point x="323" y="150" type="line" smooth="yes"/>
      <point x="323" y="69"/>
      <point x="273" y="13"/>
      <point x="200" y="13" type="curve" smooth="yes"/>
    </contour>
    <contour>
      <point x="286" y="-8"/>
      <point x="345" y="57"/>
      <point x="345" y="151" type="curve" smooth="yes"/>
      <point x="345" y="549" type="line" smooth="yes"/>
      <point x="345" y="643"/>
      <point x="286" y="708"/>
      <point x="200" y="708" type="curve" smooth="yes"/>
      <point x="114" y="708"/>
      <point x="54" y="643"/>
      <point x="54" y="549" type="curve" smooth="yes"/>
      <point x="54" y="151" type="line" smooth="yes"/>
      <point x="54" y="57"/>
      <point x="114" y="-8"/>
      <point x="200" y="-8" type="curve" smooth="yes"/>
    </contour>
  </outline>
</glyph>
<glyph name="R" format="1">
  <advance width="424"/>
  <unicode hex="0052"/>
  <outline>
    <contour>
      <point x="113" y="0" type="line"/>
      <point x="113" y="681" type="line"/>
      <point x="239" y="681" type="line" smooth="yes"/>
      <point x="313" y="681"/>
      <point x="362" y="617"/>
      <point x="362" y="522" type="curve" smooth="yes"/>
      <point x="362" y="428"/>
      <point x="313" y="365"/>
      <point x="239" y="365" type="curve" smooth="yes"/>
      <point x="109" y="365" type="line"/>
      <point x="109" y="344" type="line"/>
      <point x="239" y="344" type="line" smooth="yes"/>
      <point x="326" y="344"/>
      <point x="384" y="415"/>
      <point x="384" y="522" type="curve" smooth="yes"/>
      <point x="384" y="630"/>
      <point x="326" y="702"/>
      <point x="239" y="702" type="curve" smooth="yes"/>
      <point x="91" y="702" type="line"/>
      <point x="91" y="0" type="line"/>
    </contour>
    <contour>
      <point x="389" y="0" type="line"/>
      <point x="258" y="353" type="line"/>
      <point x="239" y="345" type="line"/>
      <point x="367" y="0" type="line"/>
    </contour>
  </outline>
</glyph>
<glyph name="S" format="1">
  <advance width="394"/>
  <unicode hex="0053"/>
  <outline>
    <contour>
      <point x="287" y="-8"/>
      <point x="349" y="60"/>
      <point x="349" y="166" type="curve" smooth="yes"/>
      <point x="349" y="257"/>
      <point x="304" y="294"/>
      <point x="204" y="369" type="curve" smooth="yes"/>
      <point x="117" y="434"/>
      <point x="76" y="469"/>
      <point x="76" y="549" type="curve" smooth="yes"/>
      <point x="76" y="640"/>
      <point x="128" y="688"/>
      <point x="195" y="688" type="curve" smooth="yes"/>
      <point x="270" y="688"/>
      <point x="321" y="627"/>
      <point x="321" y="534" type="curve" smooth="yes"/>
      <point x="321" y="500" type="line"/>
      <point x="343" y="500" type="line"/>
      <point x="343" y="535" type="line" smooth="yes"/>
      <point x="343" y="639"/>
      <point x="284" y="708"/>
      <point x="195" y="708" type="curve" smooth="yes"/>
      <point x="115" y="708"/>
      <point x="54" y="652"/>
      <point x="54" y="551" type="curve" smooth="yes"/>
      <point x="54" y="453"/>
      <point x="110" y="409"/>
      <point x="192" y="347" type="curve" smooth="yes"/>
      <point x="270" y="288"/>
      <point x="327" y="250"/>
      <point x="327" y="159" type="curve" smooth="yes"/>
      <point x="327" y="70"/>
      <point x="272" y="12"/>
      <point x="200" y="12" type="curve" smooth="yes"/>
      <point x="127" y="12"/>
      <point x="75" y="72"/>
      <point x="75" y="165" type="curve" smooth="yes"/>
      <point x="75" y="192" type="line"/>
      <point x="54" y="192" type="line"/>
      <point x="54" y="164" type="line" smooth="yes"/>
      <point x="54" y="60"/>
      <point x="115" y="-8"/>
      <point x="201" y="-8" type="curve" smooth="yes"/>
    </contour>
    <contour>
      <point x="195" y="708" type="move" name="top"/>
    </contour>
  </outline>
</glyph>
<glyph name="T" format="1">
  <advance width="395"/>
  <unicode hex="0054"/>
  <outline>
    <contour>
      <point x="204" y="0" type="line"/>
      <point x="204" y="689" type="line"/>
      <point x="182" y="689" type="line"/>
      <point x="182" y="0" type="line"/>
    </contour>
    <contour>
      <point x="353" y="679" type="line"/>
      <point x="353" y="700" type="line"/>
      <point x="42" y="700" type="line"/>
      <point x="42" y="679" type="line"/>
    </contour>
  </outline>
</glyph>
<glyph name="U" format="1">
  <advance width="432"/>
  <unicode hex="0055"/>
  <outline>
    <contour>
      <point x="307" y="-8"/>
      <point x="369" y="65"/>
      <point x="369" y="175" type="curve" smooth="yes"/>
      <point x="369" y="700" type="line"/>
      <point x="347" y="700" type="line"/>
      <point x="347" y="172" type="line" smooth="yes"/>
      <point x="347" y="77"/>
      <point x="294" y="13"/>
      <point x="215" y="13" type="curve" smooth="yes"/>
      <point x="137" y="13"/>
      <point x="85" y="77"/>
      <point x="85" y="172" type="curve" smooth="yes"/>
      <point x="85" y="700" type="line"/>
      <point x="63" y="700" type="line"/>
      <point x="63" y="175" type="line" smooth="yes"/>
      <point x="63" y="65"/>
      <point x="124" y="-8"/>
      <point x="215" y="-8" type="curve" smooth="yes"/>
    </contour>
    <contour>
      <point x="215" y="710" type="move" name="top"/>
    </contour>
  </outline>
</glyph>
<glyph name="V" format="1">
  <advance width="405"/>
  <unicode hex="0056"/>
  <outline>
    <contour>
      <point x="214" y="0" type="line"/>
      <point x="363" y="700" type="line"/>
      <point x="341" y="700" type="line"/>
      <point x="203" y="42" type="line"/>
      <point x="65" y="700" type="line"/>
      <point x="42" y="700" type="line"/>
      <point x="192" y="0" type="line"/>
    </contour>
  </outline>
</glyph>
<glyph name="W" format="1">
  <advance width="547"/>
  <unicode hex="0057"/>
  <outline>
    <contour>
      <point x="173" y="0" type="line"/>
      <point x="277" y="656" type="line"/>
      <point x="380" y="0" type="line"/>
      <point x="403" y="0" type="line"/>
      <point x="529" y="700" type="line"/>
      <point x="505" y="700" type="line"/>
      <point x="393" y="40" type="line"/>
      <point x="288" y="700" type="line"/>
      <point x="265" y="700" type="line"/>
      <point x="163" y="40" type="line"/>
      <point x="41" y="700" type="line"/>
      <point x="18" y="700" type="line"/>
      <point x="151" y="0" type="line"/>
    </contour>
  </outline>
</glyph>
<glyph name="X" format="1">
  <advance width="375"/>
  <unicode hex="0058"/>
  <outline>
    <contour>
      <point x="52" y="0" type="line"/>
      <point x="188" y="330" type="line"/>
      <point x="323" y="0" type="line"/>
      <point x="348" y="0" type="line"/>
      <point x="198" y="349" type="line"/>
      <point x="348" y="700" type="line"/>
      <point x="323" y="700" type="line"/>
      <point x="188" y="369" type="line"/>
      <point x="52" y="700" type="line"/>
      <point x="27" y="700" type="line"/>
      <point x="176" y="350" type="line"/>
      <point x="27" y="0" type="line"/>
    </contour>
  </outline>
</glyph>
<glyph name="Y" format="1">
  <advance width="341"/>
  <unicode hex="0059"/>
  <outline>
    <contour>
      <point x="182" y="0" type="line"/>
      <point x="182" y="339" type="line"/>
      <point x="323" y="700" type="line"/>
      <point x="300" y="700" type="line"/>
      <point x="171" y="358" type="line"/>
      <point x="41" y="700" type="line"/>
      <point x="18" y="700" type="line"/>
      <point x="160" y="339" type="line"/>
      <point x="160" y="0" type="line"/>
    </contour>
    <contour>
      <point x="171" y="700" type="move" name="top"/>
    </contour>
  </outline>
</glyph>
<glyph name="Z" format="1">
  <advance width="373"/>
  <unicode hex="005A"/>
  <outline>
    <contour>
      <point x="328" y="0" type="line"/>
      <point x="328" y="21" type="line"/>
      <point x="61" y="21" type="line"/>
      <point x="328" y="679" type="line"/>
      <point x="328" y="700" type="line"/>
      <point x="36" y="700" type="line"/>
      <point x="36" y="679" type="line"/>
      <point x="304" y="679" type="line"/>
      <point x="36" y="21" type="line"/>
      <point x="36" y="0" type="line"/>
    </contour>
    <contour>
      <point x="185" y="713" type="move" name="top"/>
    </contour>
  </outline>
</glyph>
<glyph name="bracketleft" format="1">
  <advance width="273"/>
  <unicode hex="005B"/>
  <outline>
    <contour>
      <point x="164" y="-103" type="line"/>
      <point x="164" y="-82" type="line"/>
      <point x="46" y="-82" type="line"/>
      <point x="46" y="735" type="line"/>
      <point x="163" y="735" type="line"/>
      <point x="163" y="756" type="line"/>
      <point x="24" y="756" type="line"/>
      <point x="24" y="-103" type="line"/>
    </contour>
  </outline>
</glyph>
<glyph name="asciicircum" format="1">
  <advance width="378"/>
  <unicode hex="005E"/>
  <outline>
    <contour>
      <point x="38" y="314" type="line"/>
      <point x="60" y="314" type="line"/>
      <point x="189" y="679" type="line"/>
      <point x="318" y="314" type="line"/>
      <point x="340" y="314" type="line"/>
      <point x="201" y="700" type="line"/>
      <point x="177" y="700" type="line"/>
    </contour>
  </outline>
</glyph>
<glyph name="a" format="1">
  <advance width="378"/>
  <unicode hex="0061"/>
  <outline>
    <contour>
      <point x="322" y="0" type="line"/>
      <point x="322" y="342" type="line" smooth="yes"/>
      <point x="322" y="442"/>
      <point x="277" y="508"/>
      <point x="191" y="508" type="curve" smooth="yes"/>
      <point x="122" y="508"/>
      <point x="61" y="461"/>
      <point x="58" y="388" type="curve"/>
      <point x="81" y="385" type="line"/>
      <point x="81" y="446"/>
      <point x="133" y="487"/>
      <point x="190" y="487" type="curve" smooth="yes"/>
      <point x="262" y="487"/>
      <point x="299" y="430"/>
      <point x="299" y="345" type="curve" smooth="yes"/>
      <point x="299" y="0" type="line"/>
    </contour>
    <contour>
      <point x="245" y="-8"/>
      <point x="314" y="37"/>
      <point x="314" y="142" type="curve"/>
      <point x="314" y="283" type="line"/>
      <point x="202" y="283" type="line" smooth="yes"/>
      <point x="113" y="283"/>
      <point x="48" y="236"/>
      <point x="48" y="126" type="curve" smooth="yes"/>
      <point x="48" y="18"/>
      <point x="112" y="-8"/>
      <point x="169" y="-8" type="curve" smooth="yes"/>
    </contour>
    <contour>
      <point x="115" y="13"/>
      <point x="70" y="45"/>
      <point x="70" y="127" type="curve" smooth="yes"/>
      <point x="70" y="219"/>
      <point x="126" y="262"/>
      <point x="204" y="262" type="curve" smooth="yes"/>
      <point x="299" y="262" type="line"/>
      <point x="299" y="142" type="line" smooth="yes"/>
      <point x="299" y="52"/>
      <point x="235" y="13"/>
      <point x="172" y="13" type="curve" smooth="yes"/>
    </contour>
    <contour>
      <point x="187" y="508" type="move" name="top"/>
    </contour>
  </outline>
</glyph>
<glyph name="b" format="1">
  <advance width="358"/>
  <unicode hex="0062"/>
  <outline>
    <contour>
      <point x="78" y="0" type="line"/>
      <point x="78" y="700" type="line"/>
      <point x="56" y="700" type="line"/>
      <point x="56" y="0" type="line"/>
    </contour>
    <component base="b.bowl" xOffset="63"/>
  </outline>
</glyph>
<glyph name="c" format="1">
  <advance width="374"/>
  <unicode hex="0063"/>
  <outline>
    <contour>
      <point x="270" y="-8"/>
      <point x="325" y="52"/>
      <point x="325" y="115" type="curve" smooth="yes"/>
      <point x="325" y="117"/>
      <point x="325" y="125"/>
      <point x="325" y="127" type="curve"/>
      <point x="303" y="127" type="line"/>
      <point x="303" y="125"/>
      <point x="303" y="117"/>
      <point x="303" y="115" type="curve" smooth="yes"/>
      <point x="303" y="63"/>
      <point x="257" y="13"/>
      <point x="190" y="13" type="curve" smooth="yes"/>
      <point x="124" y="13"/>
      <point x="78" y="63"/>
      <point x="78" y="135" type="curve" smooth="yes"/>
      <point x="78" y="173"/>
      <point x="78" y="212"/>
      <point x="78" y="250" type="curve" smooth="yes"/>
      <point x="78" y="288"/>
      <point x="78" y="327"/>
      <point x="78" y="365" type="curve" smooth="yes"/>
      <point x="78" y="437"/>
      <point x="124" y="487"/>
      <point x="190" y="487" type="curve" smooth="yes"/>
      <point x="257" y="487"/>
      <point x="303" y="437"/>
      <point x="303" y="385" type="curve" smooth="yes"/>
      <point x="303" y="383"/>
      <point x="303" y="375"/>
      <point x="303" y="373" type="curve"/>
      <point x="325" y="373" type="line"/>
      <point x="325" y="374"/>
      <point x="325" y="384"/>
      <point x="325" y="385" type="curve" smooth="yes"/>
      <point x="325" y="448"/>
      <point x="270" y="508"/>
      <point x="190" y="508" type="curve" smooth="yes"/>
      <point x="111" y="508"/>
      <point x="56" y="448"/>
      <point x="56" y="365" type="curve" smooth="yes"/>
      <point x="56" y="327"/>
      <point x="56" y="288"/>
      <point x="56" y="250" type="curve" smooth="yes"/>
      <point x="56" y="212"/>
      <point x="56" y="173"/>
      <point x="56" y="135" type="curve" smooth="yes"/>
      <point x="56" y="52"/>
      <point x="111" y="-8"/>
      <point x="190" y="-8" type="curve" smooth="yes"/>
    </contour>
    <contour>
      <point x="190" y="508" type="move" name="top"/>
    </contour>
  </outline>
</glyph>
<glyph name="e" format="1">
  <advance width="359"/>
  <unicode hex="0065"/>
  <outline>
    <contour>
      <point x="250" y="-8"/>
      <point x="302" y="40"/>
      <point x="312" y="109" type="curve"/>
      <point x="290" y="108" type="line"/>
      <point x="280" y="51"/>
      <point x="237" y="13"/>
      <point x="179" y="13" type="curve" smooth="yes"/>
      <point x="113" y="13"/>
      <point x="67" y="63"/>
      <point x="67" y="135" type="curve" smooth="yes"/>
      <point x="67" y="173"/>
      <point x="67" y="212"/>
      <point x="67" y="250" type="curve" smooth="yes"/>
      <point x="67" y="288"/>
      <point x="67" y="327"/>
      <point x="67" y="365" type="curve" smooth="yes"/>
      <point x="67" y="437"/>
      <point x="113" y="487"/>
      <point x="179" y="487" type="curve" smooth="yes"/>
      <point x="246" y="487"/>
      <point x="292" y="437"/>
      <point x="292" y="365" type="curve" smooth="yes"/>
      <point x="292" y="327"/>
      <point x="292" y="288"/>
      <point x="292" y="261" type="curve"/>
      <point x="301" y="267" type="line"/>
      <point x="59" y="267" type="line"/>
      <point x="59" y="246" type="line"/>
      <point x="314" y="246" type="line"/>
      <point x="314" y="286"/>
      <point x="314" y="327"/>
      <point x="314" y="365" type="curve" smooth="yes"/>
      <point x="314" y="448"/>
      <point x="259" y="508"/>
      <point x="179" y="508" type="curve" smooth="yes"/>
      <point x="100" y="508"/>
      <point x="45" y="448"/>
      <point x="45" y="365" type="curve" smooth="yes"/>
      <point x="45" y="327"/>
      <point x="45" y="288"/>
      <point x="45" y="250" type="curve" smooth="yes"/>
      <point x="45" y="212"/>
      <point x="45" y="173"/>
      <point x="45" y="135" type="curve" smooth="yes"/>
      <point x="45" y="52"/>
      <point x="100" y="-8"/>
      <point x="179" y="-8" type="curve" smooth="yes"/>
    </contour>
    <contour>
      <point x="179" y="508" type="move" name="top"/>
    </contour>
  </outline>
</glyph>
<glyph name="f" format="1">
  <advance width="235"/>
  <unicode hex="0066"/>
  <outline>
    <contour>
      <point x="110" y="0" type="line"/>
      <point x="110" y="550" type="line" smooth="yes"/>
      <point x="110" y="637"/>
      <point x="123" y="689"/>
      <point x="193" y="689" type="curve" smooth="yes"/>
      <point x="218" y="689" type="line"/>
      <point x="218" y="710" type="line"/>
      <point x="192" y="710" type="line" smooth="yes"/>
      <point x="110" y="710"/>
      <point x="88" y="650"/>
      <point x="88" y="550" type="curve" smooth="yes"/>
      <point x="88" y="0" type="line"/>
    </contour>
    <contour>
      <point x="214" y="479" type="line"/>
      <point x="214" y="500" type="line"/>
      <point x="28" y="500" type="line"/>
      <point x="28" y="479" type="line"/>
    </contour>
  </outline>
</glyph>
<glyph name="g" format="1">
  <advance width="393"/>
  <unicode hex="0067"/>
  <outline>
    <contour>
      <point x="266" y="-204"/>
      <point x="321" y="-130"/>
      <point x="321" y="0" type="curve" smooth="yes"/>
      <point x="321" y="500" type="line"/>
      <point x="298" y="500" type="line"/>
      <point x="298" y="0" type="line" smooth="yes"/>
      <point x="298" y="-117"/>
      <point x="252" y="-183"/>
      <point x="173" y="-179" type="curve"/>
      <point x="173" y="-200" type="line"/>
    </contour>
    <component base="b.bowl" xOffset="314" xScale="-1"/>
  </outline>
</glyph>
<glyph name="h" format="1">
  <advance width="408"/>
  <unicode hex="0068"/>
  <outline>
    <contour>
      <point x="99" y="0" type="line"/>
      <point x="99" y="700" type="line"/>
      <point x="77" y="700" type="line"/>
      <point x="77" y="0" type="line"/>
    </contour>
    <component base="n.curve" xOffset="84"/>
  </outline>
</glyph>
<glyph name="i" format="1">
  <advance width="185"/>
  <unicode hex="0069"/>
  <outline>
    <contour>
      <point x="101" y="0" type="line"/>
      <point x="101" y="500" type="line"/>
      <point x="79" y="500" type="line"/>
      <point x="79" y="0" type="line"/>
    </contour>
    <contour>
      <point x="104" y="620"/>
      <point x="115" y="633"/>
      <point x="115" y="650" type="curve" smooth="yes"/>
      <point x="115" y="666"/>
      <point x="104" y="679"/>
      <point x="90" y="679" type="curve" smooth="yes"/>
      <point x="75" y="679"/>
      <point x="63" y="666"/>
      <point x="63" y="650" type="curve" smooth="yes"/>
      <point x="63" y="633"/>
      <point x="75" y="620"/>
      <point x="90" y="620" type="curve" smooth="yes"/>
    </contour>
  </outline>
</glyph>
<glyph name="j" format="1">
  <advance width="175"/>
  <unicode hex="006A"/>
  <outline>
    <contour>
      <point x="73" y="-211"/>
      <point x="112" y="-159"/>
      <point x="112" y="-74" type="curve" smooth="yes"/>
      <point x="112" y="500" type="line"/>
      <point x="90" y="500" type="line"/>
      <point x="90" y="-74" type="line" smooth="yes"/>
      <point x="90" y="-146"/>
      <point x="58" y="-190"/>
      <point x="2" y="-190" type="curve"/>
      <point x="2" y="-211" type="line"/>
    </contour>
    <contour>
      <point x="117" y="620"/>
      <point x="128" y="631"/>
      <point x="128" y="650" type="curve" smooth="yes"/>
      <point x="128" y="669"/>
      <point x="117" y="679"/>
      <point x="101" y="679" type="curve" smooth="yes"/>
      <point x="86" y="679"/>
      <point x="75" y="669"/>
      <point x="75" y="650" type="curve" smooth="yes"/>
      <point x="75" y="631"/>
      <point x="86" y="620"/>
      <point x="101" y="620" type="curve" smooth="yes"/>
    </contour>
  </outline>
</glyph>
<glyph name="k" format="1">
  <advance width="391"/>
  <unicode hex="006B"/>
  <outline>
    <contour>
      <point x="106" y="0" type="line"/>
      <point x="106" y="200" type="line"/>
      <point x="214" y="345" type="line"/>
      <point x="325" y="0" type="line"/>
      <point x="349" y="0" type="line"/>
      <point x="229" y="363" type="line"/>
      <point x="333" y="500" type="line"/>
      <point x="307" y="500" type="line"/>
      <point x="106" y="232" type="line"/>
      <point x="106" y="700" type="line"/>
      <point x="84" y="700" type="line"/>
      <point x="84" y="0" type="line"/>
    </contour>
  </outline>
</glyph>
<glyph name="l" format="1">
  <advance width="162"/>
  <unicode hex="006C"/>
  <outline>
    <contour>
      <point x="92" y="0" type="line"/>
      <point x="92" y="700" type="line"/>
      <point x="70" y="700" type="line"/>
      <point x="70" y="0" type="line"/>
    </contour>
    <contour>
      <point x="81" y="700" type="move" name="top"/>
    </contour>
  </outline>
</glyph>
<glyph name="m" format="1">
  <advance width="643"/>
  <unicode hex="006D"/>
  <outline>
    <contour>
      <point x="106" y="0" type="line"/>
      <point x="106" y="500" type="line"/>
      <point x="84" y="500" type="line"/>
      <point x="84" y="0" type="line"/>
    </contour>
    <contour>
      <point x="336" y="0" type="line"/>
      <point x="336" y="347" type="line" smooth="yes"/>
      <point x="336" y="446"/>
      <point x="288" y="507"/>
      <point x="217" y="507" type="curve" smooth="yes"/>
      <point x="143" y="507"/>
      <point x="90" y="448"/>
      <point x="90" y="346" type="curve"/>
      <point x="106" y="346" type="line"/>
      <point x="106" y="433"/>
      <point x="148" y="486"/>
      <point x="213" y="486" type="curve" smooth="yes"/>
      <point x="272" y="486"/>
      <point x="314" y="432"/>
      <point x="314" y="344" type="curve" smooth="yes"/>
      <point x="314" y="0" type="line"/>
    </contour>
    <contour>
      <point x="566" y="0" type="line"/>
      <point x="566" y="347" type="line" smooth="yes"/>
      <point x="566" y="446"/>
      <point x="517" y="507"/>
      <point x="447" y="507" type="curve" smooth="yes"/>
      <point x="373" y="507"/>
      <point x="319" y="451"/>
      <point x="319" y="346" type="curve"/>
      <point x="336" y="346" type="line"/>
      <point x="336" y="433"/>
      <point x="378" y="486"/>
      <point x="442" y="486" type="curve" smooth="yes"/>
      <point x="502" y="486"/>
      <point x="544" y="432"/>
      <point x="544" y="344" type="curve" smooth="yes"/>
      <point x="544" y="0" type="line"/>
    </contour>
  </outline>
</glyph>
<glyph name="n" format="1">
  <advance width="396"/>
  <unicode hex="006E"/>
  <outline>
    <contour>
      <point x="94" y="0" type="line"/>
      <point x="94" y="500" type="line"/>
      <point x="72" y="500" type="line"/>
      <point x="72" y="0" type="line"/>
    </contour>
    <component base="n.curve" xOffset="79"/>
    <contour>
      <point x="204" y="507" type="move" name="top"/>
    </contour>
  </outline>
</glyph>
<glyph name="o" format="1">
  <advance width="381"/>
  <unicode hex="006F"/>
  <outline>
    <contour>
      <point x="270" y="-8"/>
      <point x="325" y="52"/>
      <point x="325" y="135" type="curve" smooth="yes"/>
      <point x="325" y="173"/>
      <point x="325" y="212"/>
      <point x="325" y="250" type="curve" smooth="yes"/>
      <point x="325" y="288"/>
      <point x="325" y="327"/>
      <point x="325" y="365" type="curve" smooth="yes"/>
      <point x="325" y="448"/>
      <point x="270" y="508"/>
      <point x="190" y="508" type="curve" smooth="yes"/>
      <point x="111" y="508"/>
      <point x="56" y="448"/>
      <point x="56" y="365" type="curve" smooth="yes"/>
      <point x="56" y="327"/>
      <point x="56" y="288"/>
      <point x="56" y="250" type="curve" smooth="yes"/>
      <point x="56" y="212"/>
      <point x="56" y="173"/>
      <point x="56" y="135" type="curve" smooth="yes"/>
      <point x="56" y="52"/>
      <point x="111" y="-8"/>
      <point x="190" y="-8" type="curve" smooth="yes"/>
    </contour>
    <contour>
      <point x="124" y="13"/>
      <point x="78" y="63"/>
      <point x="78" y="135" type="curve" smooth="yes"/>
      <point x="78" y="173"/>
      <point x="78" y="212"/>
      <point x="78" y="250" type="curve" smooth="yes"/>
      <point x="78" y="288"/>
      <point x="78" y="327"/>
      <point x="78" y="365" type="curve" smooth="yes"/>
      <point x="78" y="437"/>
      <point x="124" y="487"/>
      <point x="190" y="487" type="curve" smooth="yes"/>
      <point x="257" y="487"/>
      <point x="303" y="437"/>
      <point x="303" y="365" type="curve" smooth="yes"/>
      <point x="303" y="327"/>
      <point x="303" y="288"/>
      <point x="303" y="250" type="curve" smooth="yes"/>
      <point x="303" y="212"/>
      <point x="303" y="173"/>
      <point x="303" y="135" type="curve" smooth="yes"/>
      <point x="303" y="63"/>
      <point x="257" y="13"/>
      <point x="190" y="13" type="curve" smooth="yes"/>
    </contour>
    <contour>
      <point x="190" y="508" type="move" name="top"/>
    </contour>
  </outline>
</glyph>
<glyph name="r" format="1">
  <advance width="270"/>
  <unicode hex="0072"/>
  <outline>
    <contour>
      <point x="106" y="331" type="line"/>
      <point x="106" y="419"/>
      <point x="149" y="479"/>
      <point x="210" y="479" type="curve" smooth="yes"/>
      <point x="231" y="479"/>
      <point x="242" y="474"/>
      <point x="253" y="466" type="curve"/>
      <point x="263" y="489" type="line"/>
      <point x="250" y="498"/>
      <point x="237" y="504"/>
      <point x="213" y="504" type="curve" smooth="yes"/>
      <point x="140" y="504"/>
      <point x="93" y="438"/>
      <point x="93" y="331" type="curve"/>
    </contour>
    <contour>
      <point x="106" y="0" type="line"/>
      <point x="106" y="500" type="line"/>
      <point x="84" y="500" type="line"/>
      <point x="84" y="0" type="line"/>
    </contour>
  </outline>
</glyph>
<glyph name="s" format="1">
  <advance width="346"/>
  <unicode hex="0073"/>
  <outline>
    <contour>
      <point x="251" y="-4"/>
      <point x="301" y="47"/>
      <point x="301" y="123" type="curve" smooth="yes"/>
      <point x="301" y="212"/>
      <point x="235" y="238"/>
      <point x="173" y="264" type="curve" smooth="yes"/>
      <point x="119" y="287"/>
      <point x="69" y="310"/>
      <point x="69" y="378" type="curve" smooth="yes"/>
      <point x="69" y="441"/>
      <point x="110" y="483"/>
      <point x="172" y="483" type="curve" smooth="yes"/>
      <point x="236" y="483"/>
      <point x="278" y="437"/>
      <point x="278" y="379" type="curve" smooth="yes"/>
      <point x="278" y="366" type="line"/>
      <point x="299" y="366" type="line"/>
      <point x="299" y="379" type="line" smooth="yes"/>
      <point x="299" y="450"/>
      <point x="250" y="504"/>
      <point x="173" y="504" type="curve" smooth="yes"/>
      <point x="98" y="504"/>
      <point x="47" y="454"/>
      <point x="47" y="378" type="curve" smooth="yes"/>
      <point x="47" y="294"/>
      <point x="106" y="268"/>
      <point x="167" y="243" type="curve" smooth="yes"/>
      <point x="225" y="219"/>
      <point x="279" y="196"/>
      <point x="279" y="123" type="curve" smooth="yes"/>
      <point x="279" y="59"/>
      <point x="238" y="17"/>
      <point x="175" y="17" type="curve" smooth="yes"/>
      <point x="108" y="17"/>
      <point x="67" y="61"/>
      <point x="67" y="116" type="curve" smooth="yes"/>
      <point x="67" y="130" type="line"/>
      <point x="45" y="130" type="line"/>
      <point x="45" y="116" type="line" smooth="yes"/>
      <point x="45" y="48"/>
      <point x="97" y="-4"/>
      <point x="175" y="-4" type="curve" smooth="yes"/>
    </contour>
    <contour>
      <point x="172" y="504" type="move" name="top"/>
    </contour>
  </outline>
</glyph>
<glyph name="t" format="1">
  <advance width="258"/>
  <unicode hex="0074"/>
  <outline>
    <contour>
      <point x="216" y="0" type="line"/>
      <point x="216" y="21" type="line"/>
      <point x="195" y="21" type="line" smooth="yes"/>
      <point x="142" y="21"/>
      <point x="115" y="43"/>
      <point x="115" y="123" type="curve" smooth="yes"/>
      <point x="115" y="626" type="line"/>
      <point x="92" y="626" type="line"/>
      <point x="92" y="124" type="line" smooth="yes"/>
      <point x="92" y="23"/>
      <point x="133" y="0"/>
      <point x="193" y="0" type="curve" smooth="yes"/>
    </contour>
    <contour>
      <point x="216" y="479" type="line"/>
      <point x="216" y="500" type="line"/>
      <point x="36" y="500" type="line"/>
      <point x="36" y="479" type="line"/>
    </contour>
  </outline>
</glyph>
<glyph name="u" format="1">
  <advance width="359"/>
  <unicode hex="0075"/>
  <outline>
    <contour>
      <point x="248" y="-7"/>
      <point x="298" y="49"/>
      <point x="298" y="154" type="curve"/>
      <point x="281" y="154" type="line"/>
      <point x="281" y="67"/>
      <point x="238" y="14"/>
      <point x="170" y="14" type="curve" smooth="yes"/>
      <point x="103" y="14"/>
      <point x="64" y="57"/>
      <point x="64" y="143" type="curve" smooth="yes"/>
      <point x="64" y="500" type="line"/>
      <point x="42" y="500" type="line"/>
      <point x="42" y="138" type="line" smooth="yes"/>
      <point x="42" y="41"/>
      <point x="91" y="-7"/>
      <point x="170" y="-7" type="curve" smooth="yes"/>
    </contour>
    <contour>
      <point x="303" y="0" type="line"/>
      <point x="303" y="500" type="line"/>
      <point x="281" y="500" type="line"/>
      <point x="281" y="0" type="line"/>
    </contour>
    <contour>
      <point x="172" y="500" type="move" name="top"/>
    </contour>
  </outline>
</glyph>
<glyph name="v" format="1">
  <advance width="337"/>
  <unicode hex="0076"/>
  <outline>
    <contour>
      <point x="181" y="0" type="line"/>
      <point x="310" y="500" type="line"/>
      <point x="285" y="500" type="line"/>
      <point x="169" y="33" type="line"/>
      <point x="52" y="500" type="line"/>
      <point x="27" y="500" type="line"/>
      <point x="158" y="0" type="line"/>
    </contour>
  </outline>
</glyph>
<glyph name="w" format="1">
  <advance width="511"/>
  <unicode hex="0077"/>
  <outline>
    <contour>
      <point x="158" y="0" type="line"/>
      <point x="254" y="461" type="line"/>
      <point x="352" y="0" type="line"/>
      <point x="374" y="0" type="line"/>
      <point x="484" y="500" type="line"/>
      <point x="462" y="500" type="line"/>
      <point x="363" y="27" type="line"/>
      <point x="265" y="500" type="line"/>
      <point x="243" y="500" type="line"/>
      <point x="146" y="27" type="line"/>
      <point x="49" y="500" type="line"/>
      <point x="27" y="500" type="line"/>
      <point x="135" y="0" type="line"/>
    </contour>
  </outline>
</glyph>
<glyph name="x" format="1">
  <advance width="343"/>
  <unicode hex="0078"/>
  <outline>
    <contour>
      <point x="52" y="0" type="line"/>
      <point x="172" y="233" type="line"/>
      <point x="292" y="0" type="line"/>
      <point x="316" y="0" type="line"/>
      <point x="183" y="250" type="line"/>
      <point x="316" y="500" type="line"/>
      <point x="292" y="500" type="line"/>
      <point x="172" y="267" type="line"/>
      <point x="52" y="500" type="line"/>
      <point x="27" y="500" type="line"/>
      <point x="161" y="250" type="line"/>
      <point x="27" y="0" type="line"/>
    </contour>
  </outline>
</glyph>
<glyph name="y" format="1">
  <advance width="341"/>
  <unicode hex="0079"/>
  <outline>
    <contour>
      <point x="59" y="-200" type="line"/>
      <point x="113" y="-200"/>
      <point x="134" y="-185"/>
      <point x="167" y="-62" type="curve" smooth="yes"/>
      <point x="314" y="500" type="line"/>
      <point x="291" y="500" type="line"/>
      <point x="171" y="27" type="line"/>
      <point x="50" y="500" type="line"/>
      <point x="27" y="500" type="line"/>
      <point x="160" y="0" type="line"/>
      <point x="125" y="-147"/>
      <point x="115" y="-178"/>
      <point x="59" y="-179" type="curve"/>
      <point x="48" y="-179" type="line"/>
      <point x="48" y="-200" type="line"/>
    </contour>
    <contour>
      <point x="171" y="500" type="move" name="top"/>
    </contour>
  </outline>
</glyph>
<glyph name="z" format="1">
  <advance width="352"/>
  <unicode hex="007A"/>
  <outline>
    <contour>
      <point x="310" y="0" type="line"/>
      <point x="310" y="21" type="line"/>
      <point x="69" y="21" type="line"/>
      <point x="312" y="479" type="line"/>
      <point x="312" y="500" type="line"/>
      <point x="46" y="500" type="line"/>
      <point x="46" y="479" type="line"/>
      <point x="287" y="479" type="line"/>
      <point x="44" y="21" type="line"/>
      <point x="44" y="0" type="line"/>
    </contour>
    <contour>
      <point x="181" y="509" type="move" name="top"/>
    </contour>
  </outline>
</glyph>
<glyph name="braceleft" format="1">
  <advance width="223"/>
  <unicode hex="007B"/>
  <outline>
    <contour>
      <point x="199" y="-103" type="line"/>
      <point x="199" y="-82" type="line"/>
      <point x="159" y="-82" type="line" smooth="yes"/>
      <point x="117" y="-82"/>
      <point x="100" y="-59"/>
      <point x="100" y="0" type="curve" smooth="yes"/>
      <point x="100" y="223" type="line" smooth="yes"/>
      <point x="100" y="284"/>
      <point x="85" y="315"/>
      <point x="53" y="331" type="curve"/>
      <point x="85" y="345"/>
      <point x="100" y="375"/>
      <point x="100" y="437" type="curve" smooth="yes"/>
      <point x="100" y="653" type="line" smooth="yes"/>
      <point x="100" y="712"/>
      <point x="117" y="735"/>
      <point x="159" y="735" type="curve" smooth="yes"/>
      <point x="199" y="735" type="line"/>
      <point x="199" y="756" type="line"/>
      <point x="161" y="756" type="line" smooth="yes"/>
      <point x="101" y="756"/>
      <point x="78" y="726"/>
      <point x="78" y="649" type="curve" smooth="yes"/>
      <point x="78" y="432" type="line" smooth="yes"/>
      <point x="78" y="371"/>
      <point x="61" y="345"/>
      <point x="24" y="341" type="curve"/>
      <point x="24" y="320" type="line"/>
      <point x="61" y="316"/>
      <point x="78" y="290"/>
      <point x="78" y="228" type="curve" smooth="yes"/>
      <point x="78" y="4" type="line" smooth="yes"/>
      <point x="78" y="-73"/>
      <point x="101" y="-103"/>
      <point x="161" y="-103" type="curve" smooth="yes"/>
    </contour>
  </outline>
</glyph>
<glyph name="bar" format="1">
  <advance width="114"/>
  <unicode hex="007C"/>
  <outline>
    <contour>
      <point x="68" y="-80" type="line"/>
      <point x="68" y="760" type="line"/>
      <point x="46" y="760" type="line"/>
      <point x="46" y="-80" type="line"/>
    </contour>
  </outline>
</glyph>
<glyph name="asciitilde" format="1">
  <advance width="469"/>
  <unicode hex="007E"/>
  <outline>
    <contour>
      <point x="369" y="253"/>
      <point x="393" y="279"/>
      <point x="415" y="313" type="curve"/>
      <point x="400" y="324" type="line"/>
      <point x="379" y="297"/>
      <point x="362" y="275"/>
      <point x="328" y="275" type="curve" smooth="yes"/>
      <point x="284" y="275"/>
      <point x="257" y="293"/>
      <point x="231" y="309" type="curve" smooth="yes"/>
      <point x="208" y="323"/>
      <point x="184" y="336"/>
      <point x="148" y="336" type="curve" smooth="yes"/>
      <point x="101" y="336"/>
      <point x="68" y="311"/>
      <point x="50" y="272" type="curve"/>
      <point x="66" y="262" type="line"/>
      <point x="83" y="294"/>
      <point x="106" y="314"/>
      <point x="148" y="314" type="curve" smooth="yes"/>
      <point x="177" y="314"/>
      <point x="199" y="303"/>
      <point x="219" y="291" type="curve" smooth="yes"/>
      <point x="250" y="273"/>
      <point x="279" y="253"/>
      <point x="326" y="253" type="curve" smooth="yes"/>
    </contour>
  </outline>
</glyph>
<glyph name="cent" format="1">
  <advance width="388"/>
  <unicode hex="00A2"/>
  <outline>
    <contour>
      <point x="208" y="590" type="line"/>
      <point x="208" y="680" type="line"/>
      <point x="186" y="680" type="line"/>
      <point x="186" y="590" type="line"/>
    </contour>
    <contour>
      <point x="208" y="0" type="line"/>
      <point x="208" y="90" type="line"/>
      <point x="186" y="90" type="line"/>
      <point x="186" y="0" type="line"/>
    </contour>
    <component base="c" yOffset="90"/>
  </outline>
</glyph>
<glyph name="sterling" format="1">
  <advance width="493"/>
  <unicode hex="00A3"/>
  <outline>
    <contour>
      <point x="451" y="0" type="line"/>
      <point x="451" y="20" type="line"/>
      <point x="143" y="20" type="line"/>
      <point x="169" y="48"/>
      <point x="186" y="102"/>
      <point x="186" y="165" type="curve" smooth="yes"/>
      <point x="186" y="527" type="line" smooth="yes"/>
      <point x="186" y="626"/>
      <point x="230" y="684"/>
      <point x="303" y="688" type="curve" smooth="yes"/>
      <point x="366" y="691"/>
      <point x="405" y="656"/>
      <point x="422" y="578" type="curve"/>
      <point x="442" y="584" type="line"/>
      <point x="422" y="670"/>
      <point x="376" y="712"/>
      <point x="303" y="708" type="curve" smooth="yes"/>
      <point x="218" y="703"/>
      <point x="166" y="636"/>
      <point x="166" y="527" type="curve" smooth="yes"/>
      <point x="166" y="162" type="line" smooth="yes"/>
      <point x="166" y="93"/>
      <point x="143" y="35"/>
      <point x="114" y="20" type="curve"/>
      <point x="114" y="0" type="line"/>
    </contour>
    <contour>
      <point x="351" y="323" type="line"/>
      <point x="351" y="343" type="line"/>
      <point x="91" y="343" type="line"/>
      <point x="91" y="323" type="line"/>
    </contour>
  </outline>
</glyph>
<glyph name="currency" format="1">
  <advance width="518"/>
  <unicode hex="00A4"/>
  <outline>
    <contour>
      <point x="367" y="104"/>
      <point x="458" y="194"/>
      <point x="459" y="306" type="curve"/>
      <point x="458" y="418"/>
      <point x="366" y="508"/>
      <point x="255" y="508" type="curve" smooth="yes"/>
      <point x="144" y="508"/>
      <point x="51" y="418"/>
      <point x="51" y="306" type="curve" smooth="yes"/>
      <point x="51" y="195"/>
      <point x="143" y="104"/>
      <point x="255" y="104" type="curve" smooth="yes"/>
    </contour>
    <contour>
      <point x="131" y="160" type="line"/>
      <point x="115" y="174" type="line"/>
      <point x="29" y="88" type="line"/>
      <point x="45" y="74" type="line"/>
    </contour>
    <contour>
      <point x="126" y="449" type="line"/>
      <point x="37" y="538" type="line"/>
      <point x="21" y="524" type="line"/>
      <point x="111" y="434" type="line"/>
    </contour>
    <contour>
      <point x="155" y="124"/>
      <point x="73" y="206"/>
      <point x="73" y="306" type="curve" smooth="yes"/>
      <point x="73" y="407"/>
      <point x="155" y="488"/>
      <point x="255" y="488" type="curve" smooth="yes"/>
      <point x="354" y="488"/>
      <point x="436" y="406"/>
      <point x="436" y="306" type="curve" smooth="yes"/>
      <point x="436" y="205"/>
      <point x="355" y="124"/>
      <point x="255" y="124" type="curve" smooth="yes"/>
    </contour>
    <contour>
      <point x="489" y="88" type="line"/>
      <point x="400" y="177" type="line"/>
      <point x="384" y="162" type="line"/>
      <point x="473" y="74" type="line"/>
    </contour>
    <contour>
      <point x="497" y="524" type="line"/>
      <point x="481" y="538" type="line"/>
      <point x="387" y="444" type="line"/>
      <point x="402" y="430" type="line"/>
    </contour>
  </outline>
</glyph>
<glyph name="yen" format="1">
  <advance width="518"/>
  <unicode hex="00A5"/>
  <outline>
    <contour>
      <point x="427" y="324" type="line"/>
      <point x="427" y="344" type="line"/>
      <point x="91" y="344" type="line"/>
      <point x="91" y="324" type="line"/>
    </contour>
    <contour>
      <point x="427" y="210" type="line"/>
      <point x="427" y="230" type="line"/>
      <point x="91" y="230" type="line"/>
      <point x="91" y="210" type="line"/>
    </contour>
    <component base="Y" xOffset="60"/>
  </outline>
</glyph>
<glyph name="section" format="1">
  <advance width="368"/>
  <unicode hex="00A7"/>
  <outline>
    <contour>
      <point x="260" y="-208"/>
      <point x="307" y="-143"/>
      <point x="307" y="-61" type="curve" smooth="yes"/>
      <point x="307" y="18"/>
      <point x="264" y="70"/>
      <point x="217" y="87" type="curve"/>
      <point x="249" y="92"/>
      <point x="275" y="110"/>
      <point x="294" y="150" type="curve" smooth="yes"/>
      <point x="307" y="177"/>
      <point x="314" y="211"/>
      <point x="314" y="248" type="curve" smooth="yes"/>
      <point x="314" y="296"/>
      <point x="302" y="327"/>
      <point x="288" y="350" type="curve" smooth="yes"/>
      <point x="263" y="391"/>
      <point x="228" y="403"/>
      <point x="202" y="413" type="curve" smooth="yes"/>
      <point x="134" y="439"/>
      <point x="91" y="476"/>
      <point x="91" y="556" type="curve" smooth="yes"/>
      <point x="91" y="632"/>
      <point x="129" y="687"/>
      <point x="187" y="687" type="curve" smooth="yes"/>
      <point x="243" y="687"/>
      <point x="281" y="634"/>
      <point x="281" y="556" type="curve" smooth="yes"/>
      <point x="281" y="535" type="line"/>
      <point x="304" y="535" type="line"/>
      <point x="304" y="556" type="line"/>
      <point x="303" y="645"/>
      <point x="257" y="708"/>
      <point x="187" y="708" type="curve" smooth="yes"/>
      <point x="116" y="708"/>
      <point x="69" y="645"/>
      <point x="69" y="560" type="curve" smooth="yes"/>
      <point x="69" y="482"/>
      <point x="109" y="423"/>
      <point x="160" y="405" type="curve"/>
      <point x="125" y="398"/>
      <point x="101" y="373"/>
      <point x="85" y="340" type="curve" smooth="yes"/>
      <point x="70" y="309"/>
      <point x="63" y="275"/>
      <point x="63" y="250" type="curve" smooth="yes"/>
      <point x="63" y="240"/>
      <point x="64" y="193"/>
      <point x="80" y="156" type="curve" smooth="yes"/>
      <point x="101" y="106"/>
      <point x="138" y="91"/>
      <point x="175" y="78" type="curve" smooth="yes"/>
      <point x="213" y="65"/>
      <point x="285" y="37"/>
      <point x="285" y="-60" type="curve" smooth="yes"/>
      <point x="285" y="-131"/>
      <point x="246" y="-187"/>
      <point x="188" y="-187" type="curve" smooth="yes"/>
      <point x="132" y="-187"/>
      <point x="94" y="-134"/>
      <point x="93" y="-56" type="curve"/>
      <point x="93" y="-35" type="line"/>
      <point x="71" y="-35" type="line"/>
      <point x="71" y="-56" type="line" smooth="yes"/>
      <point x="71" y="-147"/>
      <point x="118" y="-208"/>
      <point x="188" y="-208" type="curve" smooth="yes"/>
    </contour>
    <contour>
      <point x="142" y="106"/>
      <point x="116" y="130"/>
      <point x="101" y="166" type="curve" smooth="yes"/>
      <point x="90" y="193"/>
      <point x="85" y="227"/>
      <point x="85" y="247" type="curve" smooth="yes"/>
      <point x="85" y="268"/>
      <point x="91" y="300"/>
      <point x="101" y="323" type="curve" smooth="yes"/>
      <point x="117" y="361"/>
      <point x="145" y="386"/>
      <point x="185" y="386" type="curve" smooth="yes"/>
      <point x="219" y="386"/>
      <point x="249" y="367"/>
      <point x="267" y="341" type="curve" smooth="yes"/>
      <point x="282" y="319"/>
      <point x="293" y="287"/>
      <point x="293" y="250" type="curve" smooth="yes"/>
      <point x="293" y="220"/>
      <point x="286" y="189"/>
      <point x="276" y="166" type="curve" smooth="yes"/>
      <point x="258" y="125"/>
      <point x="229" y="106"/>
      <point x="188" y="106" type="curve" smooth="yes"/>
    </contour>
  </outline>
</glyph>
<glyph name="copyright" format="1">
  <advance width="797"/>
  <unicode hex="00A9"/>
  <outline>
    <contour>
      <point x="604" y="-8"/>
      <point x="761" y="151"/>
      <point x="761" y="347" type="curve" smooth="yes"/>
      <point x="761" y="549"/>
      <point x="604" y="708"/>
      <point x="398" y="708" type="curve" smooth="yes"/>
      <point x="193" y="708"/>
      <point x="36" y="549"/>
      <point x="36" y="347" type="curve" smooth="yes"/>
      <point x="36" y="151"/>
      <point x="193" y="-8"/>
      <point x="398" y="-8" type="curve" smooth="yes"/>
    </contour>
    <contour>
      <point x="205" y="13"/>
      <point x="58" y="163"/>
      <point x="58" y="347" type="curve" smooth="yes"/>
      <point x="58" y="537"/>
      <point x="205" y="687"/>
      <point x="398" y="687" type="curve" smooth="yes"/>
      <point x="591" y="687"/>
      <point x="738" y="537"/>
      <point x="738" y="347" type="curve" smooth="yes"/>
      <point x="738" y="163"/>
      <point x="591" y="13"/>
      <point x="398" y="13" type="curve" smooth="yes"/>
    </contour>
    <contour>
      <point x="445" y="179"/>
      <point x="476" y="207"/>
      <point x="476" y="249" type="curve" smooth="yes"/>
      <point x="476" y="268" type="line"/>
      <point x="454" y="268" type="line"/>
      <point x="454" y="248" type="line" smooth="yes"/>
      <point x="454" y="219"/>
      <point x="432" y="200"/>
      <point x="398" y="200" type="curve" smooth="yes"/>
      <point x="365" y="200"/>
      <point x="343" y="219"/>
      <point x="343" y="248" type="curve" smooth="yes"/>
      <point x="343" y="439" type="line" smooth="yes"/>
      <point x="343" y="467"/>
      <point x="365" y="486"/>
      <point x="398" y="486" type="curve" smooth="yes"/>
      <point x="432" y="486"/>
      <point x="454" y="467"/>
      <point x="454" y="439" type="curve" smooth="yes"/>
      <point x="454" y="419" type="line"/>
      <point x="476" y="419" type="line"/>
      <point x="476" y="437" type="line" smooth="yes"/>
      <point x="476" y="479"/>
      <point x="445" y="507"/>
      <point x="398" y="507" type="curve" smooth="yes"/>
      <point x="352" y="507"/>
      <point x="322" y="479"/>
      <point x="322" y="437" type="curve" smooth="yes"/>
      <point x="322" y="249" type="line" smooth="yes"/>
      <point x="322" y="207"/>
      <point x="352" y="179"/>
      <point x="398" y="179" type="curve" smooth="yes"/>
    </contour>
  </outline>
</glyph>
<glyph name="ordfeminine" format="1">
  <advance width="264"/>
  <unicode hex="00AA"/>
  <outline>
    <contour>
      <point x="217" y="472" type="line"/>
      <point x="217" y="699" type="line" smooth="yes"/>
      <point x="217" y="765"/>
      <point x="185" y="808"/>
      <point x="126" y="808" type="curve" smooth="yes"/>
      <point x="78" y="808"/>
      <point x="37" y="776"/>
      <point x="35" y="727" type="curve"/>
      <point x="58" y="724" type="line"/>
      <point x="58" y="762"/>
      <point x="90" y="788"/>
      <point x="125" y="788" type="curve" smooth="yes"/>
      <point x="170" y="788"/>
      <point x="194" y="752"/>
      <point x="194" y="699" type="curve" smooth="yes"/>
      <point x="194" y="472" type="line"/>
    </contour>
    <contour>
      <point x="162" y="467"/>
      <point x="206" y="497"/>
      <point x="206" y="569" type="curve"/>
      <point x="206" y="660" type="line"/>
      <point x="133" y="660" type="line" smooth="yes"/>
      <point x="73" y="660"/>
      <point x="28" y="631"/>
      <point x="28" y="557" type="curve" smooth="yes"/>
      <point x="28" y="484"/>
      <point x="74" y="467"/>
      <point x="112" y="467" type="curve" smooth="yes"/>
    </contour>
    <contour>
      <point x="78" y="487"/>
      <point x="51" y="507"/>
      <point x="51" y="558" type="curve" smooth="yes"/>
      <point x="51" y="613"/>
      <point x="85" y="640"/>
      <point x="134" y="640" type="curve" smooth="yes"/>
      <point x="194" y="640" type="line"/>
      <point x="194" y="568" type="line" smooth="yes"/>
      <point x="194" y="512"/>
      <point x="153" y="487"/>
      <point x="114" y="487" type="curve" smooth="yes"/>
    </contour>
    <component base="minus" xOffset="5" yOffset="102" xScale="0.56"/>
  </outline>
</glyph>
<glyph name="logicalnot" format="1">
  <advance width="444"/>
  <unicode hex="00AC"/>
  <outline>
    <contour>
      <point x="382" y="146" type="line"/>
      <point x="404" y="146" type="line"/>
      <point x="404" y="272" type="line"/>
      <point x="382" y="272" type="line"/>
    </contour>
    <component base="minus"/>
  </outline>
</glyph>
<glyph name="registered" format="1">
  <advance width="865"/>
  <unicode hex="00AE"/>
  <outline>
    <contour>
      <point x="638" y="-8"/>
      <point x="795" y="151"/>
      <point x="795" y="347" type="curve" smooth="yes"/>
      <point x="795" y="549"/>
      <point x="638" y="708"/>
      <point x="432" y="708" type="curve" smooth="yes"/>
      <point x="227" y="708"/>
      <point x="70" y="549"/>
      <point x="70" y="347" type="curve" smooth="yes"/>
      <point x="70" y="151"/>
      <point x="227" y="-8"/>
      <point x="432" y="-8" type="curve" smooth="yes"/>
    </contour>
    <contour>
      <point x="239" y="13"/>
      <point x="92" y="163"/>
      <point x="92" y="347" type="curve" smooth="yes"/>
      <point x="92" y="537"/>
      <point x="239" y="687"/>
      <point x="432" y="687" type="curve" smooth="yes"/>
      <point x="625" y="687"/>
      <point x="772" y="537"/>
      <point x="772" y="347" type="curve" smooth="yes"/>
      <point x="772" y="163"/>
      <point x="625" y="13"/>
      <point x="432" y="13" type="curve" smooth="yes"/>
    </contour>
    <contour>
      <point x="523" y="183" type="line"/>
      <point x="464" y="352" type="line"/>
      <point x="445" y="344" type="line"/>
      <point x="499" y="183" type="line"/>
    </contour>
    <contour>
      <point x="388" y="183" type="line"/>
      <point x="388" y="490" type="line"/>
      <point x="443" y="490" type="line" smooth="yes"/>
      <point x="475" y="490"/>
      <point x="497" y="460"/>
      <point x="497" y="417" type="curve" smooth="yes"/>
      <point x="497" y="378"/>
      <point x="475" y="352"/>
      <point x="443" y="352" type="curve" smooth="yes"/>
      <point x="375" y="352" type="line"/>
      <point x="375" y="333" type="line"/>
      <point x="443" y="333" type="line" smooth="yes"/>
      <point x="488" y="333"/>
      <point x="518" y="367"/>
      <point x="518" y="417" type="curve" smooth="yes"/>
      <point x="518" y="473"/>
      <point x="488" y="511"/>
      <point x="443" y="511" type="curve" smooth="yes"/>
      <point x="366" y="511" type="line"/>
      <point x="366" y="183" type="line"/>
    </contour>
  </outline>
</glyph>
<glyph name="macron" format="1">
  <advance width="600"/>
  <unicode hex="00AF"/>
  <outline>
    <contour>
      <point x="203" y="601" type="line"/>
      <point x="394" y="601" type="line"/>
      <point x="394" y="622" type="line"/>
      <point x="203" y="622" type="line"/>
    </contour>
    <contour>
      <point x="298" y="500" type="move" name="_top"/>
    </contour>
  </outline>
</glyph>
<glyph name="degree" format="1">
  <advance width="358"/>
  <unicode hex="00B0"/>
  <outline>
    <contour>
      <point x="179" y="502" type="curve" smooth="yes"/>
      <point x="263" y="502"/>
      <point x="330" y="569"/>
      <point x="330" y="655" type="curve" smooth="yes"/>
      <point x="330" y="741"/>
      <point x="263" y="808"/>
      <point x="179" y="808" type="curve" smooth="yes"/>
      <point x="95" y="808"/>
      <point x="28" y="741"/>
      <point x="28" y="655" type="curve" smooth="yes"/>
      <point x="28" y="569"/>
      <point x="95" y="502"/>
    </contour>
    <contour>
      <point x="179" y="523" type="curve" smooth="yes"/>
      <point x="107" y="523"/>
      <point x="50" y="581"/>
      <point x="50" y="655" type="curve" smooth="yes"/>
      <point x="50" y="729"/>
      <point x="107" y="787"/>
      <point x="179" y="787" type="curve" smooth="yes"/>
      <point x="251" y="787"/>
      <point x="308" y="729"/>
      <point x="308" y="655" type="curve" smooth="yes"/>
      <point x="308" y="581"/>
      <point x="251" y="523"/>
    </contour>
  </outline>
</glyph>
<glyph name="micro" format="1">
  <advance width="415"/>
  <unicode hex="00B5"/>
  <outline>
    <contour>
      <point x="77" y="-200" type="line"/>
      <point x="99" y="-200" type="line"/>
      <point x="99" y="500" type="line"/>
      <point x="77" y="500" type="line"/>
    </contour>
    <component base="u" xOffset="7"/>
  </outline>
</glyph>
<glyph name="paragraph" format="1">
  <advance width="439"/>
  <unicode hex="00B6"/>
  <outline>
    <contour>
      <point x="220" y="-200" type="line"/>
      <point x="220" y="679" type="line"/>
      <point x="328" y="679" type="line"/>
      <point x="328" y="-200" type="line"/>
      <point x="348" y="-200" type="line"/>
      <point x="348" y="700" type="line"/>
      <point x="198" y="700" type="line" smooth="yes"/>
      <point x="103" y="700"/>
      <point x="42" y="599"/>
      <point x="42" y="475" type="curve" smooth="yes"/>
      <point x="42" y="351"/>
      <point x="103" y="250"/>
      <point x="198" y="250" type="curve"/>
      <point x="198" y="280" type="line"/>
      <point x="198" y="-200" type="line"/>
    </contour>
  </outline>
</glyph>
<glyph name="cedilla" format="1">
  <advance width="165"/>
  <unicode hex="00B8"/>
  <outline>
    <contour>
      <point x="126" y="-177"/>
      <point x="161" y="-151"/>
      <point x="165" y="-105" type="curve" smooth="yes"/>
      <point x="169" y="-63"/>
      <point x="142" y="-29"/>
      <point x="100" y="-29" type="curve" smooth="yes"/>
      <point x="81" y="-29"/>
      <point x="60" y="-36"/>
      <point x="48" y="-44" type="curve"/>
      <point x="67" y="2" type="line"/>
      <point x="50" y="12" type="line"/>
      <point x="20" y="-57" type="line"/>
      <point x="36" y="-73" type="line"/>
      <point x="51" y="-59"/>
      <point x="74" y="-50"/>
      <point x="94" y="-50" type="curve" smooth="yes"/>
      <point x="128" y="-50"/>
      <point x="146" y="-76"/>
      <point x="143" y="-105" type="curve" smooth="yes"/>
      <point x="140" y="-139"/>
      <point x="114" y="-156"/>
      <point x="83" y="-156" type="curve" smooth="yes"/>
      <point x="54" y="-156"/>
      <point x="30" y="-142"/>
      <point x="18" y="-122" type="curve"/>
      <point x="0" y="-130" type="line"/>
      <point x="16" y="-158"/>
      <point x="48" y="-177"/>
      <point x="84" y="-177" type="curve" smooth="yes"/>
    </contour>
    <contour>
      <point x="67" y="-2" type="move" name="_bottom"/>
    </contour>
  </outline>
</glyph>
<glyph name="ordmasculine" format="1">
  <advance width="270"/>
  <unicode hex="00BA"/>
  <outline>
    <contour>
      <point x="189" y="460"/>
      <point x="226" y="500"/>
      <point x="226" y="556" type="curve" smooth="yes"/>
      <point x="226" y="580"/>
      <point x="226" y="606"/>
      <point x="226" y="630" type="curve" smooth="yes"/>
      <point x="226" y="655"/>
      <point x="226" y="681"/>
      <point x="226" y="705" type="curve" smooth="yes"/>
      <point x="226" y="761"/>
      <point x="189" y="801"/>
      <point x="133" y="801" type="curve" smooth="yes"/>
      <point x="78" y="801"/>
      <point x="41" y="761"/>
      <point x="41" y="705" type="curve" smooth="yes"/>
      <point x="41" y="681"/>
      <point x="41" y="655"/>
      <point x="41" y="630" type="curve" smooth="yes"/>
      <point x="41" y="606"/>
      <point x="41" y="580"/>
      <point x="41" y="556" type="curve" smooth="yes"/>
      <point x="41" y="500"/>
      <point x="78" y="460"/>
      <point x="133" y="460" type="curve" smooth="yes"/>
    </contour>
    <contour>
      <point x="92" y="480"/>
      <point x="63" y="511"/>
      <point x="63" y="556" type="curve" smooth="yes"/>
      <point x="63" y="581"/>
      <point x="63" y="606"/>
      <point x="63" y="630" type="curve" smooth="yes"/>
      <point x="63" y="655"/>
      <point x="63" y="680"/>
      <point x="63" y="704" type="curve" smooth="yes"/>
      <point x="63" y="749"/>
      <point x="92" y="781"/>
      <point x="133" y="781" type="curve" smooth="yes"/>
      <point x="175" y="781"/>
      <point x="204" y="749"/>
      <point x="204" y="704" type="curve" smooth="yes"/>
      <point x="204" y="680"/>
      <point x="204" y="655"/>
      <point x="204" y="630" type="curve" smooth="yes"/>
      <point x="204" y="606"/>
      <point x="204" y="581"/>
      <point x="204" y="556" type="curve" smooth="yes"/>
      <point x="204" y="511"/>
      <point x="175" y="480"/>
      <point x="133" y="480" type="curve" smooth="yes"/>
    </contour>
    <component base="minus" xOffset="11" yOffset="102" xScale="0.56"/>
  </outline>
</glyph>
<glyph name="AE" format="1">
  <advance width="671"/>
  <unicode hex="00C6"/>
  <outline>
    <contour>
      <point x="43" y="0" type="line"/>
      <point x="339" y="660" type="line"/>
      <point x="338" y="0" type="line"/>
      <point x="621" y="0" type="line"/>
      <point x="621" y="21" type="line"/>
      <point x="361" y="21" type="line"/>
      <point x="361" y="679" type="line"/>
      <point x="621" y="679" type="line"/>
      <point x="621" y="700" type="line"/>
      <point x="337" y="700" type="line"/>
      <point x="21" y="0" type="line"/>
    </contour>
    <contour>
      <point x="350" y="155" type="line"/>
      <point x="355" y="176" type="line"/>
      <point x="109" y="176" type="line"/>
      <point x="104" y="155" type="line"/>
    </contour>
    <contour>
      <point x="538" y="340" type="line"/>
      <point x="538" y="361" type="line"/>
      <point x="350" y="361" type="line"/>
      <point x="350" y="340" type="line"/>
    </contour>
  </outline>
</glyph>
<glyph name="Eth" format="1">
  <advance width="520"/>
  <unicode hex="00D0"/>
  <outline>
    <contour>
      <point x="91" y="355" type="line"/>
      <point x="299" y="355" type="line"/>
      <point x="299" y="376" type="line"/>
      <point x="91" y="376" type="line"/>
    </contour>
    <component base="D" xOffset="62"/>
  </outline>
</glyph>
<glyph name="multiply" format="1">
  <advance width="433"/>
  <unicode hex="00D7"/>
  <outline>
    <contour>
      <point x="379" y="515" type="line"/>
      <point x="217" y="342" type="line"/>
      <point x="54" y="515" type="line"/>
      <point x="38" y="501" type="line"/>
      <point x="202" y="327" type="line"/>
      <point x="38" y="153" type="line"/>
      <point x="54" y="139" type="line"/>
      <point x="217" y="312" type="line"/>
      <point x="379" y="139" type="line"/>
      <point x="395" y="153" type="line"/>
      <point x="231" y="327" type="line"/>
      <point x="395" y="501" type="line"/>
    </contour>
  </outline>
</glyph>
<glyph name="Thorn" format="1">
  <advance width="426"/>
  <unicode hex="00DE"/>
  <outline>
    <contour>
      <point x="91" y="0" type="line"/>
      <point x="113" y="0" type="line"/>
      <point x="113" y="700" type="line"/>
      <point x="91" y="700" type="line"/>
    </contour>
    <contour>
      <point x="113" y="171" type="line"/>
      <point x="239" y="171" type="line" smooth="yes"/>
      <point x="326" y="171"/>
      <point x="384" y="243"/>
      <point x="384" y="351" type="curve" smooth="yes"/>
      <point x="384" y="460"/>
      <point x="326" y="533"/>
      <point x="239" y="533" type="curve" smooth="yes"/>
      <point x="113" y="533" type="line"/>
      <point x="113" y="512" type="line"/>
      <point x="239" y="512" type="line" smooth="yes"/>
      <point x="313" y="512"/>
      <point x="362" y="448"/>
      <point x="362" y="351" type="curve" smooth="yes"/>
      <point x="362" y="256"/>
      <point x="313" y="192"/>
      <point x="239" y="192" type="curve" smooth="yes"/>
      <point x="113" y="192" type="line"/>
    </contour>
  </outline>
</glyph>
<glyph name="germandbls" format="1">
  <advance width="409"/>
  <unicode hex="00DF"/>
  <outline>
    <contour>
      <point x="99" y="0" type="line"/>
      <point x="99" y="528" type="line" smooth="yes"/>
      <point x="99" y="631"/>
      <point x="139" y="688"/>
      <point x="205" y="688" type="curve" smooth="yes"/>
      <point x="275" y="688"/>
      <point x="318" y="629"/>
      <point x="320" y="528" type="curve" smooth="yes"/>
      <point x="322" y="431"/>
      <point x="285" y="377"/>
      <point x="219" y="377" type="curve"/>
      <point x="161" y="377" type="line"/>
      <point x="161" y="356" type="line"/>
      <point x="218" y="356" type="line"/>
      <point x="286" y="353"/>
      <point x="324" y="293"/>
      <point x="324" y="187" type="curve" smooth="yes"/>
      <point x="324" y="82"/>
      <point x="280" y="22"/>
      <point x="199" y="21" type="curve" smooth="yes"/>
      <point x="143" y="20" type="line"/>
      <point x="143" y="0" type="line"/>
      <point x="198" y="0" type="line" smooth="yes"/>
      <point x="292" y="0"/>
      <point x="346" y="72"/>
      <point x="346" y="187" type="curve" smooth="yes"/>
      <point x="346" y="278"/>
      <point x="315" y="343"/>
      <point x="266" y="365" type="curve"/>
      <point x="314" y="384"/>
      <point x="344" y="443"/>
      <point x="342" y="528" type="curve" smooth="yes"/>
      <point x="339" y="640"/>
      <point x="288" y="709"/>
      <point x="205" y="709" type="curve" smooth="yes"/>
      <point x="125" y="709"/>
      <point x="77" y="641"/>
      <point x="77" y="528" type="curve" smooth="yes"/>
      <point x="77" y="0" type="line"/>
    </contour>
  </outline>
</glyph>
<glyph name="ae" format="1">
  <advance width="619"/>
  <unicode hex="00E6"/>
  <outline>
    <contour>
      <point x="224" y="-8"/>
      <point x="281" y="21"/>
      <point x="301" y="87" type="curve"/>
      <point x="317" y="30"/>
      <point x="365" y="-8"/>
      <point x="428" y="-8" type="curve" smooth="yes"/>
      <point x="499" y="-8"/>
      <point x="551" y="40"/>
      <point x="561" y="109" type="curve"/>
      <point x="539" y="108" type="line"/>
      <point x="529" y="51"/>
      <point x="486" y="13"/>
      <point x="428" y="13" type="curve" smooth="yes"/>
      <point x="362" y="13"/>
      <point x="316" y="63"/>
      <point x="316" y="135" type="curve" smooth="yes"/>
      <point x="316" y="175"/>
      <point x="316" y="214"/>
      <point x="316" y="254" type="curve"/>
      <point x="563" y="254" type="line"/>
      <point x="563" y="291"/>
      <point x="563" y="328"/>
      <point x="563" y="365" type="curve" smooth="yes"/>
      <point x="563" y="448"/>
      <point x="508" y="508"/>
      <point x="428" y="508" type="curve" smooth="yes"/>
      <point x="369" y="508"/>
      <point x="323" y="474"/>
      <point x="304" y="422" type="curve"/>
      <point x="285" y="476"/>
      <point x="245" y="508"/>
      <point x="185" y="508" type="curve" smooth="yes"/>
      <point x="116" y="508"/>
      <point x="55" y="461"/>
      <point x="52" y="388" type="curve"/>
      <point x="75" y="385" type="line"/>
      <point x="75" y="446"/>
      <point x="127" y="487"/>
      <point x="184" y="487" type="curve" smooth="yes"/>
      <point x="256" y="487"/>
      <point x="293" y="430"/>
      <point x="293" y="345" type="curve" smooth="yes"/>
      <point x="293" y="274" type="line"/>
      <point x="196" y="274" type="line" smooth="yes"/>
      <point x="107" y="274"/>
      <point x="42" y="236"/>
      <point x="42" y="126" type="curve" smooth="yes"/>
      <point x="42" y="18"/>
      <point x="106" y="-8"/>
      <point x="163" y="-8" type="curve" smooth="yes"/>
    </contour>
    <contour>
      <point x="109" y="13"/>
      <point x="64" y="45"/>
      <point x="64" y="127" type="curve" smooth="yes"/>
      <point x="64" y="219"/>
      <point x="120" y="253"/>
      <point x="198" y="253" type="curve" smooth="yes"/>
      <point x="293" y="253" type="line"/>
      <point x="293" y="142" type="line" smooth="yes"/>
      <point x="293" y="52"/>
      <point x="229" y="13"/>
      <point x="166" y="13" type="curve" smooth="yes"/>
    </contour>
    <contour>
      <point x="316" y="304"/>
      <point x="316" y="334"/>
      <point x="316" y="365" type="curve" smooth="yes"/>
      <point x="316" y="437"/>
      <point x="362" y="487"/>
      <point x="428" y="487" type="curve" smooth="yes"/>
      <point x="495" y="487"/>
      <point x="541" y="437"/>
      <point x="541" y="365" type="curve" smooth="yes"/>
      <point x="541" y="334"/>
      <point x="541" y="304"/>
      <point x="541" y="273" type="curve"/>
      <point x="316" y="273" type="line"/>
    </contour>
  </outline>
</glyph>
<glyph name="eth" format="1">
  <advance width="420"/>
  <unicode hex="00F0"/>
  <outline>
    <contour>
      <point x="277" y="-8"/>
      <point x="332" y="52"/>
      <point x="332" y="135" type="curve" smooth="yes"/>
      <point x="332" y="173"/>
      <point x="332" y="212"/>
      <point x="332" y="250" type="curve" smooth="yes"/>
      <point x="332" y="298"/>
      <point x="333" y="327"/>
      <point x="332" y="365" type="curve" smooth="yes"/>
      <point x="326" y="580"/>
      <point x="236" y="660"/>
      <point x="190" y="700" type="curve"/>
      <point x="165" y="700" type="line"/>
      <point x="223" y="654"/>
      <point x="300" y="561"/>
      <point x="305" y="443" type="curve"/>
      <point x="308" y="452" type="line"/>
      <point x="284" y="487"/>
      <point x="244" y="508"/>
      <point x="197" y="508" type="curve" smooth="yes"/>
      <point x="118" y="508"/>
      <point x="63" y="448"/>
      <point x="63" y="365" type="curve" smooth="yes"/>
      <point x="63" y="327"/>
      <point x="63" y="298"/>
      <point x="63" y="250" type="curve" smooth="yes"/>
      <point x="63" y="212"/>
      <point x="63" y="173"/>
      <point x="63" y="135" type="curve" smooth="yes"/>
      <point x="63" y="52"/>
      <point x="118" y="-8"/>
      <point x="197" y="-8" type="curve" smooth="yes"/>
    </contour>
    <contour>
      <point x="131" y="13"/>
      <point x="85" y="63"/>
      <point x="85" y="135" type="curve" smooth="yes"/>
      <point x="85" y="173"/>
      <point x="85" y="212"/>
      <point x="85" y="250" type="curve" smooth="yes"/>
      <point x="85" y="298"/>
      <point x="85" y="327"/>
      <point x="85" y="365" type="curve" smooth="yes"/>
      <point x="85" y="437"/>
      <point x="131" y="487"/>
      <point x="197" y="487" type="curve"/>
      <point x="264" y="487"/>
      <point x="310" y="437"/>
      <point x="310" y="365" type="curve" smooth="yes"/>
      <point x="310" y="327"/>
      <point x="310" y="298"/>
      <point x="310" y="250" type="curve" smooth="yes"/>
      <point x="310" y="212"/>
      <point x="310" y="173"/>
      <point x="310" y="135" type="curve" smooth="yes"/>
      <point x="310" y="63"/>
      <point x="264" y="13"/>
      <point x="197" y="13" type="curve" smooth="yes"/>
    </contour>
    <contour>
      <point x="357" y="638" type="line"/>
      <point x="351" y="657" type="line"/>
      <point x="164" y="593" type="line"/>
      <point x="170" y="574" type="line"/>
    </contour>
  </outline>
</glyph>
<glyph name="divide" format="1">
  <advance width="432"/>
  <unicode hex="00F7"/>
  <outline>
    <contour>
      <point x="394" y="312" type="line"/>
      <point x="394" y="333" type="line"/>
      <point x="38" y="333" type="line"/>
      <point x="38" y="312" type="line"/>
    </contour>
    <contour>
      <point x="238" y="111"/>
      <point x="258" y="129"/>
      <point x="258" y="152" type="curve" smooth="yes"/>
      <point x="258" y="174"/>
      <point x="238" y="192"/>
      <point x="216" y="192" type="curve" smooth="yes"/>
      <point x="194" y="192"/>
      <point x="175" y="174"/>
      <point x="175" y="152" type="curve" smooth="yes"/>
      <point x="175" y="129"/>
      <point x="193" y="111"/>
      <point x="216" y="111" type="curve" smooth="yes"/>
    </contour>
    <contour>
      <point x="238" y="453"/>
      <point x="258" y="471"/>
      <point x="258" y="494" type="curve" smooth="yes"/>
      <point x="258" y="516"/>
      <point x="238" y="534"/>
      <point x="216" y="534" type="curve" smooth="yes"/>
      <point x="194" y="534"/>
      <point x="175" y="516"/>
      <point x="175" y="494" type="curve" smooth="yes"/>
      <point x="175" y="471"/>
      <point x="193" y="453"/>
      <point x="216" y="453" type="curve" smooth="yes"/>
    </contour>
  </outline>
</glyph>
<glyph name="oslash" format="1">
  <advance width="359"/>
  <unicode hex="00F8"/>
  <outline>
    <contour>
      <point x="58" y="-11" type="line"/>
      <point x="78" y="-20" type="line"/>
      <point x="307" y="517" type="line"/>
      <point x="287" y="526" type="line"/>
    </contour>
    <component base="o" xOffset="-11"/>
  </outline>
</glyph>
<glyph name="thorn" format="1">
  <advance width="407"/>
  <unicode hex="00FE"/>
  <outline>
    <contour>
      <point x="77" y="-200" type="line"/>
      <point x="99" y="-200" type="line"/>
      <point x="99" y="700" type="line"/>
      <point x="77" y="700" type="line"/>
    </contour>
    <component base="b.bowl" xOffset="84"/>
  </outline>
</glyph>
<glyph name="idotless" format="1">
  <advance width="134"/>
  <unicode hex="0131"/>
  <outline>
    <contour>
      <point x="78" y="0" type="line"/>
      <point x="78" y="500" type="line"/>
      <point x="56" y="500" type="line"/>
      <point x="56" y="0" type="line"/>
    </contour>
    <contour>
      <point x="67" y="509" type="move" name="top"/>
    </contour>
  </outline>
</glyph>
<glyph name="Eng" format="1">
  <advance width="479"/>
  <unicode hex="014A"/>
  <outline>
    <contour>
      <point x="387" y="-133"/>
      <point x="388" y="-81"/>
      <point x="388" y="4" type="curve" smooth="yes"/>
      <point x="388" y="578" type="line"/>
      <point x="366" y="578" type="line"/>
      <point x="366" y="4" type="line" smooth="yes"/>
      <point x="366" y="-68"/>
      <point x="372" y="-112"/>
      <point x="298" y="-112" type="curve"/>
      <point x="298" y="-133" type="line"/>
    </contour>
    <component base="N"/>
  </outline>
</glyph>
<glyph name="eng" format="1">
  <advance width="408"/>
  <unicode hex="014B"/>
  <outline>
    <contour>
      <point x="238" y="-151" type="line"/>
      <point x="309" y="-151"/>
      <point x="338" y="-99"/>
      <point x="338" y="-24" type="curve" smooth="yes"/>
      <point x="338" y="250" type="line"/>
      <point x="316" y="250" type="line"/>
      <point x="316" y="-24" type="line" smooth="yes"/>
      <point x="316" y="-86"/>
      <point x="294" y="-130"/>
      <point x="238" y="-130" type="curve"/>
    </contour>
    <component base="n"/>
  </outline>
</glyph>
<glyph name="oe" format="1">
  <advance width="635"/>
  <unicode hex="0153"/>
  <outline>
    <contour>
      <point x="277" y="-8"/>
      <point x="328" y="52"/>
      <point x="332" y="135" type="curve" smooth="yes"/>
      <point x="334" y="173"/>
      <point x="332" y="212"/>
      <point x="332" y="250" type="curve" smooth="yes"/>
      <point x="332" y="288"/>
      <point x="334" y="327"/>
      <point x="332" y="365" type="curve" smooth="yes"/>
      <point x="328" y="448"/>
      <point x="277" y="508"/>
      <point x="197" y="508" type="curve" smooth="yes"/>
      <point x="118" y="508"/>
      <point x="63" y="448"/>
      <point x="63" y="365" type="curve" smooth="yes"/>
      <point x="63" y="327"/>
      <point x="63" y="288"/>
      <point x="63" y="250" type="curve" smooth="yes"/>
      <point x="63" y="212"/>
      <point x="63" y="173"/>
      <point x="63" y="135" type="curve" smooth="yes"/>
      <point x="63" y="52"/>
      <point x="118" y="-8"/>
      <point x="197" y="-8" type="curve" smooth="yes"/>
    </contour>
    <contour>
      <point x="131" y="13"/>
      <point x="85" y="63"/>
      <point x="85" y="135" type="curve" smooth="yes"/>
      <point x="85" y="173"/>
      <point x="85" y="212"/>
      <point x="85" y="250" type="curve" smooth="yes"/>
      <point x="85" y="288"/>
      <point x="85" y="327"/>
      <point x="85" y="365" type="curve" smooth="yes"/>
      <point x="85" y="437"/>
      <point x="131" y="487"/>
      <point x="197" y="487" type="curve" smooth="yes"/>
      <point x="264" y="487"/>
      <point x="310" y="437"/>
      <point x="310" y="365" type="curve" smooth="yes"/>
      <point x="310" y="327"/>
      <point x="310" y="288"/>
      <point x="310" y="250" type="curve" smooth="yes"/>
      <point x="310" y="212"/>
      <point x="310" y="173"/>
      <point x="310" y="135" type="curve" smooth="yes"/>
      <point x="310" y="63"/>
      <point x="264" y="13"/>
      <point x="197" y="13" type="curve" smooth="yes"/>
    </contour>
    <contour>
      <point x="515" y="-8"/>
      <point x="567" y="40"/>
      <point x="577" y="109" type="curve"/>
      <point x="555" y="108" type="line"/>
      <point x="545" y="51"/>
      <point x="502" y="13"/>
      <point x="444" y="13" type="curve" smooth="yes"/>
      <point x="378" y="13"/>
      <point x="332" y="63"/>
      <point x="332" y="135" type="curve" smooth="yes"/>
      <point x="332" y="173"/>
      <point x="332" y="212"/>
      <point x="332" y="250" type="curve" smooth="yes"/>
      <point x="332" y="288"/>
      <point x="332" y="327"/>
      <point x="332" y="365" type="curve" smooth="yes"/>
      <point x="332" y="437"/>
      <point x="378" y="487"/>
      <point x="444" y="487" type="curve" smooth="yes"/>
      <point x="511" y="487"/>
      <point x="557" y="437"/>
      <point x="557" y="365" type="curve" smooth="yes"/>
      <point x="557" y="327"/>
      <point x="557" y="288"/>
      <point x="557" y="261" type="curve"/>
      <point x="566" y="267" type="line"/>
      <point x="324" y="267" type="line"/>
      <point x="324" y="249" type="line"/>
      <point x="579" y="249" type="line"/>
      <point x="579" y="289"/>
      <point x="579" y="327"/>
      <point x="579" y="365" type="curve" smooth="yes"/>
      <point x="579" y="448"/>
      <point x="524" y="508"/>
      <point x="444" y="508" type="curve" smooth="yes"/>
      <point x="365" y="508"/>
      <point x="314" y="448"/>
      <point x="310" y="365" type="curve" smooth="yes"/>
      <point x="308" y="327"/>
      <point x="310" y="288"/>
      <point x="310" y="250" type="curve" smooth="yes"/>
      <point x="310" y="212"/>
      <point x="308" y="173"/>
      <point x="310" y="135" type="curve" smooth="yes"/>
      <point x="314" y="52"/>
      <point x="365" y="-8"/>
      <point x="444" y="-8" type="curve" smooth="yes"/>
    </contour>
  </outline>
</glyph>
<glyph name="florin" format="1">
  <advance width="456"/>
  <unicode hex="0192"/>
  <outline>
    <contour>
      <point x="60" y="-210" type="line" smooth="yes"/>
      <point x="142" y="-210"/>
      <point x="174" y="-150"/>
      <point x="189" y="-50" type="curve" smooth="yes"/>
      <point x="285" y="550" type="line" smooth="yes"/>
      <point x="298" y="637"/>
      <point x="320" y="689"/>
      <point x="390" y="689" type="curve" smooth="yes"/>
      <point x="415" y="689" type="line"/>
      <point x="418" y="710" type="line"/>
      <point x="392" y="710" type="line" smooth="yes"/>
      <point x="310" y="710"/>
      <point x="278" y="650"/>
      <point x="263" y="550" type="curve" smooth="yes"/>
      <point x="167" y="-50" type="line" smooth="yes"/>
      <point x="154" y="-137"/>
      <point x="132" y="-189"/>
      <point x="62" y="-189" type="curve" smooth="yes"/>
      <point x="37" y="-189" type="line"/>
      <point x="34" y="-210" type="line"/>
    </contour>
    <contour>
      <point x="351" y="349" type="line"/>
      <point x="351" y="370" type="line"/>
      <point x="155" y="370" type="line"/>
      <point x="155" y="349" type="line"/>
    </contour>
  </outline>
</glyph>
<glyph name="caron" format="1">
  <advance width="182"/>
  <unicode hex="02C7"/>
  <outline>
    <contour>
      <point x="77" y="560" type="line"/>
      <point x="103" y="560" type="line"/>
      <point x="182" y="679" type="line"/>
      <point x="150" y="679" type="line"/>
      <point x="91" y="585" type="line"/>
      <point x="31" y="679" type="line"/>
      <point x="0" y="679" type="line"/>
    </contour>
    <contour>
      <point x="90" y="503" type="move" name="_top"/>
    </contour>
  </outline>
</glyph>
<glyph name="firsttonechinese" format="1">
  <advance width="600"/>
  <unicode hex="02C9"/>
  <outline>
    <contour>
      <point x="203" y="605" type="line"/>
      <point x="394" y="605" type="line"/>
      <point x="394" y="626" type="line"/>
      <point x="203" y="626" type="line"/>
    </contour>
    <contour>
      <point x="298" y="500" type="move" name="_top"/>
    </contour>
  </outline>
</glyph>
<glyph name="breve" format="1">
  <advance width="244"/>
  <unicode hex="02D8"/>
  <outline>
    <contour>
      <point x="175" y="544"/>
      <point x="216" y="587"/>
      <point x="216" y="641" type="curve"/>
      <point x="195" y="641" type="line"/>
      <point x="195" y="598"/>
      <point x="162" y="565"/>
      <point x="122" y="565" type="curve" smooth="yes"/>
      <point x="82" y="565"/>
      <point x="49" y="598"/>
      <point x="49" y="641" type="curve"/>
      <point x="28" y="641" type="line"/>
      <point x="28" y="587"/>
      <point x="70" y="544"/>
      <point x="122" y="544" type="curve" smooth="yes"/>
    </contour>
    <contour>
      <point x="122" y="500" type="move" name="_top"/>
    </contour>
  </outline>
</glyph>
<glyph name="ogonek" format="1">
  <advance width="580"/>
  <unicode hex="02DB"/>
  <outline>
    <contour>
      <point x="356" y="-158" type="line"/>
      <point x="324" y="-168"/>
      <point x="290" y="-162"/>
      <point x="284" y="-118" type="curve" smooth="yes"/>
      <point x="278" y="-73"/>
      <point x="305" y="-30"/>
      <point x="336" y="0" type="curve"/>
      <point x="307" y="0" type="line"/>
      <point x="271" y="-42"/>
      <point x="257" y="-85"/>
      <point x="263" y="-124" type="curve" smooth="yes"/>
      <point x="272" y="-182"/>
      <point x="323" y="-189"/>
      <point x="361" y="-178" type="curve"/>
    </contour>
    <contour>
      <point x="321" y="0" type="move" name="_ogo"/>
    </contour>
  </outline>
</glyph>
<glyph name="acutecomb" format="1">
  <advance width="97"/>
  <unicode hex="0301"/>
  <outline>
    <contour>
      <point x="22" y="570" type="line"/>
      <point x="97" y="701" type="line"/>
      <point x="73" y="701" type="line"/>
      <point x="0" y="570" type="line"/>
    </contour>
    <contour>
      <point x="33" y="500" type="move" name="_top"/>
    </contour>
  </outline>
</glyph>
<glyph name="circumflexcomb" format="1">
  <advance width="182"/>
  <unicode hex="0302"/>
  <outline>
    <contour>
      <point x="31" y="550" type="line"/>
      <point x="91" y="644" type="line"/>
      <point x="150" y="550" type="line"/>
      <point x="182" y="550" type="line"/>
      <point x="103" y="669" type="line"/>
      <point x="77" y="669" type="line"/>
      <point x="0" y="550" type="line"/>
    </contour>
    <contour>
      <point x="91" y="503" type="move" name="_top"/>
    </contour>
  </outline>
</glyph>
<glyph name="tildecomb" format="1">
  <advance width="223"/>
  <unicode hex="0303"/>
  <outline>
    <contour>
      <point x="0" y="609" type="line"/>
      <point x="3" y="629"/>
      <point x="32" y="648"/>
      <point x="62" y="648" type="curve" smooth="yes"/>
      <point x="85" y="648"/>
      <point x="104" y="638"/>
      <point x="121" y="627" type="curve" smooth="yes"/>
      <point x="136" y="617"/>
      <point x="150" y="609"/>
      <point x="166" y="609" type="curve" smooth="yes"/>
      <point x="189" y="609"/>
      <point x="203" y="623"/>
      <point x="222" y="644" type="curve"/>
      <point x="223" y="617" type="line"/>
      <point x="208" y="601"/>
      <point x="191" y="588"/>
      <point x="166" y="588" type="curve" smooth="yes"/>
      <point x="143" y="588"/>
      <point x="125" y="599"/>
      <point x="109" y="609" type="curve" smooth="yes"/>
      <point x="94" y="618"/>
      <point x="78" y="627"/>
      <point x="60" y="627" type="curve" smooth="yes"/>
      <point x="40" y="627"/>
      <point x="13" y="615"/>
      <point x="0" y="588" type="curve"/>
    </contour>
    <contour>
      <point x="111" y="500" type="move" name="_top"/>
    </contour>
  </outline>
</glyph>
<glyph name="macroncomb" format="1">
  <advance width="600"/>
  <unicode hex="0304"/>
  <outline>
    <contour>
      <point x="394" y="605" type="line"/>
      <point x="394" y="626" type="line"/>
      <point x="203" y="626" type="line"/>
      <point x="203" y="605" type="line"/>
    </contour>
    <contour>
      <point x="298" y="500" type="move" name="_top"/>
    </contour>
  </outline>
</glyph>
<glyph name="brevecomb" format="1">
  <advance width="244"/>
  <unicode hex="0306"/>
  <outline>
    <contour>
      <point x="122" y="544" type="curve" smooth="yes"/>
      <point x="175" y="544"/>
      <point x="216" y="587"/>
      <point x="216" y="641" type="curve"/>
      <point x="195" y="641" type="line"/>
      <point x="195" y="598"/>
      <point x="162" y="565"/>
      <point x="122" y="565" type="curve" smooth="yes"/>
      <point x="82" y="565"/>
      <point x="49" y="598"/>
      <point x="49" y="641" type="curve"/>
      <point x="28" y="641" type="line"/>
      <point x="28" y="587"/>
      <point x="70" y="544"/>
    </contour>
    <contour>
      <point x="122" y="500" type="move" name="_top"/>
    </contour>
  </outline>
</glyph>
<glyph name="dotaccentcomb" format="1">
  <advance width="52"/>
  <unicode hex="0307"/>
  <outline>
    <contour>
      <point x="41" y="574"/>
      <point x="52" y="587"/>
      <point x="52" y="604" type="curve" smooth="yes"/>
      <point x="52" y="620"/>
      <point x="41" y="633"/>
      <point x="27" y="633" type="curve" smooth="yes"/>
      <point x="12" y="633"/>
      <point x="0" y="620"/>
      <point x="0" y="604" type="curve" smooth="yes"/>
      <point x="0" y="587"/>
      <point x="12" y="574"/>
      <point x="27" y="574" type="curve" smooth="yes"/>
    </contour>
    <contour>
      <point x="27" y="500" type="move" name="_top"/>
    </contour>
  </outline>
</glyph>
<glyph name="dieresiscomb" format="1">
  <advance width="157"/>
  <unicode hex="0308"/>
  <outline>
    <contour>
      <point x="146" y="620"/>
      <point x="157" y="633"/>
      <point x="157" y="650" type="curve" smooth="yes"/>
      <point x="157" y="666"/>
      <point x="146" y="679"/>
      <point x="132" y="679" type="curve" smooth="yes"/>
      <point x="117" y="679"/>
      <point x="105" y="666"/>
      <point x="105" y="650" type="curve" smooth="yes"/>
      <point x="105" y="633"/>
      <point x="117" y="620"/>
      <point x="132" y="620" type="curve" smooth="yes"/>
    </contour>
    <contour>
      <point x="41" y="620"/>
      <point x="52" y="633"/>
      <point x="52" y="650" type="curve" smooth="yes"/>
      <point x="52" y="666"/>
      <point x="41" y="679"/>
      <point x="27" y="679" type="curve" smooth="yes"/>
      <point x="12" y="679"/>
      <point x="0" y="666"/>
      <point x="0" y="650" type="curve" smooth="yes"/>
      <point x="0" y="633"/>
      <point x="12" y="620"/>
      <point x="27" y="620" type="curve" smooth="yes"/>
    </contour>
    <contour>
      <point x="79" y="500" type="move" name="_top"/>
    </contour>
  </outline>
</glyph>
<glyph name="ringcomb" format="1">
  <advance width="188"/>
  <unicode hex="030A"/>
  <outline>
    <contour>
      <point x="147" y="580"/>
      <point x="188" y="623"/>
      <point x="188" y="677" type="curve" smooth="yes"/>
      <point x="188" y="731"/>
      <point x="147" y="774"/>
      <point x="94" y="774" type="curve" smooth="yes"/>
      <point x="42" y="774"/>
      <point x="0" y="731"/>
      <point x="0" y="677" type="curve" smooth="yes"/>
      <point x="0" y="623"/>
      <point x="42" y="580"/>
      <point x="94" y="580" type="curve" smooth="yes"/>
    </contour>
    <contour>
      <point x="54" y="601"/>
      <point x="21" y="634"/>
      <point x="21" y="677" type="curve" smooth="yes"/>
      <point x="21" y="720"/>
      <point x="54" y="753"/>
      <point x="94" y="753" type="curve" smooth="yes"/>
      <point x="134" y="753"/>
      <point x="167" y="720"/>
      <point x="167" y="677" type="curve" smooth="yes"/>
      <point x="167" y="634"/>
      <point x="134" y="601"/>
      <point x="94" y="601" type="curve" smooth="yes"/>
    </contour>
    <contour>
      <point x="94" y="500" type="move" name="_top"/>
    </contour>
  </outline>
</glyph>
<glyph name="hungarumlautcomb" format="1">
  <advance width="255"/>
  <unicode hex="030B"/>
  <outline>
    <contour>
      <point x="152" y="578" type="line"/>
      <point x="227" y="709" type="line"/>
      <point x="203" y="709" type="line"/>
      <point x="130" y="578" type="line"/>
    </contour>
    <contour>
      <point x="50" y="578" type="line"/>
      <point x="125" y="709" type="line"/>
      <point x="101" y="709" type="line"/>
      <point x="28" y="578" type="line"/>
    </contour>
    <contour>
      <point x="94" y="500" type="move" name="_top"/>
    </contour>
  </outline>
</glyph>
<glyph name="caroncomb" format="1">
  <advance width="238"/>
  <unicode hex="030C"/>
  <outline>
    <contour>
      <point x="131" y="560" type="line"/>
      <point x="210" y="679" type="line"/>
      <point x="178" y="679" type="line"/>
      <point x="119" y="585" type="line"/>
      <point x="59" y="679" type="line"/>
      <point x="28" y="679" type="line"/>
      <point x="105" y="560" type="line"/>
    </contour>
    <contour>
      <point x="118" y="503" type="move" name="_top"/>
    </contour>
  </outline>
</glyph>
<glyph name="commaturnedabovecomb" format="1">
  <advance width="153"/>
  <unicode hex="0312"/>
  <outline>
    <component base="acutecomb" xScale="-1" yScale="-1" xOffset="125" yOffset="1272"/>
    <contour>
      <point x="36" y="500" type="move" name="_top"/>
    </contour>
  </outline>
</glyph>
<glyph name="commaaccentcomb" format="1">
  <advance width="153"/>
  <unicode hex="0326"/>
  <outline>
    <component base="acute" yOffset="-770"/>
    <contour>
      <point x="53" y="0" type="move" name="_bottom"/>
    </contour>
  </outline>
</glyph>
<glyph name="cedillacomb" format="1">
  <advance width="600"/>
  <unicode hex="0327"/>
  <outline>
    <contour>
      <point x="354" y="-194"/>
      <point x="380" y="-191"/>
      <point x="399" y="-178" type="curve" smooth="yes"/>
      <point x="418" y="-165"/>
      <point x="429" y="-141"/>
      <point x="429" y="-112" type="curve" smooth="yes"/>
      <point x="429" y="-61"/>
      <point x="396" y="-36"/>
      <point x="363" y="-36" type="curve" smooth="yes"/>
      <point x="341" y="-36"/>
      <point x="319" y="-46"/>
      <point x="306" y="-67" type="curve"/>
      <point x="312" y="-73" type="line"/>
      <point x="339" y="-7" type="line"/>
      <point x="319" y="1" type="line"/>
      <point x="281" y="-87" type="line"/>
      <point x="301" y="-96" type="line"/>
      <point x="315" y="-71"/>
      <point x="339" y="-58"/>
      <point x="360" y="-58" type="curve" smooth="yes"/>
      <point x="385" y="-58"/>
      <point x="407" y="-76"/>
      <point x="407" y="-113" type="curve" smooth="yes"/>
      <point x="407" y="-139"/>
      <point x="396" y="-155"/>
      <point x="381" y="-162" type="curve" smooth="yes"/>
      <point x="364" y="-171"/>
      <point x="342" y="-169"/>
      <point x="328" y="-163" type="curve"/>
      <point x="321" y="-183" type="line"/>
    </contour>
  </outline>
</glyph>
<glyph name="strokeshortcomb" format="1">
  <advance width="253"/>
  <unicode hex="0335"/>
  <outline>
    <contour>
      <point x="0" y="597" type="line"/>
      <point x="0" y="576" type="line"/>
      <point x="253" y="576" type="line"/>
      <point x="253" y="597" type="line"/>
    </contour>
    <contour>
      <point x="127" y="576" type="move" name="_shortstroke"/>
    </contour>
  </outline>
</glyph>
<glyph name="strokelongcomb" format="1">
  <advance width="380"/>
  <unicode hex="0336"/>
  <outline>
    <contour>
      <point x="0" y="520" type="line"/>
      <point x="380" y="520" type="line"/>
      <point x="380" y="541" type="line"/>
      <point x="0" y="541" type="line"/>
    </contour>
    <contour>
      <point x="190" y="520" type="move" name="_strokelong"/>
    </contour>
  </outline>
</glyph>
<glyph name="slashshortcomb" format="1">
  <advance width="249"/>
  <unicode hex="0337"/>
  <outline>
    <contour>
      <point x="326" y="359" type="line"/>
      <point x="314" y="378" type="line"/>
      <point x="-17" y="161" type="line"/>
      <point x="-5" y="143" type="line"/>
    </contour>
  </outline>
</glyph>
<glyph name="slashlongcomb" format="1">
  <advance width="329"/>
  <unicode hex="0338"/>
  <outline>
    <contour>
      <point x="0" y="-30" type="line"/>
      <point x="24" y="-30" type="line"/>
      <point x="329" y="739" type="line"/>
      <point x="305" y="739" type="line"/>
    </contour>
  </outline>
</glyph>
<glyph name="Omega" format="1">
  <advance width="471"/>
  <unicode hex="03A9"/>
  <outline>
    <contour>
      <point x="207" y="0" type="line"/>
      <point x="207" y="21" type="line"/>
      <point x="156" y="26"/>
      <point x="107" y="80"/>
      <point x="107" y="157" type="curve" smooth="yes"/>
      <point x="107" y="550" type="line" smooth="yes"/>
      <point x="107" y="631"/>
      <point x="160" y="687"/>
      <point x="236" y="687" type="curve" smooth="yes"/>
      <point x="313" y="687"/>
      <point x="367" y="631"/>
      <point x="367" y="550" type="curve" smooth="yes"/>
      <point x="367" y="157" type="line" smooth="yes"/>
      <point x="367" y="80"/>
      <point x="317" y="26"/>
      <point x="265" y="21" type="curve"/>
      <point x="265" y="0" type="line"/>
      <point x="401" y="0" type="line"/>
      <point x="401" y="21" type="line"/>
      <point x="317" y="21" type="line"/>
      <point x="362" y="47"/>
      <point x="389" y="96"/>
      <point x="389" y="158" type="curve" smooth="yes"/>
      <point x="389" y="549" type="line" smooth="yes"/>
      <point x="389" y="643"/>
      <point x="326" y="708"/>
      <point x="236" y="708" type="curve" smooth="yes"/>
      <point x="147" y="708"/>
      <point x="85" y="643"/>
      <point x="85" y="549" type="curve" smooth="yes"/>
      <point x="85" y="158" type="line" smooth="yes"/>
      <point x="85" y="96"/>
      <point x="112" y="47"/>
      <point x="156" y="21" type="curve"/>
      <point x="70" y="21" type="line"/>
      <point x="70" y="0" type="line"/>
    </contour>
  </outline>
</glyph>
<glyph name="pi" format="1">
  <advance width="463"/>
  <unicode hex="03C0"/>
  <outline>
    <contour>
      <point x="394" y="24" type="line"/>
      <point x="363" y="24"/>
      <point x="344" y="30"/>
      <point x="344" y="58" type="curve"/>
      <point x="344" y="503" type="line"/>
      <point x="322" y="500" type="line"/>
      <point x="322" y="58" type="line"/>
      <point x="321" y="13"/>
      <point x="349" y="0"/>
      <point x="394" y="0" type="curve"/>
    </contour>
    <contour>
      <point x="96" y="0" type="line"/>
      <point x="96" y="500" type="line"/>
      <point x="74" y="500" type="line"/>
      <point x="74" y="0" type="line"/>
    </contour>
    <contour>
      <point x="401" y="500" type="line"/>
      <point x="401" y="520" type="line"/>
      <point x="10" y="520" type="line"/>
      <point x="10" y="500" type="line"/>
    </contour>
  </outline>
</glyph>
<glyph name="endash" format="1">
  <advance width="366"/>
  <unicode hex="2013"/>
  <outline>
    <contour>
      <point x="328" y="271" type="line"/>
      <point x="328" y="292" type="line"/>
      <point x="38" y="292" type="line"/>
      <point x="38" y="271" type="line"/>
    </contour>
  </outline>
</glyph>
<glyph name="emdash" format="1">
  <advance width="552"/>
  <unicode hex="2014"/>
  <outline>
    <contour>
      <point x="534" y="251" type="line"/>
      <point x="534" y="272" type="line"/>
      <point x="18" y="272" type="line"/>
      <point x="18" y="251" type="line"/>
    </contour>
  </outline>
</glyph>
<glyph name="quoteleft" format="1">
  <advance width="78"/>
  <unicode hex="2018"/>
  <outline>
    <contour>
      <point x="59" y="700" type="line"/>
      <point x="0" y="510" type="line"/>
      <point x="25" y="510" type="line"/>
      <point x="78" y="700" type="line"/>
    </contour>
  </outline>
</glyph>
<glyph name="quotedblleft" format="1">
  <advance width="179"/>
  <unicode hex="201C"/>
  <outline>
    <contour>
      <point x="0" y="510" type="line"/>
      <point x="25" y="510" type="line"/>
      <point x="87" y="700" type="line"/>
      <point x="67" y="700" type="line"/>
    </contour>
    <contour>
      <point x="92" y="510" type="line"/>
      <point x="118" y="510" type="line"/>
      <point x="179" y="700" type="line"/>
      <point x="159" y="700" type="line"/>
    </contour>
  </outline>
</glyph>
<glyph name="dagger" format="1">
  <advance width="316"/>
  <unicode hex="2020"/>
  <outline>
    <contour>
      <point x="147" y="-200" type="line"/>
      <point x="169" y="-200" type="line"/>
      <point x="169" y="700" type="line"/>
      <point x="147" y="700" type="line"/>
    </contour>
    <contour>
      <point x="38" y="439" type="line"/>
      <point x="278" y="439" type="line"/>
      <point x="278" y="460" type="line"/>
      <point x="38" y="460" type="line"/>
    </contour>
  </outline>
</glyph>
<glyph name="daggerdbl" format="1">
  <advance width="316"/>
  <unicode hex="2021"/>
  <outline>
    <contour>
      <point x="169" y="-200" type="line"/>
      <point x="169" y="700" type="line"/>
      <point x="147" y="700" type="line"/>
      <point x="147" y="-200" type="line"/>
    </contour>
    <contour>
      <point x="278" y="40" type="line"/>
      <point x="278" y="61" type="line"/>
      <point x="38" y="61" type="line"/>
      <point x="38" y="40" type="line"/>
    </contour>
    <contour>
      <point x="278" y="439" type="line"/>
      <point x="278" y="460" type="line"/>
      <point x="38" y="460" type="line"/>
      <point x="38" y="439" type="line"/>
    </contour>
  </outline>
</glyph>
<glyph name="bullet" format="1">
  <advance width="267"/>
  <unicode hex="2022"/>
  <outline>
    <contour>
      <point x="186" y="164"/>
      <point x="229" y="207"/>
      <point x="229" y="260" type="curve" smooth="yes"/>
      <point x="229" y="313"/>
      <point x="186" y="355"/>
      <point x="134" y="355" type="curve" smooth="yes"/>
      <point x="81" y="355"/>
      <point x="38" y="313"/>
      <point x="38" y="260" type="curve" smooth="yes"/>
      <point x="38" y="207"/>
      <point x="81" y="164"/>
      <point x="134" y="164" type="curve" smooth="yes"/>
    </contour>
  </outline>
</glyph>
<glyph name="guilsinglright" format="1">
  <advance width="340"/>
  <unicode hex="203A"/>
  <outline>
    <contour>
      <point x="113" y="107" type="line"/>
      <point x="249" y="281" type="line"/>
      <point x="113" y="455" type="line"/>
      <point x="91" y="455" type="line"/>
      <point x="227" y="281" type="line"/>
      <point x="91" y="107" type="line"/>
    </contour>
  </outline>
</glyph>
<glyph name="fraction" format="1">
  <advance width="250"/>
  <unicode hex="2044"/>
  <outline>
    <contour>
      <point x="370" y="700" type="line"/>
      <point x="347" y="700" type="line"/>
      <point x="-110" y="0" type="line"/>
      <point x="-87" y="0" type="line"/>
    </contour>
  </outline>
</glyph>
<glyph name="euro" format="1">
  <advance width="476"/>
  <unicode hex="20AC"/>
  <outline>
    <contour>
      <point x="357" y="-8"/>
      <point x="410" y="50"/>
      <point x="413" y="140" type="curve"/>
      <point x="390" y="143" type="line"/>
      <point x="389" y="65"/>
      <point x="344" y="13"/>
      <point x="276" y="13" type="curve" smooth="yes"/>
      <point x="208" y="13"/>
      <point x="163" y="67"/>
      <point x="163" y="147" type="curve" smooth="yes"/>
      <point x="163" y="554" type="line" smooth="yes"/>
      <point x="163" y="634"/>
      <point x="208" y="687"/>
      <point x="276" y="687" type="curve" smooth="yes"/>
      <point x="344" y="687"/>
      <point x="389" y="635"/>
      <point x="390" y="557" type="curve"/>
      <point x="413" y="561" type="line"/>
      <point x="410" y="651"/>
      <point x="357" y="708"/>
      <point x="276" y="708" type="curve" smooth="yes"/>
      <point x="195" y="708"/>
      <point x="141" y="647"/>
      <point x="141" y="553" type="curve" smooth="yes"/>
      <point x="141" y="148" type="line" smooth="yes"/>
      <point x="141" y="54"/>
      <point x="195" y="-8"/>
      <point x="276" y="-8" type="curve" smooth="yes"/>
    </contour>
    <contour>
      <point x="326" y="280" type="line"/>
      <point x="338" y="301" type="line"/>
      <point x="70" y="301" type="line"/>
      <point x="70" y="280" type="line"/>
    </contour>
    <contour>
      <point x="358" y="395" type="line"/>
      <point x="369" y="416" type="line"/>
      <point x="70" y="416" type="line"/>
      <point x="70" y="395" type="line"/>
    </contour>
    <contour>
      <point x="276" y="708" type="move" name="top"/>
    </contour>
  </outline>
</glyph>
<glyph name="uni20BA" format="1">
  <advance width="548"/>
  <unicode hex="20BA"/>
  <outline>
    <contour>
      <point x="76" y="309" type="line"/>
      <point x="350" y="394" type="line"/>
      <point x="344" y="414" type="line"/>
      <point x="70" y="329" type="line"/>
    </contour>
    <contour>
      <point x="76" y="409" type="line"/>
      <point x="350" y="494" type="line"/>
      <point x="344" y="514" type="line"/>
      <point x="70" y="429" type="line"/>
    </contour>
    <contour>
      <point x="189" y="0" type="line"/>
      <point x="216" y="-1"/>
      <point x="245" y="2"/>
      <point x="271" y="7" type="curve" smooth="yes"/>
      <point x="404" y="33"/>
      <point x="485" y="138"/>
      <point x="485" y="259" type="curve"/>
      <point x="463" y="259" type="line"/>
      <point x="463" y="133"/>
      <point x="363" y="25"/>
      <point x="211" y="20" type="curve"/>
      <point x="211" y="700" type="line"/>
      <point x="189" y="700" type="line"/>
    </contour>
  </outline>
</glyph>
<glyph name="uni20BD" format="1">
  <advance width="419"/>
  <unicode hex="20BD"/>
  <outline>
    <contour>
      <point x="106" y="0" type="line"/>
      <point x="106" y="681" type="line"/>
      <point x="232" y="681" type="line" smooth="yes"/>
      <point x="306" y="681"/>
      <point x="355" y="617"/>
      <point x="355" y="520" type="curve" smooth="yes"/>
      <point x="355" y="425"/>
      <point x="306" y="361"/>
      <point x="232" y="361" type="curve" smooth="yes"/>
      <point x="12" y="361" type="line"/>
      <point x="12" y="340" type="line"/>
      <point x="232" y="340" type="line" smooth="yes"/>
      <point x="319" y="340"/>
      <point x="377" y="412"/>
      <point x="377" y="520" type="curve" smooth="yes"/>
      <point x="377" y="629"/>
      <point x="319" y="702"/>
      <point x="232" y="702" type="curve" smooth="yes"/>
      <point x="84" y="702" type="line"/>
      <point x="84" y="0" type="line"/>
    </contour>
    <contour>
      <point x="12" y="205" type="line"/>
      <point x="288" y="205" type="line"/>
      <point x="288" y="226" type="line"/>
      <point x="12" y="226" type="line"/>
    </contour>
  </outline>
</glyph>
<glyph name="uni2113" format="1">
  <advance width="415"/>
  <unicode hex="2113"/>
  <outline>
    <contour>
      <point x="283" y="-8"/>
      <point x="329" y="10"/>
      <point x="342" y="28" type="curve"/>
      <point x="341" y="50" type="line"/>
      <point x="327" y="35"/>
      <point x="294" y="12"/>
      <point x="249" y="12" type="curve" smooth="yes"/>
      <point x="189" y="12"/>
      <point x="159" y="51"/>
      <point x="159" y="135" type="curve"/>
      <point x="158" y="503" type="line" smooth="yes"/>
      <point x="157" y="598"/>
      <point x="199" y="680"/>
      <point x="250" y="688" type="curve" smooth="yes"/>
      <point x="293" y="695"/>
      <point x="323" y="648"/>
      <point x="323" y="589" type="curve" smooth="yes"/>
      <point x="323" y="459"/>
      <point x="174" y="362"/>
      <point x="70" y="254" type="curve"/>
      <point x="85" y="240" type="line"/>
      <point x="187" y="348"/>
      <point x="345" y="449"/>
      <point x="345" y="589" type="curve" smooth="yes"/>
      <point x="345" y="661"/>
      <point x="303" y="715"/>
      <point x="248" y="708" type="curve" smooth="yes"/>
      <point x="183" y="700"/>
      <point x="135" y="607"/>
      <point x="136" y="503" type="curve" smooth="yes"/>
      <point x="138" y="135" type="line" smooth="yes"/>
      <point x="138" y="45"/>
      <point x="175" y="-8"/>
      <point x="243" y="-8" type="curve" smooth="yes"/>
    </contour>
  </outline>
</glyph>
<glyph name="trademark" format="1">
  <advance width="493"/>
  <unicode hex="2122"/>
  <outline>
    <contour>
      <point x="283" y="349" type="line"/>
      <point x="283" y="653" type="line"/>
      <point x="349" y="515" type="line"/>
      <point x="360" y="515" type="line"/>
      <point x="425" y="653" type="line"/>
      <point x="425" y="349" type="line"/>
      <point x="447" y="349" type="line"/>
      <point x="447" y="700" type="line"/>
      <point x="425" y="700" type="line"/>
      <point x="353" y="551" type="line"/>
      <point x="283" y="700" type="line"/>
      <point x="260" y="700" type="line"/>
      <point x="260" y="349" type="line"/>
    </contour>
    <contour>
      <point x="116" y="349" type="line"/>
      <point x="116" y="695" type="line"/>
      <point x="94" y="695" type="line"/>
      <point x="94" y="349" type="line"/>
    </contour>
    <contour>
      <point x="198" y="680" type="line"/>
      <point x="198" y="700" type="line"/>
      <point x="17" y="700" type="line"/>
      <point x="17" y="680" type="line"/>
    </contour>
  </outline>
</glyph>
<glyph name="partialdiff" format="1">
  <advance width="541"/>
  <unicode hex="2202"/>
  <outline>
    <contour>
      <point x="434" y="-8"/>
      <point x="466" y="189"/>
      <point x="464" y="340" type="curve" smooth="yes"/>
      <point x="463" y="440"/>
      <point x="448" y="552"/>
      <point x="395" y="627" type="curve" smooth="yes"/>
      <point x="362" y="674"/>
      <point x="318" y="701"/>
      <point x="261" y="707" type="curve" smooth="yes"/>
      <point x="221" y="711"/>
      <point x="174" y="701"/>
      <point x="129" y="674" type="curve"/>
      <point x="136" y="656" type="line"/>
      <point x="181" y="682"/>
      <point x="226" y="691"/>
      <point x="261" y="687" type="curve" smooth="yes"/>
      <point x="312" y="681"/>
      <point x="349" y="657"/>
      <point x="378" y="615" type="curve" smooth="yes"/>
      <point x="427" y="544"/>
      <point x="441" y="437"/>
      <point x="443" y="346" type="curve" smooth="yes"/>
      <point x="448" y="139"/>
      <point x="388" y="13"/>
      <point x="260" y="13" type="curve" smooth="yes"/>
      <point x="160" y="13"/>
      <point x="85" y="88"/>
      <point x="85" y="203" type="curve" smooth="yes"/>
      <point x="85" y="321"/>
      <point x="166" y="399"/>
      <point x="266" y="399" type="curve" smooth="yes"/>
      <point x="361" y="399"/>
      <point x="430" y="329"/>
      <point x="450" y="260" type="curve"/>
      <point x="462" y="275" type="line"/>
      <point x="441" y="342"/>
      <point x="370" y="422"/>
      <point x="264" y="422" type="curve" smooth="yes"/>
      <point x="152" y="422"/>
      <point x="63" y="332"/>
      <point x="63" y="203" type="curve" smooth="yes"/>
      <point x="63" y="76"/>
      <point x="145" y="-8"/>
      <point x="259" y="-8" type="curve" smooth="yes"/>
    </contour>
  </outline>
</glyph>
<glyph name="summation" format="1">
  <advance width="516"/>
  <unicode hex="2211"/>
  <outline>
    <contour>
      <point x="466" y="-199" type="line"/>
      <point x="466" y="-179" type="line"/>
      <point x="117" y="-179" type="line"/>
      <point x="350" y="290" type="line"/>
      <point x="117" y="679" type="line"/>
      <point x="466" y="679" type="line"/>
      <point x="466" y="699" type="line"/>
      <point x="92" y="699" type="line"/>
      <point x="92" y="679" type="line"/>
      <point x="324" y="290" type="line"/>
      <point x="91" y="-179" type="line"/>
      <point x="91" y="-199" type="line"/>
    </contour>
  </outline>
</glyph>
<glyph name="minus" format="1">
  <advance width="452"/>
  <unicode hex="2212"/>
  <outline>
    <contour>
      <point x="414" y="312" type="line"/>
      <point x="414" y="332" type="line"/>
      <point x="38" y="332" type="line"/>
      <point x="38" y="312" type="line"/>
    </contour>
  </outline>
</glyph>
<glyph name="divisionslash" format="1">
  <advance width="378"/>
  <unicode hex="2215"/>
  <outline>
    <contour>
      <point x="350" y="700" type="line"/>
      <point x="328" y="700" type="line"/>
      <point x="28" y="0" type="line"/>
      <point x="51" y="0" type="line"/>
    </contour>
  </outline>
</glyph>
<glyph name="radical" format="1">
  <advance width="594"/>
  <unicode hex="221A"/>
  <outline>
    <contour>
      <point x="139" y="-200" type="line"/>
      <point x="162" y="-200" type="line"/>
      <point x="393" y="767" type="line"/>
      <point x="517" y="767" type="line"/>
      <point x="517" y="787" type="line"/>
      <point x="375" y="787" type="line"/>
      <point x="149" y="-166" type="line"/>
      <point x="48" y="152" type="line"/>
      <point x="28" y="146" type="line"/>
    </contour>
  </outline>
</glyph>
<glyph name="infinity" format="1">
  <advance width="625"/>
  <unicode hex="221E"/>
  <outline>
    <contour>
      <point x="467" y="179" type="curve" smooth="yes"/>
      <point x="530" y="179"/>
      <point x="587" y="232"/>
      <point x="587" y="319" type="curve" smooth="yes"/>
      <point x="587" y="404"/>
      <point x="533" y="460"/>
      <point x="468" y="460" type="curve" smooth="yes"/>
      <point x="393" y="460"/>
      <point x="337" y="384"/>
      <point x="298" y="325" type="curve" smooth="yes"/>
      <point x="247" y="249"/>
      <point x="205" y="199"/>
      <point x="153" y="199" type="curve" smooth="yes"/>
      <point x="103" y="199"/>
      <point x="59" y="247"/>
      <point x="59" y="320" type="curve" smooth="yes"/>
      <point x="59" y="398"/>
      <point x="108" y="440"/>
      <point x="156" y="440" type="curve" smooth="yes"/>
      <point x="208" y="440"/>
      <point x="251" y="389"/>
      <point x="298" y="316" type="curve" smooth="yes"/>
      <point x="329" y="267"/>
      <point x="385" y="179"/>
    </contour>
    <contour>
      <point x="153" y="179" type="curve" smooth="yes"/>
      <point x="226" y="179"/>
      <point x="281" y="261"/>
      <point x="317" y="315" type="curve" smooth="yes"/>
      <point x="366" y="387"/>
      <point x="412" y="440"/>
      <point x="468" y="440" type="curve" smooth="yes"/>
      <point x="522" y="440"/>
      <point x="566" y="392"/>
      <point x="566" y="319" type="curve" smooth="yes"/>
      <point x="566" y="245"/>
      <point x="519" y="199"/>
      <point x="466" y="199" type="curve" smooth="yes"/>
      <point x="397" y="199"/>
      <point x="347" y="277"/>
      <point x="317" y="324" type="curve" smooth="yes"/>
      <point x="273" y="392"/>
      <point x="224" y="460"/>
      <point x="155" y="460" type="curve" smooth="yes"/>
      <point x="96" y="460"/>
      <point x="38" y="409"/>
      <point x="38" y="320" type="curve" smooth="yes"/>
      <point x="38" y="235"/>
      <point x="92" y="179"/>
    </contour>
  </outline>
</glyph>
<glyph name="integral" format="1">
  <advance width="310"/>
  <unicode hex="222B"/>
  <outline>
    <contour>
      <point x="133" y="-210"/>
      <point x="164" y="-179"/>
      <point x="164" y="-50" type="curve" smooth="yes"/>
      <point x="164" y="550" type="line" smooth="yes"/>
      <point x="164" y="637"/>
      <point x="177" y="689"/>
      <point x="247" y="689" type="curve" smooth="yes"/>
      <point x="272" y="689" type="line"/>
      <point x="272" y="710" type="line"/>
      <point x="173" y="710"/>
      <point x="142" y="679"/>
      <point x="142" y="550" type="curve" smooth="yes"/>
      <point x="142" y="-50" type="line" smooth="yes"/>
      <point x="142" y="-137"/>
      <point x="129" y="-189"/>
      <point x="59" y="-189" type="curve" smooth="yes"/>
      <point x="34" y="-189" type="line"/>
      <point x="34" y="-210" type="line"/>
    </contour>
  </outline>
</glyph>
<glyph name="notequal" format="1">
  <advance width="422"/>
  <unicode hex="2260"/>
  <outline>
    <contour>
      <point x="323" y="503" type="line"/>
      <point x="301" y="503" type="line"/>
      <point x="79" y="59" type="line"/>
      <point x="101" y="59" type="line"/>
    </contour>
    <component base="equal" yOffset="-40"/>
  </outline>
</glyph>
<glyph name="lozenge" format="1">
  <advance width="376"/>
  <unicode hex="25CA"/>
  <outline>
    <contour>
      <point x="201" y="-40" type="line"/>
      <point x="338" y="350" type="line"/>
      <point x="200" y="740" type="line"/>
      <point x="176" y="740" type="line"/>
      <point x="38" y="350" type="line"/>
      <point x="175" y="-40" type="line"/>
    </contour>
    <contour>
      <point x="62" y="350" type="line"/>
      <point x="188" y="719" type="line"/>
      <point x="314" y="350" type="line"/>
      <point x="188" y="-19" type="line"/>
    </contour>
  </outline>
</glyph>
<glyph name=".notdef" format="1">
  <advance width="297"/>
  <outline>
    <contour>
      <point x="0" y="700" type="line"/>
      <point x="297" y="700" type="line"/>
      <point x="297" y="0" type="line"/>
      <point x="0" y="0" type="line"/>
    </contour>
    <component base="question" xOffset="37" yOffset="89" xScale="0.714" yScale="0.714"/>
  </outline>
</glyph>
<glyph name="a.alt" format="1">
  <advance width="407"/>
  <outline>
    <contour>
      <point x="330" y="0" type="line"/>
      <point x="330" y="500" type="line"/>
      <point x="308" y="500" type="line"/>
      <point x="308" y="0" type="line"/>
    </contour>
    <component base="b.bowl" xOffset="323" xScale="-1"/>
    <contour>
      <point x="200" y="520" type="move" name="top"/>
    </contour>
  </outline>
</glyph>
<glyph name="a.sc" format="1">
  <advance width="404"/>
  <outline>
    <contour>
      <point x="62" y="0" type="line"/>
      <point x="201" y="563" type="line"/>
      <point x="341" y="0" type="line"/>
      <point x="364" y="0" type="line"/>
      <point x="212" y="600" type="line"/>
      <point x="189" y="600" type="line"/>
      <point x="40" y="0" type="line"/>
    </contour>
    <contour>
      <point x="321" y="132" type="line"/>
      <point x="321" y="153" type="line"/>
      <point x="86" y="153" type="line"/>
      <point x="86" y="132" type="line"/>
    </contour>
    <contour>
      <point x="201" y="600" type="move" name="top"/>
    </contour>
  </outline>
</glyph>
<glyph name="ae.sc" format="1">
  <advance width="659"/>
  <outline>
    <contour>
      <point x="62" y="0" type="line"/>
      <point x="343" y="562" type="line"/>
      <point x="342" y="0" type="line"/>
      <point x="612" y="0" type="line"/>
      <point x="612" y="21" type="line"/>
      <point x="365" y="21" type="line"/>
      <point x="365" y="579" type="line"/>
      <point x="612" y="579" type="line"/>
      <point x="612" y="600" type="line"/>
      <point x="340" y="600" type="line"/>
      <point x="40" y="0" type="line"/>
    </contour>
    <contour>
      <point x="354" y="132" type="line"/>
      <point x="358" y="153" type="line"/>
      <point x="125" y="153" type="line"/>
      <point x="120" y="132" type="line"/>
    </contour>
    <contour>
      <point x="532" y="290" type="line"/>
      <point x="532" y="311" type="line"/>
      <point x="354" y="311" type="line"/>
      <point x="354" y="290" type="line"/>
    </contour>
  </outline>
</glyph>
<glyph name="at.alt" format="1">
  <advance width="865"/>
  <outline>
    <contour>
      <point x="478" y="182"/>
      <point x="515" y="220"/>
      <point x="515" y="279" type="curve" smooth="yes"/>
      <point x="515" y="371" type="line"/>
      <point x="442" y="371" type="line" smooth="yes"/>
      <point x="378" y="371"/>
      <point x="342" y="334"/>
      <point x="342" y="269" type="curve" smooth="yes"/>
      <point x="342" y="213"/>
      <point x="370" y="182"/>
      <point x="421" y="182" type="curve" smooth="yes"/>
    </contour>
    <contour>
      <point x="385" y="203"/>
      <point x="364" y="226"/>
      <point x="364" y="270" type="curve" smooth="yes"/>
      <point x="364" y="321"/>
      <point x="393" y="350"/>
      <point x="443" y="350" type="curve" smooth="yes"/>
      <point x="498" y="350" type="line"/>
      <point x="498" y="279" type="line" smooth="yes"/>
      <point x="498" y="233"/>
      <point x="468" y="203"/>
      <point x="423" y="203" type="curve" smooth="yes"/>
    </contour>
    <contour>
      <point x="520" y="187" type="line"/>
      <point x="520" y="403" type="line" smooth="yes"/>
      <point x="520" y="471"/>
      <point x="489" y="510"/>
      <point x="435" y="510" type="curve" smooth="yes"/>
      <point x="386" y="510"/>
      <point x="348" y="475"/>
      <point x="348" y="428" type="curve"/>
      <point x="371" y="425" type="line"/>
      <point x="368" y="461"/>
      <point x="397" y="489"/>
      <point x="434" y="489" type="curve" smooth="yes"/>
      <point x="474" y="489"/>
      <point x="498" y="459"/>
      <point x="498" y="405" type="curve" smooth="yes"/>
      <point x="498" y="187" type="line"/>
    </contour>
    <contour>
      <point x="638" y="-8"/>
      <point x="795" y="151"/>
      <point x="795" y="347" type="curve" smooth="yes"/>
      <point x="795" y="549"/>
      <point x="638" y="708"/>
      <point x="432" y="708" type="curve" smooth="yes"/>
      <point x="227" y="708"/>
      <point x="70" y="549"/>
      <point x="70" y="347" type="curve" smooth="yes"/>
      <point x="70" y="151"/>
      <point x="227" y="-8"/>
      <point x="432" y="-8" type="curve" smooth="yes"/>
    </contour>
    <contour>
      <point x="239" y="13"/>
      <point x="92" y="163"/>
      <point x="92" y="347" type="curve" smooth="yes"/>
      <point x="92" y="537"/>
      <point x="239" y="687"/>
      <point x="432" y="687" type="curve" smooth="yes"/>
      <point x="625" y="687"/>
      <point x="772" y="537"/>
      <point x="772" y="347" type="curve" smooth="yes"/>
      <point x="772" y="163"/>
      <point x="625" y="13"/>
      <point x="432" y="13" type="curve" smooth="yes"/>
    </contour>
  </outline>
</glyph>
<glyph name="b.bowl" format="1">
  <advance width="260"/>
  <outline>
    <contour>
      <point x="206" y="-8"/>
      <point x="260" y="52"/>
      <point x="260" y="135" type="curve" smooth="yes"/>
      <point x="260" y="173"/>
      <point x="260" y="212"/>
      <point x="260" y="250" type="curve" smooth="yes"/>
      <point x="260" y="288"/>
      <point x="260" y="327"/>
      <point x="260" y="365" type="curve" smooth="yes"/>
      <point x="260" y="448"/>
      <point x="206" y="508"/>
      <point x="126" y="508" type="curve" smooth="yes"/>
      <point x="49" y="508"/>
      <point x="-1" y="448"/>
      <point x="-1" y="365" type="curve" smooth="yes"/>
      <point x="-1" y="327"/>
      <point x="-1" y="288"/>
      <point x="-1" y="250" type="curve" smooth="yes"/>
      <point x="-1" y="212"/>
      <point x="-1" y="173"/>
      <point x="-1" y="135" type="curve" smooth="yes"/>
      <point x="-1" y="52"/>
      <point x="49" y="-8"/>
      <point x="126" y="-8" type="curve" smooth="yes"/>
    </contour>
    <contour>
      <point x="60" y="13"/>
      <point x="15" y="63"/>
      <point x="15" y="135" type="curve" smooth="yes"/>
      <point x="15" y="173"/>
      <point x="15" y="212"/>
      <point x="15" y="250" type="curve" smooth="yes"/>
      <point x="15" y="288"/>
      <point x="15" y="327"/>
      <point x="15" y="365" type="curve" smooth="yes"/>
      <point x="15" y="437"/>
      <point x="60" y="487"/>
      <point x="124" y="487" type="curve" smooth="yes"/>
      <point x="191" y="487"/>
      <point x="238" y="437"/>
      <point x="238" y="365" type="curve" smooth="yes"/>
      <point x="238" y="327"/>
      <point x="238" y="288"/>
      <point x="238" y="250" type="curve" smooth="yes"/>
      <point x="238" y="212"/>
      <point x="238" y="173"/>
      <point x="238" y="135" type="curve" smooth="yes"/>
      <point x="238" y="63"/>
      <point x="191" y="13"/>
      <point x="124" y="13" type="curve" smooth="yes"/>
    </contour>
  </outline>
</glyph>
<glyph name="b.sc" format="1">
  <advance width="413"/>
  <outline>
    <contour>
      <point x="217" y="0" type="line" smooth="yes"/>
      <point x="315" y="0"/>
      <point x="374" y="60"/>
      <point x="374" y="159" type="curve" smooth="yes"/>
      <point x="374" y="261"/>
      <point x="314" y="321"/>
      <point x="214" y="321" type="curve" smooth="yes"/>
      <point x="86" y="321" type="line"/>
      <point x="86" y="0" type="line"/>
    </contour>
    <contour>
      <point x="108" y="301" type="line"/>
      <point x="216" y="301" type="line" smooth="yes"/>
      <point x="301" y="301"/>
      <point x="352" y="249"/>
      <point x="352" y="160" type="curve" smooth="yes"/>
      <point x="352" y="73"/>
      <point x="301" y="22"/>
      <point x="216" y="22" type="curve" smooth="yes"/>
      <point x="108" y="22" type="line"/>
    </contour>
    <contour>
      <point x="214" y="301" type="line" smooth="yes"/>
      <point x="314" y="301"/>
      <point x="373" y="355"/>
      <point x="373" y="447" type="curve" smooth="yes"/>
      <point x="373" y="544"/>
      <point x="314" y="600"/>
      <point x="216" y="600" type="curve" smooth="yes"/>
      <point x="86" y="600" type="line"/>
      <point x="86" y="301" type="line"/>
    </contour>
    <contour>
      <point x="108" y="579" type="line"/>
      <point x="216" y="579" type="line" smooth="yes"/>
      <point x="300" y="579"/>
      <point x="351" y="530"/>
      <point x="351" y="447" type="curve" smooth="yes"/>
      <point x="351" y="368"/>
      <point x="300" y="321"/>
      <point x="216" y="321" type="curve" smooth="yes"/>
      <point x="108" y="321" type="line"/>
    </contour>
  </outline>
</glyph>
<glyph name="c.sc" format="1">
  <advance width="414"/>
  <outline>
    <contour>
      <point x="296" y="-7"/>
      <point x="354" y="47"/>
      <point x="354" y="138" type="curve" smooth="yes"/>
      <point x="354" y="162" type="line"/>
      <point x="331" y="163" type="line"/>
      <point x="331" y="137" type="line" smooth="yes"/>
      <point x="331" y="60"/>
      <point x="282" y="14"/>
      <point x="209" y="14" type="curve" smooth="yes"/>
      <point x="137" y="14"/>
      <point x="89" y="60"/>
      <point x="89" y="137" type="curve" smooth="yes"/>
      <point x="89" y="464" type="line" smooth="yes"/>
      <point x="89" y="541"/>
      <point x="137" y="586"/>
      <point x="209" y="586" type="curve" smooth="yes"/>
      <point x="282" y="586"/>
      <point x="331" y="541"/>
      <point x="331" y="464" type="curve" smooth="yes"/>
      <point x="331" y="436" type="line"/>
      <point x="354" y="437" type="line"/>
      <point x="354" y="462" type="line" smooth="yes"/>
      <point x="354" y="554"/>
      <point x="296" y="607"/>
      <point x="209" y="607" type="curve" smooth="yes"/>
      <point x="124" y="607"/>
      <point x="67" y="554"/>
      <point x="67" y="462" type="curve" smooth="yes"/>
      <point x="67" y="138" type="line" smooth="yes"/>
      <point x="67" y="47"/>
      <point x="124" y="-7"/>
      <point x="209" y="-7" type="curve" smooth="yes"/>
    </contour>
    <contour>
      <point x="209" y="607" type="move" name="top"/>
    </contour>
    <contour>
      <point x="209" y="-7" type="move" name="bottom"/>
    </contour>
  </outline>
</glyph>
<glyph name="d.sc" format="1">
  <advance width="435"/>
  <outline>
    <contour>
      <point x="223" y="0" type="line" smooth="yes"/>
      <point x="309" y="0"/>
      <point x="363" y="59"/>
      <point x="363" y="154" type="curve" smooth="yes"/>
      <point x="363" y="446" type="line" smooth="yes"/>
      <point x="363" y="541"/>
      <point x="309" y="600"/>
      <point x="223" y="600" type="curve" smooth="yes"/>
      <point x="86" y="600" type="line"/>
      <point x="86" y="0" type="line"/>
    </contour>
    <contour>
      <point x="108" y="579" type="line"/>
      <point x="224" y="579" type="line" smooth="yes"/>
      <point x="296" y="579"/>
      <point x="340" y="528"/>
      <point x="340" y="446" type="curve" smooth="yes"/>
      <point x="340" y="155" type="line" smooth="yes"/>
      <point x="340" y="72"/>
      <point x="296" y="21"/>
      <point x="224" y="21" type="curve" smooth="yes"/>
      <point x="108" y="21" type="line"/>
    </contour>
    <contour>
      <point x="212" y="604" type="move" name="top"/>
    </contour>
  </outline>
</glyph>
<glyph name="e.sc" format="1">
  <advance width="362"/>
  <outline>
    <contour>
      <point x="76" y="0" type="line"/>
      <point x="320" y="0" type="line"/>
      <point x="320" y="21" type="line"/>
      <point x="98" y="21" type="line"/>
      <point x="98" y="554" type="line"/>
      <point x="320" y="554" type="line"/>
      <point x="320" y="575" type="line"/>
      <point x="76" y="575" type="line"/>
    </contour>
    <contour>
      <point x="87" y="278" type="line"/>
      <point x="248" y="278" type="line"/>
      <point x="248" y="299" type="line"/>
      <point x="87" y="299" type="line"/>
    </contour>
    <contour>
      <point x="196" y="0" type="move" name="bottom"/>
    </contour>
    <contour>
      <point x="197" y="584" type="move" name="top"/>
    </contour>
  </outline>
</glyph>
<glyph name="eight.dnom" format="1">
  <advance width="249"/>
  <outline>
    <contour>
      <point x="167" y="-8"/>
      <point x="199" y="25"/>
      <point x="208" y="70" type="curve" smooth="yes"/>
      <point x="212" y="89"/>
      <point x="211" y="100"/>
      <point x="211" y="112" type="curve" smooth="yes"/>
      <point x="211" y="122"/>
      <point x="211" y="135"/>
      <point x="208" y="153" type="curve" smooth="yes"/>
      <point x="200" y="200"/>
      <point x="166" y="230"/>
      <point x="124" y="230" type="curve" smooth="yes"/>
      <point x="82" y="230"/>
      <point x="50" y="199"/>
      <point x="41" y="154" type="curve" smooth="yes"/>
      <point x="37" y="135"/>
      <point x="38" y="125"/>
      <point x="38" y="112" type="curve" smooth="yes"/>
      <point x="38" y="102"/>
      <point x="37" y="90"/>
      <point x="42" y="70" type="curve" smooth="yes"/>
      <point x="54" y="24"/>
      <point x="81" y="-8"/>
      <point x="124" y="-8" type="curve" smooth="yes"/>
    </contour>
    <contour>
      <point x="90" y="13"/>
      <point x="64" y="41"/>
      <point x="61" y="81" type="curve" smooth="yes"/>
      <point x="60" y="93"/>
      <point x="60" y="103"/>
      <point x="60" y="113" type="curve" smooth="yes"/>
      <point x="60" y="120"/>
      <point x="60" y="132"/>
      <point x="61" y="144" type="curve" smooth="yes"/>
      <point x="64" y="184"/>
      <point x="90" y="213"/>
      <point x="124" y="213" type="curve" smooth="yes"/>
      <point x="158" y="213"/>
      <point x="180" y="184"/>
      <point x="187" y="144" type="curve" smooth="yes"/>
      <point x="189" y="132"/>
      <point x="188" y="122"/>
      <point x="188" y="113" type="curve" smooth="yes"/>
      <point x="188" y="106"/>
      <point x="189" y="94"/>
      <point x="187" y="81" type="curve" smooth="yes"/>
      <point x="181" y="41"/>
      <point x="158" y="13"/>
      <point x="124" y="13" type="curve" smooth="yes"/>
    </contour>
    <contour>
      <point x="88" y="232"/>
      <point x="69" y="257"/>
      <point x="61" y="294" type="curve" smooth="yes"/>
      <point x="59" y="303"/>
      <point x="59" y="311"/>
      <point x="59" y="316" type="curve" smooth="yes"/>
      <point x="59" y="323"/>
      <point x="60" y="333"/>
      <point x="61" y="340" type="curve" smooth="yes"/>
      <point x="66" y="376"/>
      <point x="89" y="402"/>
      <point x="124" y="402" type="curve" smooth="yes"/>
      <point x="157" y="402"/>
      <point x="178" y="379"/>
      <point x="187" y="340" type="curve" smooth="yes"/>
      <point x="189" y="331"/>
      <point x="189" y="323"/>
      <point x="189" y="317" type="curve" smooth="yes"/>
      <point x="189" y="310"/>
      <point x="189" y="302"/>
      <point x="187" y="294" type="curve" smooth="yes"/>
      <point x="178" y="258"/>
      <point x="159" y="232"/>
      <point x="124" y="232" type="curve" smooth="yes"/>
    </contour>
    <contour>
      <point x="167" y="215"/>
      <point x="198" y="242"/>
      <point x="208" y="285" type="curve" smooth="yes"/>
      <point x="211" y="298"/>
      <point x="212" y="308"/>
      <point x="212" y="317" type="curve" smooth="yes"/>
      <point x="212" y="326"/>
      <point x="211" y="338"/>
      <point x="208" y="351" type="curve" smooth="yes"/>
      <point x="198" y="395"/>
      <point x="167" y="422"/>
      <point x="124" y="422" type="curve" smooth="yes"/>
      <point x="82" y="422"/>
      <point x="53" y="397"/>
      <point x="41" y="351" type="curve" smooth="yes"/>
      <point x="37" y="336"/>
      <point x="37" y="325"/>
      <point x="37" y="318" type="curve" smooth="yes"/>
      <point x="37" y="310"/>
      <point x="38" y="299"/>
      <point x="41" y="285" type="curve" smooth="yes"/>
      <point x="51" y="238"/>
      <point x="83" y="215"/>
      <point x="124" y="215" type="curve" smooth="yes"/>
    </contour>
  </outline>
</glyph>
<glyph name="eng.sc" format="1">
  <advance width="456"/>
  <outline>
    <contour>
      <point x="369" y="-116"/>
      <point x="370" y="-71"/>
      <point x="370" y="4" type="curve" smooth="yes"/>
      <point x="370" y="488" type="line"/>
      <point x="348" y="488" type="line"/>
      <point x="348" y="4" type="line" smooth="yes"/>
      <point x="348" y="-58"/>
      <point x="354" y="-95"/>
      <point x="283" y="-95" type="curve"/>
      <point x="283" y="-116" type="line"/>
    </contour>
    <component base="n.sc"/>
  </outline>
</glyph>
<glyph name="eth.sc" format="1">
  <advance width="484"/>
  <outline>
    <contour>
      <point x="265" y="301" type="line"/>
      <point x="265" y="321" type="line"/>
      <point x="86" y="321" type="line"/>
      <point x="86" y="301" type="line"/>
    </contour>
    <component base="d.sc" xOffset="49"/>
  </outline>
</glyph>
<glyph name="f_f_i.liga" format="1">
  <advance width="708"/>
  <outline>
    <contour>
      <point x="116" y="0" type="line"/>
      <point x="116" y="550" type="line" smooth="yes"/>
      <point x="116" y="637"/>
      <point x="129" y="689"/>
      <point x="199" y="689" type="curve" smooth="yes"/>
      <point x="224" y="689" type="line"/>
      <point x="224" y="710" type="line"/>
      <point x="198" y="710" type="line" smooth="yes"/>
      <point x="116" y="710"/>
      <point x="94" y="650"/>
      <point x="94" y="550" type="curve" smooth="yes"/>
      <point x="94" y="0" type="line"/>
    </contour>
    <contour>
      <point x="220" y="479" type="line"/>
      <point x="220" y="500" type="line"/>
      <point x="34" y="500" type="line"/>
      <point x="34" y="479" type="line"/>
    </contour>
    <contour>
      <point x="378" y="0" type="line"/>
      <point x="378" y="550" type="line" smooth="yes"/>
      <point x="378" y="637"/>
      <point x="391" y="689"/>
      <point x="461" y="689" type="curve" smooth="yes"/>
      <point x="486" y="689" type="line"/>
      <point x="486" y="710" type="line"/>
      <point x="460" y="710" type="line" smooth="yes"/>
      <point x="378" y="710"/>
      <point x="356" y="650"/>
      <point x="356" y="550" type="curve" smooth="yes"/>
      <point x="356" y="0" type="line"/>
    </contour>
    <contour>
      <point x="482" y="479" type="line"/>
      <point x="482" y="500" type="line"/>
      <point x="296" y="500" type="line"/>
      <point x="296" y="479" type="line"/>
    </contour>
    <contour>
      <point x="628" y="0" type="line"/>
      <point x="628" y="500" type="line"/>
      <point x="606" y="500" type="line"/>
      <point x="606" y="0" type="line"/>
    </contour>
    <contour>
      <point x="631" y="620"/>
      <point x="642" y="633"/>
      <point x="642" y="650" type="curve" smooth="yes"/>
      <point x="642" y="666"/>
      <point x="631" y="679"/>
      <point x="617" y="679" type="curve" smooth="yes"/>
      <point x="602" y="679"/>
      <point x="590" y="666"/>
      <point x="590" y="650" type="curve" smooth="yes"/>
      <point x="590" y="633"/>
      <point x="602" y="620"/>
      <point x="617" y="620" type="curve" smooth="yes"/>
    </contour>
  </outline>
</glyph>
<glyph name="f_f_l.liga" format="1">
  <advance width="686"/>
  <outline>
    <contour>
      <point x="116" y="0" type="line"/>
      <point x="116" y="550" type="line" smooth="yes"/>
      <point x="116" y="637"/>
      <point x="129" y="689"/>
      <point x="199" y="689" type="curve" smooth="yes"/>
      <point x="224" y="689" type="line"/>
      <point x="224" y="710" type="line"/>
      <point x="198" y="710" type="line" smooth="yes"/>
      <point x="116" y="710"/>
      <point x="94" y="650"/>
      <point x="94" y="550" type="curve" smooth="yes"/>
      <point x="94" y="0" type="line"/>
    </contour>
    <contour>
      <point x="220" y="479" type="line"/>
      <point x="220" y="500" type="line"/>
      <point x="34" y="500" type="line"/>
      <point x="34" y="479" type="line"/>
    </contour>
    <contour>
      <point x="378" y="0" type="line"/>
      <point x="378" y="550" type="line" smooth="yes"/>
      <point x="378" y="637"/>
      <point x="391" y="689"/>
      <point x="461" y="689" type="curve" smooth="yes"/>
      <point x="486" y="689" type="line"/>
      <point x="486" y="710" type="line"/>
      <point x="460" y="710" type="line" smooth="yes"/>
      <point x="378" y="710"/>
      <point x="356" y="650"/>
      <point x="356" y="550" type="curve" smooth="yes"/>
      <point x="356" y="0" type="line"/>
    </contour>
    <contour>
      <point x="482" y="479" type="line"/>
      <point x="482" y="500" type="line"/>
      <point x="296" y="500" type="line"/>
      <point x="296" y="479" type="line"/>
    </contour>
    <contour>
      <point x="616" y="0" type="line"/>
      <point x="616" y="700" type="line"/>
      <point x="594" y="700" type="line"/>
      <point x="594" y="0" type="line"/>
    </contour>
    <contour>
      <point x="605" y="700" type="move" name="top"/>
    </contour>
  </outline>
</glyph>
<glyph name="five.dnom" format="1">
  <advance width="222"/>
  <outline>
    <contour>
      <point x="151" y="-8"/>
      <point x="178" y="16"/>
      <point x="190" y="62" type="curve" smooth="yes"/>
      <point x="195" y="79"/>
      <point x="197" y="100"/>
      <point x="197" y="124" type="curve" smooth="yes"/>
      <point x="197" y="153"/>
      <point x="194" y="177"/>
      <point x="188" y="196" type="curve" smooth="yes"/>
      <point x="175" y="235"/>
      <point x="151" y="255"/>
      <point x="114" y="255" type="curve" smooth="yes"/>
      <point x="69" y="255"/>
      <point x="42" y="235"/>
      <point x="34" y="197" type="curve"/>
      <point x="46" y="196" type="line"/>
      <point x="47" y="397" type="line"/>
      <point x="185" y="397" type="line"/>
      <point x="185" y="417" type="line"/>
      <point x="24" y="417" type="line"/>
      <point x="24" y="178" type="line"/>
      <point x="47" y="178" type="line"/>
      <point x="53" y="215"/>
      <point x="75" y="234"/>
      <point x="110" y="234" type="curve" smooth="yes"/>
      <point x="139" y="234"/>
      <point x="159" y="217"/>
      <point x="168" y="184" type="curve" smooth="yes"/>
      <point x="173" y="168"/>
      <point x="175" y="148"/>
      <point x="175" y="124" type="curve" smooth="yes"/>
      <point x="175" y="101"/>
      <point x="173" y="81"/>
      <point x="168" y="65" type="curve" smooth="yes"/>
      <point x="159" y="30"/>
      <point x="139" y="13"/>
      <point x="110" y="13" type="curve" smooth="yes"/>
      <point x="77" y="13"/>
      <point x="57" y="34"/>
      <point x="49" y="74" type="curve" smooth="yes"/>
      <point x="47" y="85"/>
      <point x="46" y="98"/>
      <point x="46" y="112" type="curve"/>
      <point x="24" y="112" type="line"/>
      <point x="24" y="96"/>
      <point x="25" y="82"/>
      <point x="27" y="70" type="curve" smooth="yes"/>
      <point x="37" y="18"/>
      <point x="64" y="-8"/>
      <point x="110" y="-8" type="curve" smooth="yes"/>
    </contour>
  </outline>
</glyph>
<glyph name="four.dnom" format="1">
  <advance width="219"/>
  <outline>
    <contour>
      <point x="155" y="0" type="line"/>
      <point x="177" y="0" type="line"/>
      <point x="177" y="253" type="line"/>
      <point x="155" y="253" type="line"/>
    </contour>
    <contour>
      <point x="41" y="140" type="line"/>
      <point x="138" y="420" type="line"/>
      <point x="113" y="420" type="line"/>
      <point x="16" y="138" type="line"/>
      <point x="16" y="119" type="line"/>
      <point x="203" y="119" type="line"/>
      <point x="203" y="140" type="line"/>
    </contour>
  </outline>
</glyph>
<glyph name="g.sc" format="1">
  <advance width="413"/>
  <outline>
    <contour>
      <point x="295" y="-7"/>
      <point x="353" y="45"/>
      <point x="353" y="135" type="curve" smooth="yes"/>
      <point x="353" y="286" type="line"/>
      <point x="216" y="286" type="line"/>
      <point x="216" y="265" type="line"/>
      <point x="331" y="265" type="line"/>
      <point x="331" y="134" type="line" smooth="yes"/>
      <point x="331" y="58"/>
      <point x="282" y="14"/>
      <point x="209" y="14" type="curve" smooth="yes"/>
      <point x="137" y="14"/>
      <point x="89" y="58"/>
      <point x="89" y="134" type="curve" smooth="yes"/>
      <point x="89" y="466" type="line" smooth="yes"/>
      <point x="89" y="542"/>
      <point x="137" y="586"/>
      <point x="209" y="586" type="curve" smooth="yes"/>
      <point x="282" y="586"/>
      <point x="331" y="542"/>
      <point x="331" y="466" type="curve" smooth="yes"/>
      <point x="331" y="428" type="line"/>
      <point x="353" y="428" type="line"/>
      <point x="353" y="465" type="line" smooth="yes"/>
      <point x="353" y="555"/>
      <point x="295" y="607"/>
      <point x="209" y="607" type="curve" smooth="yes"/>
      <point x="124" y="607"/>
      <point x="67" y="555"/>
      <point x="67" y="465" type="curve" smooth="yes"/>
      <point x="67" y="135" type="line" smooth="yes"/>
      <point x="67" y="45"/>
      <point x="124" y="-7"/>
      <point x="209" y="-7" type="curve" smooth="yes"/>
    </contour>
    <contour>
      <point x="209" y="607" type="move" name="top"/>
    </contour>
    <contour>
      <point x="208" y="-7" type="move" name="bottom"/>
    </contour>
  </outline>
</glyph>
<glyph name="h.sc" format="1">
  <advance width="443"/>
  <outline>
    <contour>
      <point x="357" y="0" type="line"/>
      <point x="357" y="600" type="line"/>
      <point x="335" y="600" type="line"/>
      <point x="335" y="0" type="line"/>
    </contour>
    <contour>
      <point x="108" y="0" type="line"/>
      <point x="108" y="600" type="line"/>
      <point x="86" y="600" type="line"/>
      <point x="86" y="0" type="line"/>
    </contour>
    <contour>
      <point x="342" y="290" type="line"/>
      <point x="342" y="311" type="line"/>
      <point x="103" y="311" type="line"/>
      <point x="103" y="290" type="line"/>
    </contour>
    <contour>
      <point x="221" y="436" type="move" name="strokelong"/>
    </contour>
  </outline>
</glyph>
<glyph name="i.sc" format="1">
  <advance width="194"/>
  <outline>
    <contour>
      <point x="108" y="0" type="line"/>
      <point x="108" y="599" type="line"/>
      <point x="86" y="599" type="line"/>
      <point x="86" y="0" type="line"/>
    </contour>
    <contour>
      <point x="97" y="608" type="move" name="top"/>
    </contour>
  </outline>
</glyph>
<glyph name="j.sc" format="1">
  <advance width="349"/>
  <outline>
    <contour>
      <point x="147" y="-7" type="curve" smooth="yes"/>
      <point x="223" y="-7"/>
      <point x="273" y="45"/>
      <point x="273" y="133" type="curve" smooth="yes"/>
      <point x="273" y="576" type="line"/>
      <point x="250" y="576" type="line"/>
      <point x="250" y="132" type="line" smooth="yes"/>
      <point x="250" y="58"/>
      <point x="210" y="14"/>
      <point x="147" y="14" type="curve" smooth="yes"/>
      <point x="86" y="14"/>
      <point x="45" y="58"/>
      <point x="45" y="132" type="curve" smooth="yes"/>
      <point x="45" y="206" type="line"/>
      <point x="23" y="206" type="line"/>
      <point x="23" y="133" type="line" smooth="yes"/>
      <point x="23" y="45"/>
      <point x="73" y="-7"/>
    </contour>
  </outline>
</glyph>
<glyph name="k.sc" format="1">
  <advance width="404"/>
  <outline>
    <contour>
      <point x="108" y="0" type="line"/>
      <point x="108" y="233" type="line"/>
      <point x="191" y="345" type="line"/>
      <point x="357" y="0" type="line"/>
      <point x="384" y="0" type="line"/>
      <point x="207" y="366" type="line"/>
      <point x="369" y="600" type="line"/>
      <point x="341" y="600" type="line"/>
      <point x="108" y="267" type="line"/>
      <point x="108" y="600" type="line"/>
      <point x="86" y="600" type="line"/>
      <point x="86" y="0" type="line"/>
    </contour>
    <contour>
      <point x="224" y="0" type="move" name="bottom"/>
    </contour>
  </outline>
</glyph>
<glyph name="l.sc" format="1">
  <advance width="357"/>
  <outline>
    <contour>
      <point x="350" y="0" type="line"/>
      <point x="350" y="21" type="line"/>
      <point x="108" y="21" type="line"/>
      <point x="108" y="600" type="line"/>
      <point x="86" y="600" type="line"/>
      <point x="86" y="0" type="line"/>
    </contour>
    <contour>
      <point x="95" y="600" type="move" name="top"/>
    </contour>
    <contour>
      <point x="185" y="0" type="move" name="bottom"/>
    </contour>
  </outline>
</glyph>
<glyph name="m.sc" format="1">
  <advance width="477"/>
  <outline>
    <contour>
      <point x="108" y="0" type="line"/>
      <point x="108" y="554" type="line"/>
      <point x="231" y="282" type="line"/>
      <point x="248" y="282" type="line"/>
      <point x="369" y="554" type="line"/>
      <point x="369" y="0" type="line"/>
      <point x="391" y="0" type="line"/>
      <point x="391" y="600" type="line"/>
      <point x="369" y="600" type="line"/>
      <point x="238" y="311" type="line"/>
      <point x="108" y="600" type="line"/>
      <point x="86" y="600" type="line"/>
      <point x="86" y="0" type="line"/>
    </contour>
  </outline>
</glyph>
<glyph name="n.curve" format="1">
  <advance width="254"/>
  <outline>
    <contour>
      <point x="254" y="0" type="line"/>
      <point x="254" y="357" type="line" smooth="yes"/>
      <point x="254" y="451"/>
      <point x="208" y="507"/>
      <point x="129" y="507" type="curve" smooth="yes"/>
      <point x="51" y="507"/>
      <point x="-1" y="448"/>
      <point x="-1" y="346" type="curve"/>
      <point x="15" y="346" type="line"/>
      <point x="15" y="433"/>
      <point x="58" y="486"/>
      <point x="126" y="486" type="curve" smooth="yes"/>
      <point x="193" y="486"/>
      <point x="232" y="437"/>
      <point x="232" y="354" type="curve" smooth="yes"/>
      <point x="232" y="0" type="line"/>
    </contour>
  </outline>
</glyph>
<glyph name="n.sc" format="1">
  <advance width="410"/>
  <outline>
    <contour>
      <point x="98" y="0" type="line"/>
      <point x="98" y="524" type="line"/>
      <point x="311" y="0" type="line"/>
      <point x="334" y="0" type="line"/>
      <point x="334" y="575" type="line"/>
      <point x="312" y="575" type="line"/>
      <point x="312" y="51" type="line"/>
      <point x="98" y="575" type="line"/>
      <point x="76" y="575" type="line"/>
      <point x="76" y="0" type="line"/>
    </contour>
    <contour>
      <point x="205" y="584" type="move" name="top"/>
    </contour>
    <contour>
      <point x="202" y="0" type="move" name="bottom"/>
    </contour>
  </outline>
</glyph>
<glyph name="o.sc" format="1">
  <advance width="423"/>
  <outline>
    <contour>
      <point x="297" y="-7"/>
      <point x="356" y="49"/>
      <point x="356" y="140" type="curve" smooth="yes"/>
      <point x="356" y="459" type="line" smooth="yes"/>
      <point x="356" y="551"/>
      <point x="297" y="607"/>
      <point x="211" y="607" type="curve" smooth="yes"/>
      <point x="126" y="607"/>
      <point x="67" y="551"/>
      <point x="67" y="459" type="curve" smooth="yes"/>
      <point x="67" y="140" type="line" smooth="yes"/>
      <point x="67" y="49"/>
      <point x="126" y="-7"/>
      <point x="211" y="-7" type="curve" smooth="yes"/>
    </contour>
    <contour>
      <point x="139" y="14"/>
      <point x="89" y="61"/>
      <point x="89" y="139" type="curve" smooth="yes"/>
      <point x="89" y="460" type="line" smooth="yes"/>
      <point x="89" y="539"/>
      <point x="139" y="586"/>
      <point x="211" y="586" type="curve" smooth="yes"/>
      <point x="284" y="586"/>
      <point x="334" y="539"/>
      <point x="334" y="460" type="curve" smooth="yes"/>
      <point x="334" y="139" type="line" smooth="yes"/>
      <point x="334" y="61"/>
      <point x="284" y="14"/>
      <point x="211" y="14" type="curve" smooth="yes"/>
    </contour>
    <contour>
      <point x="211" y="599" type="move" name="top"/>
    </contour>
  </outline>
</glyph>
<glyph name="oe.sc" format="1">
  <advance width="650"/>
  <outline>
    <contour>
      <point x="296" y="-7"/>
      <point x="354" y="49"/>
      <point x="354" y="140" type="curve" smooth="yes"/>
      <point x="354" y="459" type="line" smooth="yes"/>
      <point x="354" y="551"/>
      <point x="296" y="607"/>
      <point x="211" y="607" type="curve" smooth="yes"/>
      <point x="126" y="607"/>
      <point x="67" y="551"/>
      <point x="67" y="459" type="curve" smooth="yes"/>
      <point x="67" y="140" type="line" smooth="yes"/>
      <point x="67" y="49"/>
      <point x="126" y="-7"/>
      <point x="211" y="-7" type="curve" smooth="yes"/>
    </contour>
    <contour>
      <point x="139" y="14"/>
      <point x="89" y="61"/>
      <point x="89" y="139" type="curve" smooth="yes"/>
      <point x="89" y="460" type="line" smooth="yes"/>
      <point x="89" y="539"/>
      <point x="139" y="586"/>
      <point x="211" y="586" type="curve" smooth="yes"/>
      <point x="284" y="586"/>
      <point x="334" y="539"/>
      <point x="334" y="460" type="curve" smooth="yes"/>
      <point x="334" y="139" type="line" smooth="yes"/>
      <point x="334" y="61"/>
      <point x="284" y="14"/>
      <point x="211" y="14" type="curve" smooth="yes"/>
    </contour>
    <contour>
      <point x="525" y="290" type="line"/>
      <point x="525" y="311" type="line"/>
      <point x="345" y="311" type="line"/>
      <point x="345" y="290" type="line"/>
    </contour>
    <contour>
      <point x="603" y="0" type="line"/>
      <point x="603" y="21" type="line"/>
      <point x="356" y="21" type="line"/>
      <point x="356" y="579" type="line"/>
      <point x="603" y="579" type="line"/>
      <point x="603" y="600" type="line"/>
      <point x="334" y="600" type="line"/>
      <point x="334" y="0" type="line"/>
    </contour>
    <contour>
      <point x="352" y="600" type="move" name="top"/>
    </contour>
  </outline>
</glyph>
<glyph name="one.dnom" format="1">
  <advance width="137"/>
  <outline>
    <contour>
      <point x="98" y="0" type="line"/>
      <point x="98" y="420" type="line"/>
      <point x="75" y="420" type="line"/>
      <point x="75" y="0" type="line"/>
    </contour>
    <contour>
      <point x="75" y="394" type="line"/>
      <point x="75" y="420" type="line"/>
      <point x="35" y="396" type="line"/>
      <point x="35" y="377" type="line"/>
    </contour>
  </outline>
</glyph>
<glyph name="p.sc" format="1">
  <advance width="399"/>
  <outline>
    <contour>
      <point x="101" y="0" type="line"/>
      <point x="101" y="581" type="line"/>
      <point x="220" y="581" type="line" smooth="yes"/>
      <point x="290" y="581"/>
      <point x="337" y="527"/>
      <point x="337" y="445" type="curve" smooth="yes"/>
      <point x="337" y="365"/>
      <point x="290" y="310"/>
      <point x="220" y="310" type="curve" smooth="yes"/>
      <point x="97" y="310" type="line"/>
      <point x="97" y="290" type="line"/>
      <point x="220" y="290" type="line" smooth="yes"/>
      <point x="303" y="290"/>
      <point x="359" y="352"/>
      <point x="359" y="445" type="curve" smooth="yes"/>
      <point x="359" y="539"/>
      <point x="303" y="602"/>
      <point x="220" y="602" type="curve" smooth="yes"/>
      <point x="79" y="602" type="line"/>
      <point x="79" y="0" type="line"/>
    </contour>
  </outline>
</glyph>
<glyph name="q.sc" format="1">
  <advance width="372"/>
  <outline>
    <contour>
      <point x="186" y="-7" type="curve" smooth="yes"/>
      <point x="261" y="-7"/>
      <point x="312" y="47"/>
      <point x="312" y="136" type="curve" smooth="yes"/>
      <point x="312" y="440" type="line" smooth="yes"/>
      <point x="312" y="529"/>
      <point x="261" y="583"/>
      <point x="186" y="583" type="curve" smooth="yes"/>
      <point x="112" y="583"/>
      <point x="60" y="529"/>
      <point x="60" y="440" type="curve" smooth="yes"/>
      <point x="60" y="136" type="line" smooth="yes"/>
      <point x="60" y="47"/>
      <point x="112" y="-7"/>
    </contour>
    <contour>
      <point x="174" y="-103" type="line"/>
      <point x="197" y="-103" type="line"/>
      <point x="197" y="3" type="line"/>
      <point x="174" y="3" type="line"/>
    </contour>
    <contour>
      <point x="186" y="14" type="curve" smooth="yes"/>
      <point x="125" y="14"/>
      <point x="82" y="59"/>
      <point x="82" y="135" type="curve" smooth="yes"/>
      <point x="82" y="441" type="line" smooth="yes"/>
      <point x="82" y="517"/>
      <point x="125" y="562"/>
      <point x="186" y="562" type="curve" smooth="yes"/>
      <point x="247" y="562"/>
      <point x="290" y="517"/>
      <point x="290" y="441" type="curve" smooth="yes"/>
      <point x="290" y="135" type="line" smooth="yes"/>
      <point x="290" y="59"/>
      <point x="247" y="14"/>
    </contour>
  </outline>
</glyph>
<glyph name="r.sc" format="1">
  <advance width="404"/>
  <outline>
    <contour>
      <point x="108" y="0" type="line"/>
      <point x="108" y="581" type="line"/>
      <point x="227" y="581" type="line" smooth="yes"/>
      <point x="297" y="581"/>
      <point x="344" y="527"/>
      <point x="344" y="446" type="curve" smooth="yes"/>
      <point x="344" y="367"/>
      <point x="297" y="314"/>
      <point x="227" y="314" type="curve" smooth="yes"/>
      <point x="104" y="314" type="line"/>
      <point x="104" y="293" type="line"/>
      <point x="227" y="293" type="line" smooth="yes"/>
      <point x="310" y="293"/>
      <point x="366" y="355"/>
      <point x="366" y="446" type="curve" smooth="yes"/>
      <point x="366" y="539"/>
      <point x="310" y="602"/>
      <point x="227" y="602" type="curve" smooth="yes"/>
      <point x="86" y="602" type="line"/>
      <point x="86" y="0" type="line"/>
    </contour>
    <contour>
      <point x="371" y="0" type="line"/>
      <point x="246" y="303" type="line"/>
      <point x="227" y="296" type="line"/>
      <point x="349" y="0" type="line"/>
    </contour>
    <contour>
      <point x="209" y="600" type="move" name="top"/>
    </contour>
    <contour>
      <point x="219" y="0" type="move" name="bottom"/>
    </contour>
  </outline>
</glyph>
<glyph name="s.sc" format="1">
  <advance width="393"/>
  <outline>
    <contour>
      <point x="282" y="-7"/>
      <point x="342" y="52"/>
      <point x="342" y="143" type="curve" smooth="yes"/>
      <point x="342" y="221"/>
      <point x="299" y="253"/>
      <point x="203" y="317" type="curve" smooth="yes"/>
      <point x="121" y="372"/>
      <point x="82" y="403"/>
      <point x="82" y="469" type="curve" smooth="yes"/>
      <point x="82" y="546"/>
      <point x="131" y="587"/>
      <point x="194" y="587" type="curve" smooth="yes"/>
      <point x="266" y="587"/>
      <point x="314" y="535"/>
      <point x="314" y="457" type="curve" smooth="yes"/>
      <point x="314" y="428" type="line"/>
      <point x="336" y="428" type="line"/>
      <point x="336" y="458" type="line" smooth="yes"/>
      <point x="336" y="547"/>
      <point x="280" y="607"/>
      <point x="194" y="607" type="curve" smooth="yes"/>
      <point x="118" y="607"/>
      <point x="60" y="558"/>
      <point x="60" y="471" type="curve" smooth="yes"/>
      <point x="60" y="387"/>
      <point x="113" y="349"/>
      <point x="191" y="296" type="curve" smooth="yes"/>
      <point x="266" y="246"/>
      <point x="320" y="213"/>
      <point x="320" y="137" type="curve" smooth="yes"/>
      <point x="320" y="62"/>
      <point x="268" y="13"/>
      <point x="199" y="13" type="curve" smooth="yes"/>
      <point x="130" y="13"/>
      <point x="81" y="64"/>
      <point x="81" y="142" type="curve" smooth="yes"/>
      <point x="81" y="165" type="line"/>
      <point x="60" y="165" type="line"/>
      <point x="60" y="141" type="line" smooth="yes"/>
      <point x="60" y="52"/>
      <point x="118" y="-7"/>
      <point x="200" y="-7" type="curve" smooth="yes"/>
    </contour>
    <contour>
      <point x="194" y="607" type="move" name="top"/>
    </contour>
    <contour>
      <point x="200" y="-7" type="move" name="bottom"/>
    </contour>
  </outline>
</glyph>
<glyph name="seven.dnom" format="1">
  <advance width="203"/>
  <outline>
    <contour>
      <point x="61" y="0" type="line"/>
      <point x="85" y="0" type="line"/>
      <point x="191" y="400" type="line"/>
      <point x="191" y="420" type="line"/>
      <point x="12" y="420" type="line"/>
      <point x="12" y="351" type="line"/>
      <point x="32" y="351" type="line"/>
      <point x="32" y="400" type="line"/>
      <point x="167" y="400" type="line"/>
    </contour>
  </outline>
</glyph>
